<?xml version="1.0" standalone="no"?>
<!DOCTYPE svg PUBLIC "-//W3C//DTD SVG 20010904//EN"
 "http://www.w3.org/TR/2001/REC-SVG-20010904/DTD/svg10.dtd">
<svg version="1.0" xmlns="http://www.w3.org/2000/svg"
 width="700.000000pt" height="700.000000pt" viewBox="0 0 700.000000 700.000000"
 preserveAspectRatio="xMidYMid meet">
<metadata>
Created by potrace 1.14, written by Peter Selinger 2001-2017
</metadata>
<g transform="translate(0.000000,700.000000) scale(0.100000,-0.100000)"
fill="#000000" stroke="none">
<path d="M0 3515 l0 -3485 2885 0 2885 0 0 3485 0 3485 -2885 0 -2885 0 0
-3485z m5330 3044 c3 -4 5 -616 5 -1361 l0 -1353 -2430 -2 c-1337 -1 -2439 0
-2450 2 -20 4 -20 11 -19 1362 1 747 2 1358 3 1358 747 4 4888 -2 4891 -6z m5
-4676 c0 -1407 0 -1413 -20 -1414 -26 -1 -4868 -1 -4875 0 -4 1 -5 2781 -1
2817 1 8 669 11 2448 10 l2448 -1 0 -1412z"/>
<path d="M656 6331 c-2 -9 -4 -523 -3 -1144 l0 -1127 326 2 326 3 0 1140 0
1140 -322 1 c-289 1 -323 0 -327 -15z"/>
<path d="M1527 6336 c-2 -6 -3 -519 -3 -1141 l1 -1130 326 -3 327 -2 0 1143 0
1144 -324 0 c-225 0 -324 -3 -327 -11z"/>
<path d="M3618 3013 c-20 -60 -75 -220 -123 -358 -48 -137 -93 -268 -100 -290
-7 -22 -36 -105 -63 -185 -104 -299 -244 -706 -257 -745 -7 -22 -47 -137 -88
-256 l-75 -217 77 -27 c42 -14 81 -28 86 -29 6 -2 17 -6 25 -9 8 -3 96 -33
195 -67 99 -33 190 -65 203 -70 28 -12 38 -7 45 22 3 13 44 136 92 273 151
434 286 828 302 880 8 28 21 64 28 80 7 17 32 86 55 155 75 222 228 664 239
694 16 41 9 53 -46 70 -26 8 -147 49 -268 91 -219 77 -275 95 -286 95 -3 0
-22 -48 -41 -107z"/>
<path d="M4357 3073 c-2 -5 -3 -519 -3 -1143 l1 -1135 328 -1 327 -1 0 1144 0
1143 -324 0 c-179 0 -327 -3 -329 -7z"/>
</g>
</svg>
