<svg xmlns="http://www.w3.org/2000/svg" width="567" height="392" viewBox="0 0 567 392">
    <g fill="none" fill-rule="evenodd">
        <g fill-rule="nonzero">
            <g>
                <g>
                    <g>
                        <path fill="#E76C67" d="M169.651 258.675L170.968 275.236 195.979 281.198 215.066 289.81 230.205 303.059 237.445 297.097 246.659 276.561 257.191 274.574 295.366 278.548 308.529 282.523 303.922 305.046 299.315 321.607 375.665 316.97 373.032 278.548 357.236 243.439 294.707 212.966 247.976 218.928 215.066 255.363 200.586 263.312 174.917 261.987" transform="translate(-342 -3322) translate(0 -5) translate(342 3300) matrix(-1 0 0 1 567 27)"/>
                        <g fill="#000">
                            <path d="M4.135 66.051c4.04 1.579 8.328 2.152 12.403 3.59 3.642 1.285 7.025 3.014 10.611 4.32.21-1.663.321-4.48-.293-6.047-.87-2.22-3.16-2.275-5.413-3.066-5.486-1.924-11.257-2.33-16.704-4.578.933 1.795.516 4.171-.604 5.781m69.743-5.805c-8.726.256-17.065 2.286-25.665 3.542-4.184.61-8.373 1.155-12.561 1.725-1.612.22-4.55-.039-5.721 1.356-.972 1.156.093 5.1-.339 6.794 1.764.13 4.895-1.517 6.81-1.79 2.98-.423 5.922-1.017 8.934-1.206 4.77-.3 9.456-.556 14.218-1.087 4.842-.54 9.528-1.542 14.408-1.909 2.373-.178 3.327.267 3.467-2.238.055-.979.19-2.618-.085-3.583.439-1.187.05-1.764-1.168-1.73-.774-.087-1.54-.045-2.298.126M57 52.253c2.36-.22 4.73-.538 7.095-.671.48-.027 2.913.12 3.31-.327.562-.63-.064-2.938-.167-3.651-.351-2.428-.739-3.84-3.387-3.845-2.235-.005-4.55.467-6.776.685-10.107.99-20.163 1.409-30.158 3.29.609 2.59 1.3 5.263.572 7.912 4.794.247 10.059-.675 14.745-1.622 4.79-.967 9.871-1.447 14.766-1.77m-15.996-24.39c-3.611.016-7.428 1.606-10.991 1.252-.053.662 1.087.112 1.402.733.673.001.907.22.701.659.013.299-.14.474-.459.525l-.47.04c-.69.023-.803.488-.339 1.396-.199 1.125.1 2.554.143 3.683 6.404-.871 12.625-1.777 19.073-2.166 3.045-.184 6.087-.183 9.127-.434 3.346-.275 6.998.316 10.268-.31 1.748-.335 1.565-.312 1.438-2.585-.078-1.381-.049-3.02-1.174-4.028-1.878-1.683-6.155-.71-8.401-.651-6.765.179-13.644.807-20.318 1.886M44.7 60.327c9.673-.878 19.274-2.802 29.003-2.802-.688-.687-2.187-.864-3.043-1.24-.976-.426-1.897-1.336-2.85-1.71-1.915-.75-3.863.292-5.829.742-4.743 1.086-9.609 1.123-14.36 2.188-4.91 1.1-9.885 2.115-14.886 2.675-2.382.266-4.937.807-7.29.178l-.574-.41c-.205-.875-.776-1.11-1.713-.701-1.19-.227-2.704.066-3.902.096-.048.478 4.376 1.977 5.22 2.349 2.031.894 3.41 1.55 5.58 1.166 4.887-.863 9.695-1.893 14.644-2.53M10.67 32.05c.379 1.473 1.966.803 3.333.965 1.834.217 3.66.85 5.436 1.327 3.226.867 6.454 1.722 9.667 2.638-.127-1.297.16-4.25-.525-5.401-.72-1.207-4.131-1.736-5.72-2.104-4.004-.926-8.281-.4-12.349-.204.072.925.125 1.85.159 2.779m38.463 9.217c3.799-.321 7.602-.571 11.412-.705 4.356-.153 1.19-.849 1.098-3.505-5.725.913-11.5 1.094-17.208 1.874-4.729.647-10.362 2.337-15.185 1.43-2.275-.429-4.597-.594-7.017-.836-2.283-.228-4.437-1.291-6.693-1.555-2.531-.297-5.118 1.126-7.636 1.502-1.068.16-1.316.883-1.82-.402-.522-1.332.975-2.421 1.564-3.218.689-.93.403.58.785-.873.107-.407-.183-1.43-.236-1.87-.135-1.108-.484-2.312-.538-3.419-.05-1.017-.059-2.568 1.045-3.162.674-.362 1.151.166 1.739.064 4.584-.797 9.978-.863 14.627-.093 5.04.833 9.38-1.374 14.348-2.27 5.828-1.05 11.718-1.207 17.596-1.65 5.027-.38 14.21-2.346 16.126 4.073.542 1.818 1.332 6.825-.127 8.373-1.914 2.032-6.347 1.384-8.822 1.912.37 1.053 1.472 1.769 1.091 3.023 3.47.164 4.083 3.44 4.626 6.498.562 3.165-.535 4.423 2.49 6.07 4.216 2.297 8.682 4.616 8.599 10.085-.041 2.75-.35 6.897-3.173 8.324-2.763 1.396-7.261 1.16-10.306 1.666-5.896.982-11.813 2.134-17.745 2.723-6.317.628-12.738 1.143-19.065 1.423-3.447.154-6.425.674-9.754-.485-3.274-1.14-6.476-1.973-9.853-2.82-3.334-.835-13.54-1.96-10.566-7.66.475-.913 2.102-1.638 2.365-2.5.423-1.392-1.008-2.478-.948-3.735.11-2.3 2.705-2.589 4.497-2.589-3.072-1.92 1.042-4.195 1.018-5.826-.043-2.874-3.618-4.739-3.82-7.148-.492-5.862 18.108.242 20.97 1.51-2.203 3.267-12.426.44-15.47-.055.415 1.09.812 2.071.932 3.188.098.91-.25 1.95.068 2.866.503 1.448.485 1.171 2.264 1.566 1.316.292 2.618.63 3.93.939 2.014.475 5.184 1.75 7.18 1.68 1.751-.06 1.405.483 1.726-1.462.173-1.045-.122-2.156-.298-3.18-.368-2.145-.905-4.175.969-5.715 1.787-1.468 5.553-2.167 7.745-2.684 4.864-1.15 10.479-1.43 15.47-1.372" transform="translate(-342 -3322) translate(0 -5) translate(342 3300) matrix(-1 0 0 1 567 27) translate(0 203)"/>
                            <path d="M73.347 5.544c-5.283-.876-10.65-1.092-15.995-.826l.87 3.925c5.007-1.276 10.087-2.024 15.125-3.099zM30.392 15.696c-2.119-.153-.645.784-.122 2.156.643 1.686.505 3.817.653 5.591 6.198-2.338 13.41-3.707 20-4.494 3.126-.373 6.297-.48 9.44-.64.928-.047 4.284.338 4.963-.28.505-.46.15-2.998-.334-3.558-2.638-3.042-12.835-.415-16.524-.143-6.048.447-11.986 1.517-18.076 1.368zm8.803-8.153c5.489.521 10.788.472 16.277 1.285-.416-3.452.081-4.333-3.876-4.516-3.527-.163-7.043-.295-10.554-.293-7.894.004-15.77-.145-23.673-.145v3.508c7.31-.74 14.502.597 21.826.16zM12.803 20.444c3.464-.015 6.737 1.279 10.202 1.614 2.073.2 1.422.455 2.86 1.485 2.24 1.605 2.885.75 2.605-1.43-.952-7.376-10.39-5.722-15.828-6.132.357 1.759-.464 3.25-1.674 4.463h1.835zm37.44-9.47c-4.982.08-9.97.36-14.918.259-2.214-.046-5.083-.48-7.254-.107-1.59.274-2.92 1.075-4.663 1.373 2.561 1.365 3.86.443 6.553.132 2.69-.31 5.421-.304 8.123-.466 4.436-.266 9.165-1.317 13.537-1.031.08-.61-.38-.663-1.378-.16zM10.727 26.949c-2.286-.004.859-2.577 1.272-2.832-2.531 0-3.144-1.502-2.41-3.915.69-2.273 1.201-1.577-.537-3.47-1.309-1.425-1.507-2.475.036-4.068 1.57-1.62 4.749-1.162 6.14-2.5 2.367-2.278-.688-6.813 2.593-8.558C20.038.426 23.613.572 26.06.323c2.368-.24 4.817-.287 7.2-.319 5.193-.07 10.588.792 15.758 1.266 1.885.172 4.004.926 5.861.927 1.894.003 3.878-.415 5.833-.367 2.274.057 4.464-.11 6.808.26 1.796.283 5.99.432 7.363 1.753 4.575 4.403-6.274 6.425-8.14 6.92 1.9 2.06 1.82 4.781 1.534 7.374.905 0 2.463-.39 2.931.614.582 1.246-1.57 1.57-2.079 1.715-2.927.837-6.352.607-9.369.911-6.03.607-11.987.958-17.955 2.088-2.909.551-5.8 1.233-8.706 1.77-.501.092-1.006.166-1.513.222-.778-.066-1.029.417-.755 1.451-.806.39-3.814-.581-4.744-.73-5.324-.855-10.087-.5-15.361.77zM127.856 163c-5.927 4.622-11.437 8.984-17.856 13 4.537-.14 19.628-7.31 17.856-13M126 154.288c-3.264-2.874-6.507-2.58-10.548-3.45-3.72-.803-7.337-2.184-11.05-3.103-2.914-.721-5.798-1.697-8.702-2.378-4.1-.963-4.505.097-8.276 2.297C74.05 155.462 59.086 160.832 45 167.17c4.136 3.73 13.44 3.89 18.608 5.08 3.774.867 7.365 2.054 10.98 3.427 3.366 1.28 8.788 4.225 12.338 4.322 2.996.084 5.432-2.937 8.012-4.564 3.393-2.14 6.77-4.244 10.19-6.332 7.238-4.417 14.004-9.83 20.872-14.814m-60.594 31.65c-1.542-1.505-6.184-1.439-8.118-1.899-3.809-.903-7.562-1.841-11.422-2.52-6.263-1.099-16.158-1.59-16.838-9.836-.567-6.853 7.593-8.479 12.366-10.8 7.176-3.493 14.498-6.715 21.858-9.795 6.899-2.887 13.9-5.328 20.925-7.823 1.37-.486 2.482-.42 3.6-1.532.883-.878.61-2.583 1.577-3.5 2.215-2.101 5.088-.996 7.75-.457 6.043 1.223 12.318 2.829 18.079 5.098 5.987 2.357 11.343 2.85 12.78 9.737 3.062-1.457 5.365-1.669 4.999 2.614-.107 1.258-1.008 2.627-1.224 3.924-.318 1.914.239 3.93-.076 5.849-1.146 6.975-10.414 12.141-16.157 14.88-7.082 3.377-16.22 8.367-24.127 9.026-8.425.702-17.607-2.655-25.972-2.965" transform="translate(-342 -3322) translate(0 -5) translate(342 3300) matrix(-1 0 0 1 567 27) translate(0 203)"/>
                        </g>
                        <path fill="#000" d="M484.467 106.453c5.144 6.273-2.434 15.144-6.732 19.521-2.085 2.125-3.814 4.581-5.853 6.76-2.014 2.151-4.542 3.845-6.35 5.923-1.9 2.182-4.092 4.57-5.68 7.024-1.005 1.556-2.496 3.293-2.995 5.097-.717 2.596-.118 1.097.83 2.564.97 1.498 1.295 1.585 1.624 3.674.32 2.03.773 3.516 1.867 5.251 1.8 2.858 3.746 5.544 5.017 8.703 1.688 4.202 2.883 8.468 4.229 12.791.525 1.686.876 3.617 1.723 5.17 1.203 2.207 1.372 2.022 3.162.646 5.342-4.108 10.744-8.45 16.313-12.365 3.19-2.242 6.504-4.438 9.87-6.403 2.31-1.348 7.275-3.748 8.432-6.251 1.534-3.32-.853-6.365 2.433-9.421 2.139-1.99 5.627-3.094 8.415-3.577 3.94-.683 8.293.292 12.229.645 3.98.357 7.87-.031 11.773-.848 5.974-1.25 17.45-8.168 21.321.142 1.694 3.637.55 7.666.23 11.393-.276 3.248-1.227 6.697-3.244 9.369-2.305 3.053-5.661 3.213-9.152 4.023-4.122.957-8.353 1.306-12.48 2.24-2.034.46-4.04.683-6.128.78-1.858.086-4.538-.67-6.169-.43-1.546.225-1.018 1.204-2.103 1.883-.44.276-1.339.078-1.613.3-.755.609-.974 1.14-1.524 2.242-1.749 3.503-4.394 6.918-6.642 10.128-1.894 2.703-4.087 6.014-6.315 8.426-4.722 5.116-9.308 10.752-13.969 16.097-2.371 2.72-5.216 5.613-7.971 7.95-.85.722-2.57 1.372-3.004 2.382-.62 1.44 1.067 4.61 1.46 6.058.936 3.442 1.063 6.997 2.056 10.386.95 3.242 1.296 6.777 1.506 10.156.477 7.638 1.517 14.883 1.273 22.526-.21 6.59-.451 12.91-2.733 19.382-2.077 5.89-8.298 12.302-14.084 14.472-3.443 1.293-6.643 2.467-10.109 3.168-3.422.692-7.029 1.4-10.428 2.374-6.305 1.807-12.95 3.07-19.5 3.688-8.38.792-17.125.868-25.484.576-3.813-.132-7.73-.14-11.493-.129-3.9.012-7.572.783-11.47 1.193-13.753 1.447-28.288.284-42.033 1.699-6.794.7-13.578 2.046-20.49 2.126-6.188.072-12.462-.338-18.513-.365-1.92-.009-3.592.145-5.51-.296-1.01-.234-2.433-1.14-3.454-.618-.892.456-1.564 2.381-2.117 3.201-1.208 1.793-2.68 3.233-4.236 4.72-6.17 5.9-12.286 7.887-20.385 10.049-3.718.993-5.554 1.512-8.676 3.784-2.543 1.85-5.116 3.18-8.043 4.27-5.741 2.14-12.511.485-17.907-1.371-2.613-.899-5.359-1.716-8.028-2.784-3.636-1.452-6.637-3.866-10.22-5.35.411 3.835-3.736 5.123-4.994 7.7-.813 1.666-.32 4.281-1.187 6.164-.804 1.746-2.047 3.397-3.985 3.854-2.64.622-7.362-2.325-9.217-4.045-1.03-.955-1.95-3.497-3.21-3.92-1.645-.553-4.66 1.888-6.217 2.44-7.45 2.637-15 3.881-23 2.83-8.104-1.064-15.534-3.952-23.135-6.69-14.886-5.361-27.843-14.188-39.5-24.816-.648-.592-1.59-1.119-2.036-1.894-.391-.677-.357-2.275-.612-2.653-.76-1.125-1.897-.926-3.322-1.034-4.4-.333-7.896-1.399-11.308-4.357-5.368-4.657-7.354-15.515.876-18.399 2.103-.737 4.419-.884 6.594-.43.897.188 4.234 2.217 5.086 2.08 1.292-.206 1.04-1.874 1.384-2.766.87-2.259 2.096-4.248 3.573-6.165 2.455-3.187 5.446-6.39 8.516-8.984 3.335-2.819 7.007-4.07 10.977-5.63 2.675-1.051 7.896-2.856 10.729-1.916 3.69 1.225 1.883 5.27-.441 6.685-3.32 2.021-7.305 2.85-10.67 4.895-3.713 2.257-7.104 5.348-10.502 8.06-2.734 2.184-5.104 4.878-7.882 6.972-.736.555-1.939 1.525-2.168 1.832-.08.106.019.97-.346 1.353-1.616 1.702-1.237 1.51-3.67.913-2.87-.704-9.717-2.297-11.651 1.272-1.74 3.21 5.384 6.103 7.723 7.083 3.434 1.437 4.236 2.88 6.69 5.62 2.514 2.806 6.689 4.714 9.838 6.807 6.805 4.522 14.455 7.731 21.744 11.324 7.092 3.496 14.717 6.013 22.107 8.46 4.462 1.476 9.81 3.06 14.492 3.515 4.719.46 9.144-.313 13.774-1.216 1.851-.362 3.248-.638 5.184-1.323.863-.305 2.27-.35 2.954-.884 1.061-.827.62-1.488.808-2.901.822-6.198 5.107.72 7.004 2.784 1.463 1.592 2.904 3.55 4.83 4.558 2.414 1.264 2.833.668 3.624-1.415 1.481-3.903 2.038-8.338 7.635-7.765-4.419-3.792-8.63-7.014-12.412-11.572-3.731-4.496-7.22-9.327-10.798-13.948-2.933-3.787-5.487-9.013-9.294-12-1.204-.945-4.862-3.121-6.255-3.076-2.084.068-3.934 3.485-6.18 3.769-2.48.314-3.621-.554-4.33-2.575-.734-2.095 1.022-4.507.429-6.03-.165-.424-1.22-.932-1.547-1.548-.49-.924-.526-2.14-.38-3.164.22-1.528.758-2.152.643-3.69-.133-1.785-.914-3.092-.3-4.96.646-1.963 2.631-3.038 3.87-4.487 1.876-2.194.918-3.848.165-6.667-1.61-6.03-3.49-11.992-5.125-18.02-3.76 1.194-7.435 2.547-11.215 3.659-3.635 1.07-8.134 2.03-11.507 3.718-2.027 1.015-1.464.083-1.314 2.336.096 1.458.71 3.087.996 4.525.527 2.656.756 9.51 2.83 10.778 1.255.769 3.275-.348 4.656 1.204 1.162 1.305.814 3.204 1.513 4.655.435.902 1.276 1.245 1.8 2.074 1.093 1.733.976 3.19 1.169 5.132.121 1.222-.066 4.885.54 5.835.809 1.267 2.411 1.047 3.763 1.442 3.405.995 6.541 2.725 9.433 4.742 1.5 1.842 12.24 12.621 7.576 13.993-2.252.662-6.237-4.428-7.858-5.812-2.513-2.145-5.145-3.553-8.209-4.736-7.478-2.887-14.243-5.48-22.387-4.282-3.491.513-7.732 2.064-11.24 1.723-3.529-.343-2.615-3.502-.408-5.265 1.974-1.575 4.72-1.132 5.587-3.774.874-2.67-.064-6.043 1.338-8.717 1.198-2.285 4.021-4.656 6.2-5.979.95-.576 2.58-.98 3.076-1.83.407-.697-1.27-4.694-1.503-5.525-1.14-4.07-2.38-8.145-3.346-12.26-.894-3.813-1.127-5.79 2.878-7.174 6.11-2.113 12.518-3.101 18.632-5.044-1.084-2.833-4.471-.45-6.904-.548-2.98-.12-6.43-1.104-9.268-2.022-6.443-2.087-10.827-7.288-11.823-13.995-.22-1.471.47-4.422-.063-5.723-.504-1.229-1.928-1.826-2.97-2.702-2.683-2.256-5.06-5.353-6.507-8.559-1.45-3.212-1.552-6.821-.709-10.212.465-1.868.727-2.125.07-3.891-.76-2.044-1.999-3.863-2.7-5.963-1.148-3.44-1.774-7.147-1.712-10.78.071-4.074 1.7-5.902 2.78-9.495.85-2.835-.311-6.755-.116-9.901.249-4.027 1.276-7.261 3.05-10.845 2.725-5.507 7.04-11.41 12.657-14.296 1.11-.572 2.936-.605 3.929-1.269 1.233-.825 1.33-2.04 1.812-3.486 1.152-3.445 2.59-6.237 5.079-8.871 8.075-8.544 22.225-11.57 33.573-10.848 2.038.13 3.98 1.097 5.912.529 1.338-.395 2.756-1.793 4.136-2.373 1.746-.733 3.495-1.161 5.374-1.349 3.71-.37 6.728.021 10.148 1.278 1.29.475 2.527.993 3.8 1.508 2.009.815 1.894.427 3.784.05 3.765-.753 5.929-.196 9.265 1.416.889.43 2.296.748 3.06 1.35 1.082.852 1.523 3.443 2.728 3.926.668.27 2.735-.72 3.596-.86 1.52-.25 3.01-.03 4.522-.046 2.679-.03 5.51.07 7.955 1.34 1.842.957 4.06 2.802 5.645 4.031 2.195 1.7 3.566 4.914 6.306 5.804 1.074.35 2.235-.004 3.33.294 1.429.387 2.8 1.425 3.957 2.341 1.99 1.577 3.673 5.241 5.7 5.882 1.354.428 3.457-.019 5.005.424 1.942.556 3.553 1.362 4.993 2.837 2.747 2.813 3.523 6.971 3.64 10.786.032 1.028-.6 3.927.014 4.84.546.81 2.6 1.276 3.437 2.107 2.614 2.597 3.795 6.926 4.06 10.484.302 4.06-.743 6.921-1.462 10.806-.448 2.422-1.027.87 1.01 2.297 1.398.98 2.364 1.664 3.271 3.202 1.897 3.214 2.373 7.003 2.06 10.666-.391 4.57-2.701 7.977-3.74 12.301 4.787 0 9.944 1.27 14.621 2.155 1.726.327 3.063 1.279 4.595 2.042 1.321.659 2.307.735 3.555 1.172 3.018 1.056 2.434.88 4.534-1.282 8.364-8.607 20.27-13.804 32.276-13.635 6.697.094 13.175.981 19.436 3.4 2.595 1.001 5.48 2.082 7.782 3.653 2.666 1.822 3.063 1.8 6.588 1.875 12.767.265 25.154 7.144 34.445 15.481.83-5.592 9.884-8.946 14.268-11.264 1.498-.791 2.875-1.204 3.612-2.688.69-1.389.649-4.246 1.11-5.881.846-3.004 1.824-6.68 1.748-9.848-.219-9.172-2.335-18.302-2.609-27.495-.069-2.309-.33-4.9-.024-7.187.246-1.841 1.084-2.99-.12-4.695-2.288-3.237-6.505-4.045-7.923-8.306-2.285-6.866 1.64-13.887 7-17.97 3.086-2.352 6.101-2.85 8.575-6.146 2.227-2.97 4.11-6.481 6.649-9.181 2.13-2.263 4.069-5.296 6.51-7.18 2.5-1.93 6.174-3.236 9.162-4.153 7.172-2.203 15.979-1.677 21.025 4.476zm-224.18 172.484c-1.668.071-3.347.26-5.019.258-1.016-.002-3.38-.553-4.295-.164-1.831.777-3.313 5.03-4.168 6.727-2.772 5.503-4.955 11.272-7.66 16.795-1.406 2.873-3.506 4.763-6.825 4.81-3.72.05-5.47-2.34-7.83-4.793-4.705-4.893-11.04-9.099-16.882-12.501-6.31-3.675-13.834-7.236-21.018-8.534-4.784-.864-15.744-4.59-18.655 1.43 1.487-.2 7.165-1.07 7.405 1.453.181 1.894-6.803 2.218-7.666 5.188 1.827-.143 8.13-1.908 8.573.815.236 1.447-2.398 2.176-3.325 2.664-1.836.969-2.941 1.975-4.387 3.43 2.23 0 4.429-1.9 6.546-1.7.874.08 1.924 1.391 2.718 1.79 1.127.567 2.344.849 3.587 1.003 2.706.336 4.344-.43 6.502 1.339 1.937 1.587 3.952 3.683 5.736 5.45 3.81 3.773 6.945 8.562 10.213 12.802 4.034 5.234 8.224 9.389 13.59 13.31 4.37 3.19 8.797 5.256 13.747 7.605 4.856 2.305 10.963 4.978 16.472 5.104 4.395.102 9.887-1.312 13.886-3.194 2.326-1.094 3.172-1.093 5.5-1.526 3.612-.672 7.793-2.618 11.137-4.144 10.5-4.793 17.155-15.239 21.89-25.464 2.695-5.82 4.379-11.505 5.502-17.801.611-3.43 1.145-4.235-2.186-5.654-3.364-1.432-7-2.318-10.502-3.33-10.272-2.967-21.98-3.621-32.586-3.168zm25.092-62.066c-1.048.473-1.605 5.528-2.075 6.654-2.099 5.024-5.822 8.16-11.281 8.683-1.695.162-4.46-1.385-5.674-.654-1.626.98-1.92 5.664-3.67 7.201-1.611 1.415-4.968 2.911-7.034 3.455-1.595.42-3.178.305-4.767-.065-.907-.21-2.636-1.335-3.524-.91-1.512.722-2.224 4.568-3.95 5.873-2.523 1.908-6.53 3.321-9.62 3.286-3.185-.037-7.024-2.562-9.86-1.958-3.368.718-2.925 3.86-4.395 6.316-3.122 5.215-6.67 9.708-12.281 12.198-6.07 2.693-14.773 3.036-21.14 1.666-3.46-.745-6.934-1.798-9.855-3.789-2.328-1.586-4.075-3.698-6.23-5.49l-.352-.286.017.063c.048.167.097.33.146.488 1.027 3.284 1.482 9.11 3.522 11.787 1.825 2.397 8.16 2.531 11.212 2.853 8.174.865 15.205 2.785 22.416 6.899 6.902 3.938 13.207 8.703 19.183 13.839 1.228 1.054 2.209 2.746 3.694 3.425 2.425 1.108 2.23-.186 2.87-2.353 1.316-4.443 2.712-8.833 4.717-13.022.858-1.795 2.812-4.02 3.23-5.926.402-1.83-.422-3.825-.142-5.79.707-4.96 2.94-9.191 5.738-13.204 1.943-2.784 7.755-7.526 7.012-.517-.548 5.176-4.315 9.762-5.242 14.848 2.856-.534 4.649-.379 7.22-.215 3.509.222 7.499-1.156 11.116-1.167 6.934-.022 13.764.432 20.58 1.671 3.156.575 6.161 1.224 9.205 2.307 2.39.852 5.57 3.563 8.118 3.77 1.847.15 1.203.393 1.705-1.188.467-1.467-.035-4.106-.128-5.644-.212-3.483-1.044-6.872-1.475-10.33-.185-1.485-1.95-7.673-.087-8.873 2.851-1.835 4.043 5.366 4.406 6.656 1.86 6.612 3.056 13.126 3 20.039-.048 5.978-.444 11.725-1.559 17.668-.659 3.51-1.867 6.883-3.223 10.175-.715 1.734-4.904 8.308-4.322 9.465.467.928 7.587-.687 8.682-.781 3.897-.335 7.804-.102 11.705-.334 5.767-.344 11.577-.274 17.099-1.293 3.292-.61 6.786-.027 10.076-.006 3.628.024 7.134-.313 10.786.035 2.773.263 6.935 1.731 9.61 1.121 2.739-.625 1.93-2.464 1.95-5.261.044-6.76-.556-14.537-2.06-21.11-.794-3.464-1.862-6.819-2.431-10.341-.57-3.524-.54-7.332-1.6-10.745-1.879-6.054-7.045-11.31-11.325-15.783-4.404-4.605-9.303-7.948-14.706-11.25-4.592-2.805-9.445-5.44-14.42-7.636-5.972-2.634-12.752-4.259-18.286-7.728-4.606-2.887-11.267-5.733-16.58-7.07-.84-.21-5.127-1.99-5.721-1.722zm164.032-55.955c-3.832.54-10.994-1.337-10.99 3.962 0 2.907.962 5.956 1.235 8.864.322 3.432.1 6.886.62 10.305.844 5.534 2.082 10.644 1.667 16.33-.451 6.18-1.735 12.12-1.615 18.389.113 5.966-.208 11.718 2.618 17.193 1.192 2.311 2.16 5.027 3.472 7.19 1.537 2.534 2.869 3.277 5.617 4.297 1.721.64 5.959 1.472 7.074 3.195 1.61 2.487-.54 3.493-2.657 3.408-6.538-.26-13.251-3.188-19.381-5.325-2.884-1.007-5.66-2.274-8.495-3.372-2.264-.878-4.111-1.181-6.17-2.678-5.02-3.649-8.895-8.692-13.845-12.434-9.365-7.08-20.593-11.307-32.355-12.561-3.027-.323-5.37-.178-8.4.08-1.678.142-3.338.188-4.999.497-.959.179-4.565 1.898-5.314 1.54-4.866-2.32 8.912-9.384 10.461-9.77-1.957-1.384-6.023-1.145-8.371-1.453-2.998-.394-5.913-.777-8.94-.612-4.233.233-8.735.107-12.89 1.024-5.204 1.148-10.133 2.91-14.836 5.383-1.57.826-3.78 1.83-3.764 4.13.014 2.163.872 1.809 2.97 2.287 5.654 1.291 10.886 5.05 15.923 7.914 5.355 3.045 10.69 6.466 15.659 10.114 9.527 6.994 14.964 17.056 19.195 27.994 2.19 5.657 3.776 12.263 4.434 18.293.733 6.708.122 13.454.645 20.155.123 1.584.334 7.903 1.525 8.888.904.747 5.388-.588 6.652-.676 5.284-.365 10.6-.329 15.784-.628 10.955-.634 22.186.25 33.242-.402 5.561-.328 10.944-1.113 16.398-2.239 5.07-1.046 11.386-1.17 16.01-3.587 8.9-4.653 14.326-15.869 14.717-25.366.424-10.295-.277-21.497-2.432-31.753-1.13-5.378-2.11-10.496-3.44-15.81-1.488-5.95-3.16-11.873-4.793-17.75-2.814-10.114-7.193-19.537-9.29-29.904-1.153-5.702-2.788-11.664-4.493-17.23-.63-2.05-1.869-5.948-3.332-7.506-1.538-1.637-2.828-.698-5.116-.376zM137.097 284.103c-2.307 1.48-3.97 4.811-3.866 7.557 0 3.624 3 2.08 5.825 2.212 1.72.08 8.082 1.85 9.2.141 1.336-2.041-2.68-1.13-3.189-2.225-1.028-2.214 3.686-3.15 3.11-5.068-.577-1.919-5.365 2.51-6.392.281-.95-2.062 3.887-3.846 3.145-5.267-.63-1.203-7.017 1.844-7.833 2.369zm10.021-18.883c-.012 1.544-.543 3.599-2.457 3.284-2.39-.394-3.115-4.998-3.333-6.74 1.53-5.736 5.816-.063 5.79 3.456zm69.411-49.3c-2.764.434-3.075 1.676-4.367 3.58-.59-.47-.956-1.096-1.097-1.875-6.535 2.953-13.334 5.26-20.422 6.352-7.897 1.217-16.135-.625-24.16-1.375-1.038-.097-4.225-1.385-5.072-.874-.7.424-.688 3.977-.746 4.663-.39 4.681.5 8.817 1.186 13.398.182 1.22.003 3.86.961 4.902.674.731 1.874.465 2.727 1.57 2.301 2.981 3.019 8.755 4.078 12.6l.026.093.005-.069c.328-3.92 3.382-1.906 5.655-.878 3.416 1.545 6.996 2.371 10.692 2.89 2.972.419 6.344 1.418 9.392 1.258 3.202-.167 7.141-1.439 10.258-2.354 2.954-.866 4.583-2.742 6.622-5.157 1.947-2.307 4.066-3.886 6.168-5.945 5.294-5.185 3.844-15.929-.755-21.004 3.721-1.916 10.174-6.127 4.515-10.399-1.463-1.104-3.902-1.654-5.666-1.376zm-46.886 43.034l-.005.07.033.027-.028-.097zm18.129-8.902c1.467.112 2.521 1.219 2.135 2.744-.488 1.927-3.827 3.134-5.497 3.241-4.425.531-.24-6.258 3.362-5.985zm-13.975-7.414c.158 1.118.001 1.816.968 2.179.739.278 2.136-.294 3.045.092.906.387.935.62 1.492 1.528-.63 1.98-3.525 4.219-5.847 3.028-2.887-1.48-3.156-7.32-2.364-9.812 1.341-4.224 2.469 1.316 2.706 2.985zm256.76-22.304c-1.204.44-2.267 1.684-3.344 2.362-2.866 1.802-6 2.759-8.746 4.732 1.96 2.122 2.987 5 4.902 7.041 1.198 1.278 2.655 1.42 4.095 2.113 4.21 2.027 9.166 4.878 13.816 5.847-2.723-3.196-4.45-6.088-6.067-9.972-.579-1.389-1.304-2.857-1.737-4.3-.62-2.065-.286-4.251-.812-6.29-.567-2.2.215-2.378-2.106-1.533zm-264.704 12.101c1.225 1.45 2.166 4.718 2.27 6.57-1.292 6.207-5.616-2.357-5.485-5.136.122-2.564 1.464-3.506 3.215-1.434zm11.716-3.396c2.099 1.795 2.784 4.794 3.002 7.272.237 2.686-.375 3.827-3.042 2.101-2.334-1.512-3.502-5.536-3.623-7.894 0-2.688 1.63-3.22 3.663-1.48zm42.217-7.688c.524 2.803-5.663 5.683-4.653 1.294-.202-2.8 4.097-4.263 4.653-1.294zm292.12-50.72c-4.674 5.723-10.332 9.357-16.18 13.682-5.18 3.831-10.112 7.97-15.72 11.151-1.647.935-4.344 1.478-4.642 3.214-.28 1.631 2.739 6.014 3.437 7.783 2.355 5.966 4.094 12.09 5.935 18.246 5.489-8.582 11.025-17.307 17.752-25.067 5.937-6.848 12.028-14.014 17.218-21.394-3.142-1.92-5.745-4.567-7.8-7.616zm34.254-13.2c-5.204 1.632-11.2 2.55-16.624 1.994-2.459-.252-4.881-.462-7.364-.616-1.858-.115-5.002-1.024-6.6.413-1.513 1.358-1.33 4.062-.56 5.75.498 1.092 1.19 1.269 1.64 2.173.146.29-.285.794.09 1.479 1.028 1.885 4.527 5.034 6.413 5.994 2.419 1.231 2.78-.201 4.666-1.442 3.97-2.612 10.64-2.66 15.29-3.13.094 1.004 13.573-3.821 14.903-4.707 2.488-1.655 5.403-9.276 2.756-11.534-3.194-2.726-11.52 2.656-14.61 3.626zm-90.642-36.323c-1.638 2.619-3.817 5.43-6.237 7.39-2.733 2.213-6.28 3.072-9.405 4.587-2.83 1.37-5.345 2.744-7.112 5.39-1.222 1.83-3.462 4.397-2.44 6.755 1.044 2.413 5.16 4.105 6.948 6.201 2.462 2.887 2.466 2.32 6.154 1.523 1.842-.4 3.592-.523 5.474-.457.762.026 3.333.775 4.009.272.864-.643.014-3.317.123-4.357.167-1.582.728-3.215 1.259-4.706 2.107-5.923 6.113-9.828 10.008-14.319 4.179-4.818 9.904-8.2 14.022-13.04 2.274-2.673 1.239-4.563-1.881-5.814-1.586-.635-3.444-.633-5.07-1.14-1.683-.523-3.181-1.554-4.984-1.575-7.66-.308-7.904 8.55-10.868 13.29zM353.798 63.783l.662-2.523c.273 1.466.35 2.195-.662 2.523m.605 3.359c-.886.128-.537-2.125-.537-2.518 1.53.702.263 1.545.537 2.518m-1.444-6.5l1.678-1.064c-.779 1.551-.473.582-.152 1.618-.587.181-1.159-.03-1.526-.553m-2.786 12.243c-2.186 7.968-9.127 14.252-16.458 17.507-4.213 1.87-8.354 2.338-12.904 2.13-1.754-.081-3.819-.654-5.507-.547-1.3.082-1.242.139-2.319 1.245-.476-.882-.131-1.5-1.087-2.014-1.192-.64-1.687.105-2.279.992-.774-.806-1.09-1.227-2.094-1.706.032.015-.96-.023-.92-.01-.178-.056-1.257-.753-1.595-.88-1.386-.522-2.988-.737-4.267-1.486-1.118-.655-2.04-2.492-3.32-1.08 0-2.36-3.163-3.338-4.645-4.574-2.316-1.93-4.158-4.79-5.312-7.555-1.232-2.95-1.643-5.776-2.219-8.816-.402-2.123-3.039-5.193-1.456-7.336.378.899.2 1.819.827 2.634.564-1.092.874-2.314 1.129-3.509.125-.585.85-2.303.768-2.813-.168-1.043-1.453-1.1-.74-2.38 1.478 1.617 2.67-1.221 1.554-2.353-.552.625-.754 1.335-1.008 2.109-1.454-2.949 2.569-2 1.689-4.66 1.468-.285 2.312-.656 2.87-2.114.621-1.622.164-1.976 1.574-3.048.485-.368 1.856-.898 2.107-1.504.485-1.171-.75-1.519.332-2.616.365.644 1.79 1.92 2.57.706.155-.242-.5-.414-.023-.971.706-.825 1.496-1.634 2.691-1.46-.946-2.378 5.1-2.566 6.647-3.127 1.552-.561 2.868-.93 4.514-1.06 1.643-.13 1.725-.615 3.116-1.609.118 1.423.459 1.11 1.465 1.36.242-.416.49-.463.744-.14.252.242.561.355.926.342.552.028 1.179-.044 1.758-.032 1.36.026 2.762-.087 4.095-.059.344-.057.665-.177.966-.36l.377.715c.707.089.762.978 1.63.005.258 1.237.996.593 1.776.929.712.306.825.796 1.482 1.138.432.351.895.398 1.39.14.47.35.949.691 1.434 1.022.893.507 1.946.817 2.888 1.218.626.26 1.249.53 1.866.81.019.748.353 1.013 1.003.793.587.493.752.474 1.321 1.314 1.29 1.904 2.435 3.384 4.064 5.086 7.082 7.4 9.258 17.86 6.58 27.624m1.558-31.996c-3.193-4.29-7.713-9.204-11.774-11.914-2.06-1.374-4.949-3.84-7.466-4.567-.597-.173-1.215-.184-1.802-.365-.453-.14-.7-.606-1.216-.69-.362-.059-.402.753-.786.678-.803-.157-1.312-.956-1.879-1.456-1.218 2.106-1.879-1.436-3.667.945-2.129-3.349-7.129-2.617-10.527-2.448-1.008.05-1.482.41-2.375.677-.832.248-.914.184-1.822.177-2.262-.017-4.27.268-6.36 1.265-3.513 1.674-6.738 4.283-10.074 6.3-3.728 2.255-7.09 5.126-9.942 8.424-10.312 11.925-13.07 29.332-4.847 43.157 13.06 21.957 46.75 24.304 65.84 9.405 14.748-11.511 20.361-33.918 8.697-49.588" transform="translate(-342 -3322) translate(0 -5) translate(342 3300) matrix(-1 0 0 1 567 27)"/>
                        <path fill="#000" d="M379.596 101.401c-3.006-1.078-8.036-.845-8.78 3.045-.31 1.63.295 3.352 1.418 4.535 1.302 1.372 3.375 1.5 3.264-.89-.077-1.653-1.647-3.09 1.114-3.423 1.718-.207 4.26 1.08 4.345 2.982.193 4.287-7.212 4.623-9.941 3.882-5.416-1.47-3.945-7.155-.225-9.75.96-.67 3.717-1.703 3.843-3.095.168-1.847-2.111-1.47-3.228-1.226-8.21 1.79-10 15.573-1.421 18.17 3.896 1.18 9.382-.037 11.73-3.573 2.202-3.315 2.231-9.096-2.119-10.657M270.735 3.838l-7.699 3.714c-.848-1.82-2.281-6.789-4.433-7.423-3.484-1.028-1.265 4.39-.664 5.628.494 1.017 1.64 2.594 1.361 3.806-.373 1.634-2.673 2.213-3.877 3.056-2.98 2.086-2.956 6.468 1.359 4.611 2.442-1.05 5.465-3.966 7.337-.656.864 1.527 2.911 10.057 5.05 4.478 1.323-3.454-5.046-7.042-1.906-9.964 1.01-.94 2.194-1.02 3.203-1.56 2.439-1.306 1.064-3.718.27-5.69M468.314 23.427c4.42 3.188 9.491 5.367 14.11 8.239 1.157.718 4.76 2.21 4.724 3.544-.02.78-1.103 1.757-1.577 2.297-.812.926-1.576 1.861-2.325 2.84-3.43 4.484-6.66 9.01-10.378 13.268-.56.64-2.246 3.699-2.79 2.18-.247-.689-.044-1.463-.687-2.105-.331-.33-1.61-.513-1.238-1.222l.746.34c-.193-.567-.18-1.188-.468-1.724-.18-.333-.531-.49-.653-.865-.169-.518.117-1.12.07-1.654-.048-.533-.32-1.036-.482-1.539-.962-2.978-1.307-5.98-1.8-9.052-.487-3.04-1.246-5.986-1.544-9.06-.315-3.247-.7-6.487-1.215-9.708.918.13 1.625 1.145 2.274 1.718 1.022.9 2.131 1.708 3.233 2.503m-3.488 31.097c-.145-.146-.259-.325-.34-.536 1.491-.943.591.665.34.536m-1.568-2.742c-.957.286-1.644.344-2.382-.083-.07-.04.01-.353-.115-.417-.11-.056-.28.013-.374-.039-.32-.177-.883.211-.938-.468 1.221-.405 2.422-1.153 3.711-1.28 1.792-.174 1.71 1.805.098 2.287m-4.302-3.236c-1.275.332-2.326 1.108-3.68.905-1.273-.19-2.378-.924-3.381-1.77 2.51-.79 5.142-.933 7.65-1.699.816-.249 1.889-.906 2.769-.641.977.294 1.039 1.314 1.332 2.241-1.565.314-3.141.561-4.69.964m-7.499-3.753c-1.214.315-2.455 1.004-3.47-.185-.163-.191-.307 0-.287-.59.02-.624.54-1.025.988-1.244 1.054-.516 2.53-.182 3.648-.258 1.784-.12 3.6-.523 5.364-.833 1.222-.215 2.484-.69 3.733-.597.964.073 2.127.965.722 1.616-1.28.593-3.198.502-4.584.758-2.05.38-4.092.809-6.114 1.333m-1.541-5.678l.245.253c-.013-.003.485-.412.617-.424.64-.056 1.285-.011 1.927-.048 1.48-.085 2.97-.346 4.422-.633 1.183-.235 2.388-.639 3.606-.537 1.054.087 1.165.306 1.234 1.337-2.691 0-5.463-.057-8.108.52-1.722.376-3.62 1.495-4.482-.522l.539.054m1.86-4.13c.641.519 2.388-.344 3.155-.43.834-.094 1.619-.192 2.427-.413.717-.196 3.087-1.175 3.637-.239.842 1.436-2.57 1.7-3.11 1.77-2.269.298-4.622.563-6.83 1.196l.721-1.884m3.236-5.04c.162.645 5.184-1.73 5.276-.004.07 1.324-4.97 1.984-5.875 1.868.212-.61.776-1.156.599-1.864m1.083-3.966c.125-1.436.317-1.428 1.469-1.563.878-.103 2.085-.618 1.857.947-.196 1.341-3.451 2.066-3.326.616m2.343-3.987c.306-.73.995.253 1.01.625.038.989-.836.775-1.678.775.235-.462.457-.93.668-1.4m8.605-5.335c-.14-.167-.923-.23-1.146-.311-.549-.2-.47-.625-1.172-.206-.036-.035.031-.35-.007-.364-.02-.008-.51-.192-.67-.293-.386-.245-.734-.485-1.088-.793-.376-.326-.754-.8-1.184-1.06-.181-.11-.33-.266-.548-.3-.568-.086-.405.306-.901.384-.306.048-.528-.306-.928-.153-.345.132-.545.612-.699.898-.56 1.04-.99 2.161-1.538 3.213-2.8 5.379-5.982 10.553-8.694 15.982-1.306 2.616-2.67 5.25-3.589 8.029-.663 2.004-2.16 4.933-.872 6.936.937 1.456 2.812 2.085 4.308 2.789 2.25 1.058 4.326 2.442 6.602 3.47 2.714 1.223 5.35 2.504 7.994 3.871 1.129.583 2.147 1.423 3.271 1.975.688.338 1.75-.239 1.974.536.862-1.036 2.257-.346 3.254-1.075.587-.43 1.016-1.275 1.505-1.803.734-.793 1.53-1.528 2.28-2.306 2.971-3.092 5.715-6.313 8.42-9.634 2.582-3.172 5.6-6.168 7.78-9.64.867-1.378 1.024-2.823.452-4.346-.417-1.11-1.423-2.788-2.86-2.052.545-.898-1.556-1.856-2.193-2.032-.01-.002-.136.687-.313.67.063.006-.534-1.528-.797-1.724-.78-.586-1.727-1.268-2.577-1.75-.78-.442-1.603-.66-2.358-1.155-.916-.6-1.757-1.31-2.676-1.905-.887-.574-1.876-1.253-2.857-1.648-.85-.343-1.614-.41-2.38-.971-.946-.695-1.772-1.166-2.864-1.645-.945-.414-2.254-.776-2.93-1.587" transform="translate(-342 -3322) translate(0 -5) translate(342 3300) matrix(-1 0 0 1 567 27)"/>
                        <path fill="#000" d="M475.947 54.304c-.235.385-2.43.255-2.478-.198-.072-.676 2.886-.47 2.478.198m1.534-.57c1.039.09 2.745.834 3.745.384 1.527-.687-.076-1.74-.896-2.056-.833-.32-2.075-.15-2.504-1.07-.322-.693.475-2.626-.514-2.315-1.037.326-.736 3.094-2.364 2.161-.776-.445-.46-3.157-1.76-1.772-.356.38-.387 1.075-.858 1.358-.481.289-1.085-.012-1.593.013-1.344.067-1.773 1.395-.41 1.922.504.195 2.405.433 1.253 1.303-.725.548-2.337-.602-2.96.352-.856 1.31 1.438 1.34 2.054 1.732 1.044.664.181 2.215.265 3.32.127 1.687 1.056 1.335 1.393-.094.286-1.211-.069-2.955 1.661-2.474 2.817.784-1.566 4.56.497 5.527 1.316.616 1.502-2.715 1.604-3.288.379-2.117 1.505-1.623 3.21-1.558 1.994.076 2.475-1.481.364-1.927-.673-.142-1.6.038-2.184-.415-.346-.268-.822-1.173-.003-1.103" transform="translate(-342 -3322) translate(0 -5) translate(342 3300) matrix(-1 0 0 1 567 27)"/>
                    </g>
                </g>
            </g>
        </g>
    </g>
</svg>
