<svg xmlns="http://www.w3.org/2000/svg" width="480" height="436" viewBox="0 0 480 436">
    <g fill="none" fill-rule="evenodd">
        <g>
            <g>
                <g>
                    <g>
                        <path fill="#E76C67" fill-rule="nonzero" d="M354.126 378.787c-2.273 2.63-5.63 4.58-8.204 6.984-2.704 2.525-5.64 4.732-8.333 7.226-11.882-14.526-28.158-23.433-42.259-35.486-6.684-5.715-11.61-13.467-15.214-21.422-1.847-4.078-3.212-8.276-4.28-12.62-.482-1.957-.952-3.908-1.267-5.891-.38-2.403-.48-2.607-2.1-4.482-.697-.807-2.048-3.165-3.414-2.905-1.15.22-3.252 3.72-3.979 4.584-3.494 4.16-6.881 8.444-10.56 12.442-5.628 6.117-10.752 12.137-15.977 18.62-10.69 13.265-22.22 25.752-33.856 38.233-.863.926-2.875 3.64-4.115 4.005-1.507.443-3.957-1.406-5.475-2.44-3.665-2.496-6.553-5.584-9.686-8.677-6.113-6.036-10.252-14.508-13.037-22.569-1.667-4.825-2.75-9.827-4.471-14.636-.717-2.004-2.342-4.467-1.517-6.212.246-.52 1.81-1.903 2.36-2.01.653-.124 1.74.77 1.967.708 2.163-.592.963-2.858 2.25-4.077.73-.691 4.44-.59 5.548-.97 4.051-1.39 7.686-4.042 11.515-5.625 16.033-6.625 32.26-13.07 46.102-23.89 3.59-2.805 5.974-4.913 10.257-6.727 4.329-1.832 8.68-3.467 13.096-5.066 3.896-1.41 7.814-2.733 11.84-3.745 4.352-1.093 10.526-2.48 14.875-1.071 8.54 2.766 11.298 9.804 14.7 17.23 4.6 10.046 10.164 19.552 16.196 28.799 11.603 17.79 25.715 33.755 37.038 51.69" transform="translate(-1040 -1347) translate(0 -5) translate(369 1308) translate(671 44.004)"/>
                        <g>
                            <path fill="#000" fill-rule="nonzero" d="M96.741 221.238c-.47-.239-4.141 1.256-4.757 1.484-2.462.914-4.78 2.431-7.099 3.666l5.332 6.491c1.742-4.274 3.98-7.8 6.524-11.641zm1.212 26.59c-.605.069 4.5 12.34 5.096 13.717 2.17 5.011 4.447 9.973 6.645 14.972 2.13 4.844 4.831 9.3 7.553 13.825 2.328 3.87 4.722 9.875 8.234 12.742-2.217-9.84-1.925-21.152-8.285-29.413-6.592-8.564-13.11-16.927-19.243-25.842zM354.081 379.04c-9.85-15.603-22.182-29.406-32.454-44.73-5.752-8.582-11.35-17.272-16.192-26.406-3.522-6.644-5.71-16.124-11.15-21.203-2.397-2.238-4.958-4.429-8.174-5.432-4.402-1.371-10.462-.012-14.884 1.073-8.24 2.02-16.29 5.16-24.094 8.455-7.917 3.343-14.67 9.347-21.824 14.172-7.673 5.175-15.979 8.946-24.575 12.246-7.485 2.874-14.144 7-21.59 9.892-1.484.577-4.511.492-5.756 1.244-1.34.81-.813 3.2-2.44 4.08-.735.399-.98-1.044-1.544-1.02-.69.029-1.318.839-1.983 1.351-2.706 2.089-1.048 3.48.023 6.354 3.493 9.363 5.37 18.888 10.273 27.727 4.031 7.265 9.801 13.775 16.595 18.585 1.033.732 4.402 3.568 5.615 3.38 1.092-.17 3.313-3.074 4.067-3.862 3.421-3.579 6.548-7.428 9.967-11.012 5.283-5.539 10.369-11.226 15.496-16.84 5.952-6.518 11.22-13.903 16.58-20.867 2.466-3.203 5.64-5.813 8.38-8.784 3.686-3.994 7.07-8.288 10.567-12.448 1.057-1.259 2.83-4.48 4.473-4.441 1.152.026 3.183 2.74 3.785 3.59 2.24 3.16 2.23 8.866 3.343 12.81 2.718 9.618 7.618 19.012 14.338 26.435 6.683 7.38 15.243 12.63 23.147 18.562 8.563 6.427 16.675 13.005 23.465 21.307 2.695-2.495 5.632-4.704 8.337-7.23 2.577-2.405 5.935-4.357 8.209-6.988zM227.28 423.183c1.915.02 5.158 1.198 6.871.488-5.082-5.624-9.748-10.45-16.178-14.572-6.672-4.277-13.322-8.516-19.802-13.079-13.06-9.194-22.666-20.098-28.121-35.41-1.405-3.942-2.346-8.078-3.375-12.13-.554-2.184-1.656-12.396-3.529-13.278-1.109-.523-9.456 5.345-10.778 6.077-3.093 1.71-6.196 3.037-9.393 4.375-6.872 2.878-13.956 5.073-21.242 6.906-8.737 2.197-14.687-1.439-20.1-8.307-6.14-7.792-11.242-16.584-16.855-24.767-2.553-3.722-4.668-7.438-6.554-11.543-1.234-2.686-6.128-9.933-4.437-12.795 4.825 3.675 6.56 10.98 9.847 15.9 4.096 6.13 8.712 11.91 12.83 18.036 3.462 5.15 6.994 11.392 12.109 15.095 4.499 3.257 8.773 2.256 13.615.792 5.869-1.774 11.952-2.648 17.703-4.848 6.224-2.38 12.113-5.757 18.186-8.51 2.83-1.285 6.22-2.015 8.888-3.616 2.3-1.378 1.956-2.107 2.125-5.043.197-3.426.424-6.854.576-10.283.102-2.304-1.144-5.427-.299-7.147-6.894 1.196-13.632 2.797-20.478 4.213-3.748.776-7.362 1.735-11.148 2.344-1.444.232-3.417.226-4.71.855-1.03-.296-1.556-.108-1.576.564-.05.365-.127.725-.234 1.08-2.114.961-3.344-1.102-5.177-3.081-2.263-2.442-3.957-5.193-5.617-8.063-3.711-6.416-7.989-12.451-11.423-19.048-3.5-6.726-6.344-13.926-9.312-20.904-2.722-6.401-4.466-13.324-7.474-19.574-1.343-2.79-3.044-5.097-5.031-7.453-1.64-1.945-4.163-6.14-6.612-7.034-.647-.236-2.343.16-3.078.109-1.466-.105-2.773-.644-4.273-.526-3.248.255-6.79 2.31-9.385 4.116 1.677 1.495 5.874 3.313 2.86 6.007-2.926 2.616-4.541-2.076-5.657-4.132-5.256 4.317-4.496 10.27-5.104 16.37-.317 3.185-1.151 6.32-1.69 9.457-.387 2.258-.115 4.593-.226 6.898-.282 5.857-.87 11.463-.844 17.238.032 6.173.453 12.134.947 18.262.83 10.317 2.735 20.638 4.368 30.873.92 5.753 2.177 11.343 3.398 17.003 1.385 6.424 3.948 12.509 5.385 18.916 1.465-1.862 2.566-1.87 4.935-1.624 1.822.19 3.046-.244 2.94 2.286-.07 1.64-1.517 2.893-3.118 3.18-2.087.373-2.797-.67-3.873-2.25-.251 2.994 1.762 6.126 2.559 9.051.754 2.773 1.253 5.49 2.52 8.143 1.236 2.589 2.294 5.142 3.544 7.705.576 1.18 1.115 2.378 1.697 3.554.295.596.642 1.417 1.081 1.919 1.031 1.177.867.606 2.074 1.277 2.629 1.46 1.642 1.096 1.703 4.113.06 2.975 1.586 5.161 4.032 6.834 5.19 3.549 10.309 4.536 16.21 6.33 5.497 1.67 11.287 3.104 17.109 3.071 7.13-.04 14.164-.975 21.294-1.07 7.866-.104 15.807-.061 23.657.21 3.233.113 6.236.257 9.358 1.083 3.626.96 7.133.579 10.87.433 7.97-.31 16.217-.927 24.084-.982 5.665-.04 11.642-.436 17.328-.094zm206.707 3.09c1.417.75 4.594.442 6.018.234 2.51-.366 2.779-1.361 4.371-3.6 2.741-3.854 4.966-7.546 6.579-12.011 3.086-8.546 4.346-17.29 5.7-26.23 1.506-9.933-1.243-20.23-2.227-30.095-.226-2.264-.535-4.507-.893-6.753-.214-1.343-.27-5.912-1.153-7.075-1.698-2.234-9.592-.432-12.695-.23-8.664.567-17.384.7-26.043.797-4.617.053-9.26.246-13.83.282-2.1.016-4.153-.088-6.26-.292-.705-.068-1.393-.23-2.103-.27-2.43-.134-2.247-.487-2.876 1.666-1.1 3.772-.253 8.57-.542 12.485-.387 5.231-.596 10.536-.5 15.779.088 4.844-.077 9.677.104 14.532.075 2.011.295 3.65.825 5.57.6 2.171 1.26 7.243 2.752 8.745.17.171 1.44-.227 1.776.199.519.656.424 2.044.78 2.468 1.154 1.373 3.537 1.482 5.267 2.099 4.745 1.692 9.097 3.53 13.57 5.812 3.995 2.039 10.438 3.774 12.84 7.797 1.102 1.844 1.25 4.275 2.263 6.178 1.154 2.167-1.154 1.034 1.672 1.913 1.272.396 3.3 0 4.605 0zM12.73 401.761c-.36 5.005-3.179 9.772-4.16 14.693-.459 2.304-1.238 4.57-1.778 6.86-.517 2.198-2.387 4.8-2.198 6.974 6.902-2.459 13.892-3.077 21.105-3.74 6.836-.63 14.058-.88 20.837-.883 6.907-.003 14.293-.678 21.406-.783 7.438-.11 14.989-.302 22.32-1.074-3.834-2.84-8.63-5.506-11.46-9.457-3.077-4.295-4.675-9.676-7.383-14.208-5.433-9.095-8.887-20.38-11.735-30.599-5.75-20.627-12.175-40.874-13.724-62.27-2.947 1.51-5.286 7.367-6.762 10.284-1.883 3.724-2.87 7.76-4.094 11.719-2.521 8.152-4.266 16.605-7.353 24.68-5.9 15.435-9.693 32.067-15.021 47.804zm374.616-120.222c1.277 9.226 3.953 18.57 4.056 27.907.022 2.054-.326 4.336.102 6.361.457 2.162 1.944 4.074 2.802 6.129 1.363 3.262 4.813 9.949 1.486 12.713-.068-2.623-2.468-5.955-3.677-8.248-1.821-3.456-4.215-6.616-6.19-9.987-4.135-7.054-8.767-13.958-14.095-20.177-5.19-6.058-11.17-11.431-16.674-17.2-1.653-1.733-14.917-18.415-15.444-18.182 4.114 15.87 11.108 29.678 20.68 42.965 4.692 6.514 10.324 10.8 16.036 16.318 4.757 4.596 13.723 9.51 12.078 17.04 7.437-.716 14.824-1.858 22.328-1.858-1.234-9.5-2.179-18.85-4.382-28.193-2.501-10.61-4.195-21.537-6.312-32.24-2.16-10.928-5.823-21.507-8.102-32.414-2.182-10.444-4.057-20.87-5.657-31.43-1.322 5.851-.834 12.278-1.304 18.249-.479 6.1-.433 12.087-.273 18.223.296 11.396 1.51 22.655 2.542 34.024zm32.224-54.334c.041-4.878.986-9.69 1.278-14.557.09-1.493 1.576-11.68.19-12.211-1.14 2.486-1.406 5.668-2.442 8.277-1.035 2.607-2.419 5.09-3.411 7.715-2.151 5.685-2.893 12.12-3.125 18.164-.524 13.673-.795 27.315.124 40.988.394 5.86.696 11.731.588 17.604-.118 6.46-1.107 12.07.094 18.478 1.189 6.346 1.936 12.665 2.332 19.104.278 4.52.39 4.2 4.7 3.882 3.112-.23 6.255.015 9.371-.127-1.457-17.613-1.695-35.262-4.023-52.808-1.187-8.95-1.219-18.031-2.694-26.949-.733-4.43-1.963-8.77-2.67-13.206-.758-4.761-.385-9.555-.312-14.354zm-315.21-11.084c8.3.719 17.126 3.2 25.632 1.562-1.402-.568-5.072-1.352-3.42-3.593 1.679-2.28 4.508.611 6.183.313 1.032-.185 3.314-4.502 3.95-5.396 1.444-2.03 1.619-2.385 4.216-2.906 2.516-.503 3.086.042 3.405-2.46.366-2.878-.63-6.112-.53-9.055.211-6.334 2.254-11.89 4.156-17.849-8.079 1.758-15.978 3.843-24.239 4.976-3.53.484-9.024 1.602-12.232-.8-.835-.624-.701-1.467-1.384-2.19-1.145-1.214-3.268-2.47-4.892-2.816-9.992-2.128-10.966 12.12-5.96 17.451 1.255 1.336 3 1.996 4.284 3.22 1.714 1.632 1.855 3.352 2.105 5.844.47 4.673-.168 9.365-2.161 13.64l.888.059zm121.252 67.262c2.95.56 6.028.432 8.986.91 1.05.17 4.2.762 5.124.147 1.41-.938 1.912-4.379 2.58-5.98 1.172-2.82 2.832-5.278 3.95-8.148 4.572-11.722 8.835-23.49 14.364-34.813-2.12-.55-3.747-.572-5.882-.857-2.225-.296-4.242-1.612-6.364-2.178-2.017-.537-4.13-.4-6.13-1.025-1.1-.344-2.046-1.109-3.131-1.376-1.73-.426-3.75-.674-4.779.462-1.054 1.165-1.424 4.36-1.998 5.865-1.529 4.01-3.304 7.88-4.585 11.982-1.155 3.7-2.253 7.36-3.27 11.094-1.074 3.941-3.191 7.19-4.481 10.955-.981 2.866-1.907 5.796-2.054 8.851-.142 2.982-.576 3.172 2.405 3.648 1.505.24 3.85 1.135 5.265.463zm194.072 139.548c.768.358 1.493.31 2.172-.143-6.66-2.814-13.139-6.717-20.088-8.648-6.518-1.81-12.853-3.973-19.132-6.203-5.103-1.812-9.69-3.222-14.303-6.411-2.8-1.936-5.288-4.112-7.212-6.94-2.142-3.15-2.619-7.632-4.939-10.468-3.131 3.44-6.81 6.045-10.515 8.778-1.281.946-4.356 3.008-4.794 4.471-.554 1.847.929 3.613 1.662 5.482 1.877 4.786 2.794 9.57 3.813 14.545.408 1.994 1.29 4.992 2.927 5.827 1.491.76 5.81.208 7.666.067 9.68-.734 19.19-1.485 28.93-.817 11.021.756 22.82 1.278 33.813.46zm19.337-88.685c1.76.006 3.478-.214 5.23-.214-1.011-4.726 1.355-10.842 2.193-15.56.939-5.276 1.653-10.733 2.279-16.052 1.319-11.204 1.917-22.272 1.934-33.558.016-10.921 2.003-20.9 4.787-31.4 2.99-11.274 7.885-21.414 11.933-32.287-4.44 2.347-6.898 7.84-9.23 12.04-2.95 5.31-4.914 11.19-6.118 17.152-2.324 11.5-4.872 23.035-7.553 34.516-2.792 11.954-4.433 24.018-7.63 35.875-1.56 5.782-3.68 12.895-3.799 18.858-.049 2.466-.792 7.632.326 9.774 1.045 2.004 3.356 1.06 5.648.856zM173.43 319.414c-.093 1.227-.18 2.395-.399 3.608 2.437-.024 5.524-2.553 7.614-3.689 2.547-1.383 5.096-2.909 7.587-4.299 4.808-2.685 10.266-4.454 15.4-6.66 5.897-2.534 11.317-5.595 16.957-8.646 1.97-1.066 16.128-7.204 15.89-8.881l-9.325-.31c-2.665-.089-6.792.513-9.344-.31-1.398-.452-2.967-2.114-3.494-3.416-.523-1.288.651-7.213-.031-7.59-3.479 3.552-5.666 8.274-8.777 12.107-3.437 4.236-7.878 6.71-12.773 8.96-5.405 2.487-11 4.412-16.524 6.542-2.33.899-2.284 1.413-2.487 3.968-.227 2.856-.202 5.752-.294 8.616zm280.893 107.442c5.86.629 11.865.27 17.77.76 2.149.179 5.128.445 2.966 3.33-1.361 1.816-5.722 1.233-7.7 1.36-5.311.337-10.934.155-16.257.077-1.12-.016-2.359-.35-3.492-.275-1.307.086-2.873 1.027-4.064 1.02-.735-.004-.998-.78-1.632-.85-1.38-.156-2.759-.269-4.15-.268-21.04.004-41.79-.419-62.776-.441-10.035-.011-20.23-.184-30.262-.656-2.106-.099-14.102.332-13.77-3.462.17-1.954 4.086-2.229 5.515-2.436 1.058-.154 2.157-.13 3.218-.187 2.818-.15 4.052.527 3.458-2.557-2.255-11.699-6.296-21.367-14.929-29.78-7.06-6.877-15.56-13.117-23.555-18.86-9.708-6.975-17.584-14.31-23.348-24.982-3.366-6.232-6.184-12.604-7.913-19.495-.622-2.479-.637-5.298-1.4-7.688-.586-1.84-1.923-3.128-2.71-5.034-9.66 16.137-22.462 29.639-34.2 44.189-5.609 6.951-12.007 13.553-18.708 19.6-1.989 1.796-3.845 3.67-5.7 5.6-1.553 1.617-4.018 3.054-5.33 4.847-1.257 1.72-.947 1.638.967 3.004 2.53 1.806 5.319 3.306 7.889 5.066 4.108 2.815 8.592 5.193 12.265 8.58 3.973 3.663 7.444 7.906 10.916 12.036 2.314 2.753 5.35 6.285 5.933 9.766.193 1.152.925 4-.041 4.844-.826.72-.743.447-1.768.007-1.343-.576-1.738-1.898-3.38-2.528-4.197-1.611-9.278-1.058-13.646-1.077-4.37-.02-8.776.47-13.144.453-9.974-.041-19.736.767-29.707 1.2-10.59.46-21.31-.644-31.866-.488-7.82.116-15.849-.469-23.885-.034-4.134.223-8.194-.294-12.225-.352-5.277-.076-10.696.642-16.019.744-8.735.169-17.364.168-26.153.378-18.906.453-37.709.92-56.625 1.22-2.523.04-5.286-.046-7.78.238-2.646.302-1.28.864-3.095 1.818-5.084 2.667-3.91-7.221-3.788-9.166.653-10.422 3.298-20.643 6.477-30.537 3.016-9.384 5.464-19.206 8.018-28.793 2.796-10.493 6.438-20.556 9.746-30.946 3.389-10.647 6.148-21.708 12.304-31.145 1.402-2.15 2.85-4.463 5.106-5.818 2.528-1.519 2.637-.632 2.635-3.412-.001-2.619.16-6.117-.458-8.616-.558-2.257-.472-.919-1.73-2.54-1.022-1.319-2.093-2.22-2.827-3.822-4.508 4.573-14.83 2.16-19.186-1.133-5.332-4.03-9.393-10.83-10.881-17.306-1.195-5.2.271-15.113 6.025-17.614 2.806-1.22 13.11-2.14 13.521-6.114.213-2.05-3.413-4.935-4.25-6.698-1.55-3.267-3.04-7.613-3.47-11.195-.843-6.99 2.33-14.807 7.384-19.53 9.272-8.662 25.585-13.107 37.51-7.611-2.52-9.63-4.041-17.937-2.772-27.954 1.094-8.63 6.184-13.458 13.188-17.757 11.953-7.336 28.207-10.231 41.874-8.098 3.106.485 6.086 1.524 8.962 2.352 4.177 1.202 9.178.802 13.123 2.754 2.86 1.416 5.032 4.236 7.544 6.119 2.932 2.198 5.369 5.479 7.406 8.513 4.357 6.488 2.655 18.53-.992 25.042-.782 1.397-1.748 2.573-3.042 3.526-1.347.992-3.4 1.3-4.095 2.587-1.778 3.296-.063 10.431.174 13.993.277 4.137-1.814 7.244-6.503 7.574-2.713.191-2.8-1.383-4.098 1.856-.842 2.1-1.607 4.386-2.821 6.311-2.505 3.967-7.092 3.58-11.271 3.472-4.837-.125-9.602-.89-14.441-1.372 1.278 4.097 4.777 7.277 6.962 10.926 2.954 4.936 4.732 9.027 5.212 14.778.369 4.419-.426 7.908-3.45 11.196-1.25 1.361-2.36 1.428-2.049 2.998.19.958 1.846 2.538 2.432 3.303 1.55 2.022 3.35 3.878 4.714 6.038 5.25 8.31 6.8 20.978 6.813 30.652 0 .443.237 1.386.042 1.845-.145.34-1.247 1.412-1.263 1.504-.216 1.244.997 3.376 2.9 3.587 1.997.221 5.657-1.446 7.516-1.994 2.974-.878 6.006-1.525 8.974-2.426 4.793-1.455 9.564-2.615 14.437-3.755 2.202-.515 4.416-.944 6.625-1.425 2.516-.548 3.685-1.607 4.984.953 1.114 2.198.421 2.596 3.12 1.489 2.68-1.1 5.299-2.464 7.915-3.706 4.615-2.19 10.11-4.141 14.09-7.374 6.64-5.392 9.1-13.98 15.454-19.702 1.77-1.594 2.826-1.622 3.944-3.829 1.198-2.362 1.816-5.392 2.445-7.933 1.103-4.45 1.888-8.914 2.888-13.36 1.246-5.538 3.94-10.554 5.904-15.836.766-2.058 1.163-4.674 2.398-6.524.327-.49.952-.767 1.207-1.173.879-1.393.87-1.776 1.097-3.452 1.065-7.833 5.74-3.713 10.848-1.917 2.152.757 12.371 5.666 8.469 8.93 4.652 1.35 12.102.616 12.04 7.284-.032 3.417-2.075 7.072-3.172 10.27-.974 2.84-1.916 5.69-2.905 8.526-2.167 6.21-4.797 12.235-6.912 18.465-.964 2.839-1.76 5.745-3.101 8.424-1.184 2.364-4.05 4.97-4.522 7.554 12.396-5.29 23.864-12.938 37.74-12.45 6.075.212 11.589 2.767 14.944 8.11 4.207 6.698 6.975 14.197 11.086 20.956 14.958 24.589 32.798 46.927 49.218 70.498 1.261 1.812 2.883 3.524 3.32 5.763.286 1.46-.267 2.921.075 4.324.71 2.916 4.3 6.556 6.733 8.231 4.665 3.212 12.248 7.742 18.07 7.341-3.654-8.782-3.605-18.405-3.436-27.773.162-8.898 1.124-17.725 2.265-26.532.258-1.993.483-3.84 1.056-5.771.657-2.216 1.559-2.006-.41-3.997-3.028-3.067-6.63-5.59-9.684-8.696-6.603-6.714-13.372-11.977-18.57-19.995-4.942-7.627-10.157-15.474-13.816-23.826-3.766-8.597-5.272-17.78-7.142-26.884-.759-3.695-3.526-7.82-2.97-11.678.703-4.876 2.963-1.325 3.884 1.299 2.808 8.01 9.383 15.18 14.83 21.622 5.884 6.959 13.08 12.782 19.222 19.539 6.689 7.359 11.27 15.816 17.218 23.672 0-9.75-3.328-19.676-4.69-29.32-1.197-8.49-1.573-17.005-2.33-25.53-1.72-19.367-.234-39.304 2.18-58.532 1.146-9.131.495-18.048.53-27.211.011-2.916-1.195-9.637.343-12.225 2.945-4.957 4.663 5.881 4.812 7.497.891 9.627-.706 19.146.11 28.73.853 10.01 2.703 19.739 4.278 29.632 1.706 10.713 4.484 21.184 7.143 31.69 2.792 11.032 5.14 22.294 8.244 33.238.837-3.44-.337-7.666-.57-11.17-.33-5.013-.977-10.028-1.033-15.054-.09-8.012-.152-16.171.3-24.145.447-7.86.312-16.096 2.722-23.668 1.144-3.594 2.822-7.1 4.463-10.486 2.025-4.175 2.74-8.223 3.862-12.662.96-3.803 2.366-7.505 3.006-11.384.398-2.412 1.508-9.532 4.268-4.138 1.603 3.132.91 7.774.956 11.137.057 4.313-.603 8.506-.704 12.8-.197 8.426-.339 16.842-.967 25.254-.659 8.825-.083 16.734 1.595 25.43 1.837 9.518 2.375 19.057 3.327 28.692.49 4.975 1.318 9.922 1.718 14.904.211 2.638-.873 10.203 1.017 12.082.183-4.57 1.492-9.143 2.484-13.595 1.175-5.275 1.65-10.82 2.517-16.171 1.403-8.669 4.125-16.947 5.927-25.518 3.713-17.669 6.798-40.377 22.358-51.942 2.036-1.514 4.273-2.63 6.474-3.876 1.246-.705 3.097-2.529 4.523-2.847 1.556-.348 2.205-.078 2.836 1.728.88 2.517-.729 3.693-2.23 5.522-5.198 6.327-7.418 14.437-10.627 21.857-7.348 16.991-10.6 34.912-10.637 53.279-.02 9.614-.682 18.888-1.707 28.444-1.103 10.284-2.556 21.162-5.68 31.055 3.133.703 6.533-.345 7.383 3.298.209.895-.169 1.953.062 3.118.225 1.132.765 2.258 1.085 3.371.66 2.303 1.01 4.575 1.33 6.94 1.243 9.139 3.375 17.83 3.602 27.097.21 8.565-1.467 17.243-3.012 25.644-1.556 8.461-6.019 15.674-9.532 23.325 1.512 0 3.024.016 4.536.032z" transform="translate(-1040 -1347) translate(0 -5) translate(369 1308) translate(671 44.004)"/>
                            <path fill="#000" fill-rule="nonzero" d="M255.464 407.406c-1.667.471-9.711 1.36-9.71 3.886.001 1.514 8.035 1.484 9.457 1.649l.253-5.535m17.756 17.423c4.636.882 10.929-.358 13.892-4.446 1.385-1.91 2.042-4.815 2.493-7.095.43-2.172 1.76-7.593.855-9.63-1.11-2.5-11.761.113-14.863.4-5.411.5-11.007.559-16.422.206 0 5.592-.286 11.043 3.002 15.857 2.373 3.473 6.829 4.293 11.043 4.708m-.931 6.908c-5.037-1.844-10.326-.645-13.605-6.054-.833-1.373-1.533-2.848-2.037-4.372-.246-.668-.437-1.352-.573-2.052.256-1.508-.296-1.933-1.657-1.276-2.67-.52-5.597 1.314-8.41.774-6.82-1.31-5.58-11.084-1.003-14.467.904-.668 1.807-.854 2.842-1.184 2.282-.728 3.517.085 5.603-.122 1.687-.166 2.15-1.936 3.963-2.715 1.186-.51 2.834-.47 4.081-.521 6.529-.269 13.078-.266 19.649-.692 3.064-.198 6.373.287 9.375-.236 1.405-.246 1.203-1.182 2.534-.36 1.378.85.783 3.992.714 5.246-.402 7.248-.834 15.02-4.715 21.357-3.552 5.798-10.54 6.391-16.761 6.674M6.276 433.734l4.856-.051-4.856.05M456.266 279.2l-.01-4.669.01 4.669M44.035 285.594l-.015 4.547c.004-1.518.01-3.033.015-4.547M178.74 432.014l3.862.007c-1.291-.001-2.576-.004-3.862-.007M100.457 431.705l3.861.013c-1.291-.003-2.576-.008-3.861-.013M382.339 368.713l-.17 3.068.17-3.068M454.323 426.856l-2.989-.032c1.001-.417 1.998-.399 2.99.032M365.866 431.389c.715-.011 1.43-.022 2.138-.035l-2.138.035M455.879 291.833l.052-2.319-.052 2.319M389.006 193.944l-.177-2.392.177 2.392M456.232 282.248l.028-2.397-.028 2.397M231.352 430.396l1.902.027-1.902-.027M395.124 431.7l1.86.039-1.86-.038M462.26 375.447c-.045-.702-.09-1.404-.133-2.104l.133 2.104M451.102 432.383c.506-.003 1.012-.006 1.512-.007-.507.003-1.01.006-1.512.007M382.172 431.733l1.498-.036-1.498.036M269.558 431.35l1.65-.01-1.65.01M142.384 431.348l1.568.012c-.526-.003-1.047-.007-1.568-.012M111.447 431.433l1.598-.09-1.598.09M259.562 227.679l-2.386-.206c.796.056 1.639-.416 2.386.206M462.335 427.158l-2.353-.238 2.353.238M407.625 232.51l-.158 2.06.158-2.06M456.429 261.169l.16-1.953-.16 1.953M407.313 243.172l-.169 2.056.17-2.056M456.096 287.474l-.014-1.987c.428.66.41 1.322.014 1.987M382.35 382.716l-.019 1.991c-.439-.67-.351-1.332.019-1.991M432.343 305.809l-.23-2.017.23 2.017M18.38 244.056c-.52.687-1.228.217-1.846.3l1.846-.3M275.534 399.533l-1.97.002 1.97-.002M380.5 246.88l.184 1.675-.184-1.675M55.807 191.366l-1.981.04c.653-.386 1.312-.497 1.981-.04M407.297 252.841l-.128 1.755.128-1.755M389.183 180.89l.153-1.6c-.051.535-.101 1.067-.153 1.6M383.993 179.216l-.155 1.737.155-1.737M97.085 140.495l-2.016.245 2.016-.245M48.541 191.827l-2.068.212 2.068-.212M426.492 193.527l.125-1.616-.125 1.616M25.904 282.536l1.185.017-1.185-.017M384.013 349.1l-.12 1.79.12-1.79M424.533 232.876l-.048-1.725.048 1.725M114.004 139.133h-1.837c.613-.42 1.225-.41 1.837 0M277.578 274.606l-2.013.051c.66-.466 1.33-.478 2.013-.051M336.223 430.373l1.189.026c-.4-.007-.795-.017-1.189-.026M351.204 431.072l1.186-.042-1.186.042M116.754 431.349l1.237.03-1.237-.03M461.916 368.787l-.177-1.705.177 1.705M407.804 272.858c.048.542.094 1.085.14 1.624l-.14-1.624M428.628 263.547l-.193-1.723.193 1.723M120.115 431.692l1.25-.02c-.42.008-.835.014-1.25.02M272.289 431.737l1.214-.055-1.214.055M425.23 221.554c-.02-.582-.037-1.165-.055-1.746l.055 1.746M80.493 432.072l1.217-.009-1.217.01M425.059 432.067l1.252.013-1.252-.013M434.109 432.017c.404.028.809.058 1.208.085l-1.208-.085M437.763 432.01c.412.012.825.024 1.231.033l-1.23-.033M456.53 265.856l-.081-1.718.08 1.718M179.972 424.498l3.76-.196-3.76.196M104.36 216.121c1.089.095 2.177.19 3.264.283l-3.263-.283M411.534 263.432l.103 3.113-.103-3.113M433.987 426.273c1.135.07 2.27.138 3.406.207-1.142.052-2.302.377-3.406-.207M427.266 303.449l.025-2.97-.025 2.97M424.359 334.57l2.99.04-2.99-.04M173.502 317.156l-.074 2.261c.026-.756.05-1.508.074-2.261M440.944 285.192c-.04.752-.082 1.502-.121 2.25l.12-2.25M419.684 422.93l2.173-.144c-.545.436-1.093.473-2.173.145M414.832 324.735l.15 2.427-.15-2.427M143.772 196.926l.023-2.343-.023 2.343M415.71 334.734l2.702-.06c-.892.432-1.792.447-2.702.06M440.638 340.505c-.638.005-1.275.01-1.907.017l1.907-.017M207.307 423.242l2.646.034c-.889.446-1.772.509-2.646-.034M41.156 425.841l2.686-.24-2.686.24M411.845 270.102l.131 2.435-.131-2.435M126.12 218.03c.756-.373 1.516-.435 2.284-.041l-2.283.04M387.16 279.487l.187 2.054-.187-2.054M450.909 263.49c-.388-.671-.374-1.338.02-2l-.02 2M411.968 240.204l.001 2.034v-2.034M439.02 334.246c.777-.238 1.554-.575 2.327.008l-2.326-.008M188.002 424.19l2.344-.218-2.344.219M80.847 424.192c.716-.314 1.43-.48 2.136.024l-2.136-.024M227.28 423.183c.765-.335 1.53-.519 2.285.023l-2.285-.023M56.87 324.117l.173 2.072-.172-2.072M234.598 284.293c.753-.274 1.504-.417 2.243.04l-2.243-.04M411.833 304.874l.125 2.025-.125-2.025M56.384 243.895l-.187 1.63.187-1.63M12.73 401.76c-.04.53-.077 1.06-.116 1.587.04-.53.078-1.059.116-1.586M427.6 308.45l-.127-1.641.127 1.641M372.75 422.16l2.013.013-2.013-.014M173.248 321.818l.376 1.198c-.837.202-.963-.197-.376-1.198M223.568 283.391l2.045-.008c-.68.323-1.362.545-2.045.008M57.253 327.39l.068 1.812c-.024-.605-.046-1.208-.068-1.811M64.464 424.854l1.974-.002-1.974.002M388.815 333.762l.073 1.666-.073-1.666M50.496 425.532c.646-.43 1.295-.393 1.944-.007l-1.944.007M67.53 236.122c.036.568.07 1.136.107 1.7l-.106-1.7M47.13 425.59l2.017.009c-.675.46-1.347.48-2.017-.009M419.57 227.205l.015-1.73-.015 1.73M110.784 217.113l1.93.252-1.93-.252M54.008 266.916c.009.539.017 1.078.027 1.614-.008-.54-.017-1.077-.027-1.614M423.901 266.838l-.106-1.644.106 1.644M273.84 424.947l2.38.215-2.38-.215" transform="translate(-1040 -1347) translate(0 -5) translate(369 1308) translate(671 44.004)"/>
                            <path fill="#000" fill-rule="nonzero" d="M271.187 404.39c-.43.007-.858.013-1.284.022.43-.005.857-.014 1.284-.022M271.223 424.632l1.998.197-1.998-.197M151.393 379.78c.867 4.897-6.741 9.686-7.344 2.725-.22-2.546 1.48-4.335 3.386-5.891 2.705-2.208 4.216-.094 3.958 3.166M67.534 320.038c1.792.733 15.485 5.196 8.373 7.441-1.883.595-4.73.683-6.361-.364-1.964-1.26-3.944-4.978-2.012-7.077M70.904 253.725c4.647-.54 8.93 7.096 3.2 6.848-4.172-.18-9.78-6.848-3.2-6.848M87.53 272.447c3.88 3.387-3.313 10.968-6.169 8.034-1.458-1.499-.113-4.727 1.09-5.981 1.236-1.287 3.434-1.528 5.079-2.053M99.084 360.254c-2.291.365-12.367 3.658-10.266-2.324.802-2.281 3.037-1.604 5.08-1.5 3.294.169 5.186.01 5.186 3.824M92.447 375.662c3.43 1.836-1.584 12.108-4.427 9.922-3.944-3.032 1.45-9 4.427-9.922M107.406 367.405c1.668-.681 9.53 6.883 6.537 8.988-1.534 1.078-4.44-.77-5.365-1.886-1.734-2.09-1.89-4.67-1.172-7.102M62.045 305.574c1.704.28 4.647.369 4.758 2.764.096 2.106-2.543 2.789-4.401 2.954-1.929.171-4.481-.373-4.518-2.798-.039-2.616 4.1-2.458 4.16-2.92M104.081 409.84c1.815 1.102 10.283 5.071 6.654 7.938-1.359 1.073-5.476-1.143-6.403-2.27-1.106-1.344-2.187-4.494-.251-5.668M127.62 381.038c-.261-4.38 7.128-6.125 5.596.094-.432 1.753-.85 4.415-3.017 4.517-2.562.12-2.654-2.912-2.578-4.61M104.794 304.853c.051 3.323-6.315 6.254-6.365.986-.043-4.707 6.603-6.085 6.365-.986M100.59 287.543c1.569.506 3.653.766 3.791 2.76.147 2.11-1.813 3.049-3.576 2.93-1.445-.097-3.585-1.167-3.848-2.736-.385-2.304 1.862-2.454 3.633-2.954M71.42 348.391c-.027-2.742 5.467-6.038 6.48-2.856.323 1.018-2.267 5.584-3.128 5.926-2.28.905-2.598-1.204-3.353-3.07M116.444 394.036c-1.856 1.663-7.426 6.332-7.01.064.266-4.005 7.5-3.796 7.01-.064M207.186 411.952c.609-2.635 9.322 1.937 6.415 5.266-.976 1.117-3.528.106-4.51-.556-1.941-1.31-1.983-2.52-1.905-4.71M158.637 355.533c.34-1.175.717-3.252 1.838-4.002 2.028-1.357 3.794.69 3.794 2.847 0 4.023-4.578 5.292-5.632 1.155M137.04 402.576c2.263.519 7.3 6.02 4.38 8.264-2.813 2.16-6.552-6.62-4.38-8.264M139.195 360.937c2.909.232 6.907 4.944 2.385 5.692-3.536.587-7.65-4.538-2.385-5.692M165.53 382.62c.729-2.459 7.943.175 7.538 2.881-.215 1.439-3.165 1.777-4.716 1.396-2.282-.56-2.875-2.058-2.823-4.278M80.49 245.342c.052-3.177 6.156-4.472 6.603-1.27.405 2.893-6.68 5.971-6.603 1.27M163.513 415.36c.44-1.597.63-3.52 2.625-3.73 2.284-.242 2.217 1.51 1.948 3.326-.73 4.94-3.522 5.188-4.573.405M67.116 283.148c-3.182.718-9.01-5.412-5.448-6.728 2.51-.928 5.448 4.878 5.448 6.728M107.704 330.768c-1.62.763-1.992 1.225-3.236-.026-1.084-1.09-1.036-4.128-.106-5.262 3.561-4.343 3.478 3.53 3.342 5.288M120.918 321.96c1.689.215 6.708 4.976 4.094 6.869-3.202 2.318-5.014-4.945-4.094-6.87M157.462 323.214c-1.228 4.729-4.293 1.547-4.119-2.032.279-5.731 3.455-.74 4.119 2.032M176.095 399.165c2.077.86 4.896 8.802 1.93 9.228-3.333.478-2.223-7.574-1.93-9.228M150.155 394.703c2.377-.802 3.248 4.213 1.866 5.145-3.04 2.05-2.398-3.961-1.866-5.145" transform="translate(-1040 -1347) translate(0 -5) translate(369 1308) translate(671 44.004)"/>
                            <path fill="#000" fill-rule="nonzero" d="M127.62 381.038c-.03.666-.059 1.332-.09 1.993l.09-1.993M207.186 411.952c-.024.683-.05 1.365-.075 2.045.024-.684.05-1.364.075-2.045M165.53 382.62l-.043 1.733c.013-.58.028-1.157.042-1.734M428.425 372.653c4.928-.158 10.425-2.014 15.267-1.423 1.333.162 4.402.498 2.266 2.476-1.021.945-5.911.456-7.391.77-9.048 1.916-19.318 3.152-28.595 2.992-4.343-.074-8.718-.422-13.058-.652-4.338-.23-4.764-1.992.117-2.553 5.069-.582 10.27-.366 15.365-.373 5.355-.007 10.684-.88 16.03-1.237M439.243 360.778c-.474 1.35-.89 4.45-2.708 4.654-2.545.284-2.967-4.087-2.873-5.686.114-1.93.808-5.136 3.206-4.467 2.025.564 2.228 3.954 2.375 5.499M423.833 359.789c.372-1.446.555-4.708 2.6-4.818 2.286-.124 2.939 3.274 2.924 4.902-.016 1.545-.587 4.465-2.407 4.822-2.467.483-2.688-3.254-3.117-4.906M398.17 362.383c-.74 1.738-1.23 4.133-3.522 2.947-1.772-.916-2.02-4.613-1.685-6.305.346-1.754 1.08-3.765 3.094-2.976 2.323.91 2.088 4.42 2.113 6.334M417.604 360.778c-2.184 6.623-6.169 2.142-4.656-2.803 1.582-5.169 4.455-.149 4.656 2.803M406.961 361.105c-.607 1.167-1.252 3.683-2.887 3.418-2.005-.326-2.07-4.184-1.85-5.622.193-1.258.757-3.354 2.435-3.327 2.425.04 2.262 4.022 2.302 5.531M450.535 362.377c-1.626 3.65-3.863.506-3.147-2.086 1.062-3.844 3.055-.438 3.147 2.086" transform="translate(-1040 -1347) translate(0 -5) translate(369 1308) translate(671 44.004)"/>
                            <path fill="#000" fill-rule="nonzero" d="M410.71 373.895l-5.328-.02c1.778-.335 3.555-.465 5.328.02M446.002 371.215l-4.62.03c1.538-.462 3.078-.472 4.62-.03M428.425 372.653l-3.698.247 3.698-.247M398.17 362.383l-.034-2.654c.456.88.424 1.765.034 2.654M407.833 377.45l2.139.019-2.139-.02M395.828 376.817h2.168-2.168M401.765 373.972l-3.02.247 3.02-.247M415.378 373.884l-2.982.006c.993-.419 1.987-.43 2.982-.006M406.961 361.105l-.072-2.766.072 2.766M392.963 359.025c-.005.9-.011 1.8-.018 2.696.005-.901.012-1.798.018-2.696M434.074 372.318l-2.635.238 2.635-.238M450.535 362.377l-.085-2.357.085 2.357M413.144 377.476l1.83-.034-1.83.034M439.243 360.778l-.16-1.694.16 1.694M417.604 360.778l-.118-1.74.118 1.74M102.13 190.304c-2.406-.632-2.857-4.014-2.47-6.091l1.315-3.003-.514-1.11c.22-2.062-.343-2.958 2.026-2.123 4.4 1.552 5.104 12.168-.357 12.327M137.744 183.765c1.982-.156 5.582 2.152 3.609 4.386-1.222 1.384-5.25.73-6.894 1.018-2.179.384-4.452.908-3.273-2.357.926-2.564 4.232-3.114 6.558-3.047M135.658 199.123c-2.013-1.615-1.114-8.97 1.95-7.647 3.152 1.362-.27 6.585-1.95 7.647" transform="translate(-1040 -1347) translate(0 -5) translate(369 1308) translate(671 44.004)"/>
                            <path fill="#000" fill-rule="nonzero" d="M99.66 184.213c0 .774-.001 1.548-.003 2.319-.42-.776-.407-1.548.002-2.32M102.13 190.304l1.226-.035c-.412.014-.819.024-1.226.035M350.72 402.14c-.188 3.345-3.78.872-3.525-1.367.462-4.062 2.758-.048 3.525 1.366" transform="translate(-1040 -1347) translate(0 -5) translate(369 1308) translate(671 44.004)"/>
                            <path fill="#D8D8D8" d="M216.503 10.245c34.549-3.258 60.365-4.887 77.449-4.887 17.084 0 39.505 1.63 67.263 4.887.003 10.902.003 24.213 0 39.934 0 2.232-.028 50.402 0 52.514.317 24.427 2.71 56.872 7.177 97.335l-144.824-.065c-3.87-36.402-6.225-65.878-7.065-88.43-.84-22.553-.84-56.315 0-101.288z" opacity=".222" transform="translate(-1040 -1347) translate(0 -5) translate(369 1308) translate(671 44.004)"/>
                            <path fill="#2E364A" d="M275.963 45.779c1.099 6.282.005 12.837 1.192 19.103 2.29 12.093 6.085 24.25 8.885 36.517 26.647-2.722 23.217-2.003 84.03-2.98l-83.494 5.39c1.324 6.114 2.36 12.257 2.803 18.433 1.09 15.228 1.702 30.484 2.258 45.744l.33 9.156c.276 7.63.558 15.26.9 22.886l-12.383-95.826-66.498 4.293c33.356-3.102 53.049-5.138 66.22-6.496l-10.515-81.326-.013-.149c-.668-8.12-.467-13.327 6.285 25.255zm-8.27-40.572l1.998 15.466.03.362c.132 1.542.29 3.157.437 4.574l.033.322-.017-.156c-.399-3.405-1.095-9.242-2.231-18.526l-.25-2.042z" opacity=".122" transform="translate(-1040 -1347) translate(0 -5) translate(369 1308) translate(671 44.004) rotate(4 292.028 102.617)"/>
                        </g>
                    </g>
                </g>
            </g>
        </g>
    </g>
</svg>
