<?xml version="1.0" encoding="UTF-8"?>
<svg width="210px" height="29px" viewBox="0 0 210 29" version="1.1" xmlns="http://www.w3.org/2000/svg" xmlns:xlink="http://www.w3.org/1999/xlink">
    <title>Logo-1-colour</title>
    <defs>
        <filter id="filter-1">
            <feColorMatrix in="SourceGraphic" type="matrix" values="0 0 0 0 1.000000 0 0 0 0 1.000000 0 0 0 0 1.000000 0 0 0 1.000000 0"></feColorMatrix>
        </filter>
    </defs>
    <g id="Logo-1-colour" stroke="none" stroke-width="1" fill="none" fill-rule="evenodd">
        <g filter="url(#filter-1)" id="Group-Copy-5">
            <g transform="translate(0.000000, 2.000000)">
                <g id="Booksbank" transform="translate(29.010240, 0.070560)" fill-rule="nonzero">
                    <path d="M112.893022,26.86992 C113.853982,26.86992 114.802622,26.6728 115.738942,26.27856 C116.675262,25.88432 117.519182,25.28064 118.270702,24.46752 C119.022222,23.6544 119.632062,22.61336 120.100222,21.3444 C120.568382,20.07544 120.802462,18.56624 120.802462,16.8168 C120.802462,15.06736 120.568382,13.55816 120.100222,12.2892 C119.632062,11.02024 119.022222,9.9792 118.270702,9.16608 C117.519182,8.35296 116.675262,7.74928 115.738942,7.35504 C114.802622,6.9608 113.853982,6.76368 112.893022,6.76368 C111.710302,6.76368 110.570702,6.9916 109.474222,7.44744 C108.377742,7.90328 107.509182,8.624 106.868542,9.6096 L106.794622,9.6096 L106.794622,0 L101.546302,0 L101.546302,26.38944 L106.535902,26.38944 L106.535902,23.95008 L106.609822,23.95008 C107.176542,25.0096 108.014302,25.76112 109.123102,26.20464 C110.231902,26.64816 111.488542,26.86992 112.893022,26.86992 Z M111.081982,22.95216 C110.318142,22.95216 109.652862,22.78584 109.086142,22.4532 C108.519422,22.12056 108.051262,21.67088 107.681662,21.10416 C107.312062,20.53744 107.041022,19.88448 106.868542,19.14528 C106.696062,18.40608 106.609822,17.64224 106.609822,16.85376 C106.609822,16.04064 106.696062,15.26448 106.868542,14.52528 C107.041022,13.78608 107.312062,13.13312 107.681662,12.5664 C108.051262,11.99968 108.519422,11.55 109.086142,11.21736 C109.652862,10.88472 110.318142,10.7184 111.081982,10.7184 C111.870462,10.7184 112.541902,10.88472 113.096302,11.21736 C113.650702,11.55 114.112702,11.99968 114.482302,12.5664 C114.851902,13.13312 115.122942,13.78608 115.295422,14.52528 C115.467902,15.26448 115.554142,16.04064 115.554142,16.85376 C115.554142,17.64224 115.467902,18.40608 115.295422,19.14528 C115.122942,19.88448 114.851902,20.53744 114.482302,21.10416 C114.112702,21.67088 113.650702,22.12056 113.096302,22.4532 C112.541902,22.78584 111.870462,22.95216 111.081982,22.95216 Z M127.917339,26.86992 C129.100059,26.86992 130.258139,26.69744 131.391579,26.35248 C132.525019,26.00752 133.510619,25.40384 134.348379,24.54144 C134.373019,24.86176 134.416139,25.17592 134.477739,25.48392 C134.539339,25.79192 134.619419,26.09376 134.717979,26.38944 L134.717979,26.38944 L140.040219,26.38944 C139.793819,25.9952 139.621339,25.40384 139.522779,24.61536 C139.424219,23.82688 139.374939,23.00144 139.374939,22.13904 L139.374939,22.13904 L139.374939,12.1968 C139.374939,11.03872 139.116219,10.10856 138.598779,9.40632 C138.081339,8.70408 137.416059,8.15584 136.602939,7.7616 C135.789819,7.36736 134.890459,7.10248 133.904859,6.96696 C132.919259,6.83144 131.945979,6.76368 130.985019,6.76368 C129.925499,6.76368 128.872139,6.8684 127.824939,7.07784 C126.777739,7.28728 125.835259,7.6384 124.997499,8.1312 C124.159739,8.624 123.469819,9.27696 122.927739,10.09008 C122.385659,10.9032 122.077659,11.92576 122.003739,13.15776 L122.003739,13.15776 L127.252059,13.15776 C127.350619,12.12288 127.695579,11.38368 128.286939,10.94016 C128.878299,10.49664 129.691419,10.27488 130.726299,10.27488 C131.194459,10.27488 131.631819,10.30568 132.038379,10.36728 C132.444939,10.42888 132.802219,10.55208 133.110219,10.73688 C133.418219,10.92168 133.664619,11.1804 133.849419,11.51304 C134.034219,11.84568 134.126619,12.29536 134.126619,12.86208 C134.151259,13.40416 133.991099,13.81688 133.646139,14.10024 C133.301179,14.3836 132.833019,14.5992 132.241659,14.74704 C131.650299,14.89488 130.972699,15.00576 130.208859,15.07968 C129.445019,15.1536 128.668859,15.25216 127.880379,15.37536 C127.091899,15.49856 126.309579,15.66488 125.533419,15.87432 C124.757259,16.08376 124.067339,16.39792 123.463659,16.8168 C122.859979,17.23568 122.367179,17.79624 121.985259,18.49848 C121.603339,19.20072 121.412379,20.09392 121.412379,21.17808 C121.412379,22.16368 121.578699,23.01376 121.911339,23.72832 C122.243979,24.44288 122.705979,25.03424 123.297339,25.5024 C123.888699,25.97056 124.578619,26.31552 125.367099,26.53728 C126.155579,26.75904 127.005659,26.86992 127.917339,26.86992 Z M129.876219,23.39568 C129.457339,23.39568 129.050779,23.35872 128.656539,23.2848 C128.262299,23.21088 127.917339,23.08152 127.621659,22.89672 C127.325979,22.71192 127.091899,22.45936 126.919419,22.13904 C126.746939,21.81872 126.660699,21.42448 126.660699,20.95632 C126.660699,20.46352 126.746939,20.05696 126.919419,19.73664 C127.091899,19.41632 127.319819,19.15144 127.603179,18.942 C127.886539,18.73256 128.219179,18.56624 128.601099,18.44304 C128.983019,18.31984 129.371099,18.22128 129.765339,18.14736 C130.184219,18.07344 130.603099,18.01184 131.021979,17.96256 C131.440859,17.91328 131.841259,17.85168 132.223179,17.77776 C132.605099,17.70384 132.962379,17.61144 133.295019,17.50056 C133.627659,17.38968 133.904859,17.23568 134.126619,17.03856 L134.126619,17.03856 L134.126619,18.99744 C134.126619,19.29312 134.095819,19.68736 134.034219,20.18016 C133.972619,20.67296 133.806299,21.1596 133.535259,21.64008 C133.264219,22.12056 132.845339,22.53328 132.278619,22.87824 C131.711899,23.2232 130.911099,23.39568 129.876219,23.39568 Z M146.785495,26.38944 L146.785495,16.37328 C146.785495,14.42672 147.105815,13.0284 147.746455,12.17832 C148.387095,11.32824 149.421975,10.9032 150.851095,10.9032 C152.107735,10.9032 152.982455,11.29128 153.475255,12.06744 C153.968055,12.8436 154.214455,14.02016 154.214455,15.59712 L154.214455,26.38944 L159.462775,26.38944 L159.462775,14.63616 C159.462775,13.45344 159.358055,12.37544 159.148615,11.40216 C158.939175,10.42888 158.575735,9.60344 158.058295,8.92584 C157.540855,8.24824 156.832455,7.71848 155.933095,7.33656 C155.033735,6.95464 153.881815,6.76368 152.477335,6.76368 C151.368535,6.76368 150.284375,7.01624 149.224855,7.52136 C148.165335,8.02648 147.302935,8.83344 146.637655,9.94224 L146.526775,9.94224 L146.526775,7.28112 L141.537175,7.28112 L141.537175,26.38944 L146.785495,26.38944 Z M166.523892,26.38944 L166.523892,19.81056 L168.556692,17.85168 L173.805012,26.38944 L180.162132,26.38944 L172.141812,14.30352 L179.349012,7.28112 L173.139732,7.28112 L166.523892,14.15568 L166.523892,0 L161.275572,0 L161.275572,26.38944 L166.523892,26.38944 Z" id="bank" fill="#FFA93F"></path>
                    <path d="M12.78816,26.38944 C13.97088,26.38944 15.1228,26.2416 16.24392,25.94592 C17.36504,25.65024 18.36296,25.1944 19.23768,24.5784 C20.1124,23.9624 20.80848,23.16776 21.32592,22.19448 C21.84336,21.2212 22.10208,20.06928 22.10208,18.73872 C22.10208,17.08784 21.70168,15.6772 20.90088,14.5068 C20.10008,13.3364 18.88656,12.51712 17.26032,12.04896 C18.44304,11.48224 19.33624,10.75536 19.93992,9.86832 C20.5436,8.98128 20.84544,7.87248 20.84544,6.54192 C20.84544,5.30992 20.64216,4.27504 20.2356,3.43728 C19.82904,2.59952 19.25616,1.92808 18.51696,1.42296 C17.77776,0.91784 16.89072,0.5544 15.85584,0.33264 C14.82096,0.11088 13.6752,0 12.41856,0 L0,0 L0,26.38944 L12.78816,26.38944 Z M11.67936,10.68144 L5.80272,10.68144 L5.80272,4.50912 L11.23584,4.50912 C11.75328,4.50912 12.25224,4.55224 12.73272,4.63848 C13.2132,4.72472 13.63824,4.87872 14.00784,5.10048 C14.37744,5.32224 14.67312,5.63024 14.89488,6.02448 C15.11664,6.41872 15.22752,6.92384 15.22752,7.53984 C15.22752,8.64864 14.89488,9.44944 14.2296,9.94224 C13.56432,10.43504 12.71424,10.68144 11.67936,10.68144 Z M12.012,21.88032 L5.80272,21.88032 L5.80272,14.63616 L12.12288,14.63616 C13.37952,14.63616 14.38976,14.92568 15.1536,15.50472 C15.91744,16.08376 16.29936,17.05088 16.29936,18.40608 C16.29936,19.096 16.18232,19.66272 15.94824,20.10624 C15.71416,20.54976 15.4,20.90088 15.00576,21.1596 C14.61152,21.41832 14.15568,21.60312 13.63824,21.714 C13.1208,21.82488 12.57872,21.88032 12.012,21.88032 Z M32.8390364,26.86992 C34.3420764,26.86992 35.7034364,26.63584 36.9231164,26.16768 C38.1427964,25.69952 39.1838364,25.02808 40.0462364,24.15336 C40.9086364,23.27864 41.5739164,22.22528 42.0420764,20.99328 C42.5102364,19.76128 42.7443164,18.38144 42.7443164,16.85376 C42.7443164,15.32608 42.5102364,13.94008 42.0420764,12.69576 C41.5739164,11.45144 40.9086364,10.39192 40.0462364,9.5172 C39.1838364,8.64248 38.1427964,7.96488 36.9231164,7.4844 C35.7034364,7.00392 34.3420764,6.76368 32.8390364,6.76368 C31.3359964,6.76368 29.9807964,7.00392 28.7734364,7.4844 C27.5660764,7.96488 26.5311964,8.64248 25.6687964,9.5172 C24.8063964,10.39192 24.1411164,11.45144 23.6729564,12.69576 C23.2047964,13.94008 22.9707164,15.32608 22.9707164,16.85376 C22.9707164,18.38144 23.2047964,19.76128 23.6729564,20.99328 C24.1411164,22.22528 24.8063964,23.27864 25.6687964,24.15336 C26.5311964,25.02808 27.5660764,25.69952 28.7734364,26.16768 C29.9807964,26.63584 31.3359964,26.86992 32.8390364,26.86992 Z M32.8390364,22.95216 C31.9519964,22.95216 31.2127964,22.77968 30.6214364,22.43472 C30.0300764,22.08976 29.5557564,21.62776 29.1984764,21.04872 C28.8411964,20.46968 28.5886364,19.81672 28.4407964,19.08984 C28.2929564,18.36296 28.2190364,17.6176 28.2190364,16.85376 C28.2190364,16.08992 28.2929564,15.3384 28.4407964,14.5992 C28.5886364,13.86 28.8411964,13.20704 29.1984764,12.64032 C29.5557564,12.0736 30.0300764,11.6116 30.6214364,11.25432 C31.2127964,10.89704 31.9519964,10.7184 32.8390364,10.7184 C33.7260764,10.7184 34.4714364,10.89704 35.0751164,11.25432 C35.6787964,11.6116 36.1592764,12.0736 36.5165564,12.64032 C36.8738364,13.20704 37.1263964,13.86 37.2742364,14.5992 C37.4220764,15.3384 37.4959964,16.08992 37.4959964,16.85376 C37.4959964,17.6176 37.4220764,18.36296 37.2742364,19.08984 C37.1263964,19.81672 36.8738364,20.46968 36.5165564,21.04872 C36.1592764,21.62776 35.6787964,22.08976 35.0751164,22.43472 C34.4714364,22.77968 33.7260764,22.95216 32.8390364,22.95216 Z M53.5182329,26.86992 C55.0212729,26.86992 56.3826329,26.63584 57.6023129,26.16768 C58.8219929,25.69952 59.8630329,25.02808 60.7254329,24.15336 C61.5878329,23.27864 62.2531129,22.22528 62.7212729,20.99328 C63.1894329,19.76128 63.4235129,18.38144 63.4235129,16.85376 C63.4235129,15.32608 63.1894329,13.94008 62.7212729,12.69576 C62.2531129,11.45144 61.5878329,10.39192 60.7254329,9.5172 C59.8630329,8.64248 58.8219929,7.96488 57.6023129,7.4844 C56.3826329,7.00392 55.0212729,6.76368 53.5182329,6.76368 C52.0151929,6.76368 50.6599929,7.00392 49.4526329,7.4844 C48.2452729,7.96488 47.2103929,8.64248 46.3479929,9.5172 C45.4855929,10.39192 44.8203129,11.45144 44.3521529,12.69576 C43.8839929,13.94008 43.6499129,15.32608 43.6499129,16.85376 C43.6499129,18.38144 43.8839929,19.76128 44.3521529,20.99328 C44.8203129,22.22528 45.4855929,23.27864 46.3479929,24.15336 C47.2103929,25.02808 48.2452729,25.69952 49.4526329,26.16768 C50.6599929,26.63584 52.0151929,26.86992 53.5182329,26.86992 Z M53.5182329,22.95216 C52.6311929,22.95216 51.8919929,22.77968 51.3006329,22.43472 C50.7092729,22.08976 50.2349529,21.62776 49.8776729,21.04872 C49.5203929,20.46968 49.2678329,19.81672 49.1199929,19.08984 C48.9721529,18.36296 48.8982329,17.6176 48.8982329,16.85376 C48.8982329,16.08992 48.9721529,15.3384 49.1199929,14.5992 C49.2678329,13.86 49.5203929,13.20704 49.8776729,12.64032 C50.2349529,12.0736 50.7092729,11.6116 51.3006329,11.25432 C51.8919929,10.89704 52.6311929,10.7184 53.5182329,10.7184 C54.4052729,10.7184 55.1506329,10.89704 55.7543129,11.25432 C56.3579929,11.6116 56.8384729,12.0736 57.1957529,12.64032 C57.5530329,13.20704 57.8055929,13.86 57.9534329,14.5992 C58.1012729,15.3384 58.1751929,16.08992 58.1751929,16.85376 C58.1751929,17.6176 58.1012729,18.36296 57.9534329,19.08984 C57.8055929,19.81672 57.5530329,20.46968 57.1957529,21.04872 C56.8384729,21.62776 56.3579929,22.08976 55.7543129,22.43472 C55.1506329,22.77968 54.4052729,22.95216 53.5182329,22.95216 Z M69.6832693,26.38944 L69.6832693,19.81056 L71.7160693,17.85168 L76.9643893,26.38944 L83.3215093,26.38944 L75.3011893,14.30352 L82.5083893,7.28112 L76.2991093,7.28112 L69.6832693,14.15568 L69.6832693,0 L64.4349493,0 L64.4349493,26.38944 L69.6832693,26.38944 Z M91.3234258,26.86992 C92.4075858,26.86992 93.4732658,26.7652 94.5204658,26.55576 C95.5676658,26.34632 96.4978258,25.98288 97.3109458,25.46544 C98.1240658,24.948 98.7831858,24.26424 99.2883058,23.41416 C99.7934258,22.56408 100.045986,21.51072 100.045986,20.25408 C100.045986,19.36704 99.8735058,18.62168 99.5285458,18.018 C99.1835858,17.41432 98.7277458,16.9092 98.1610258,16.50264 C97.5943058,16.09608 96.9475058,15.7696 96.2206258,15.5232 C95.4937458,15.2768 94.7483858,15.06736 93.9845458,14.89488 C93.2453458,14.7224 92.5184658,14.56224 91.8039058,14.4144 C91.0893458,14.26656 90.4548658,14.10024 89.9004658,13.91544 C89.3460658,13.73064 88.8963858,13.4904 88.5514258,13.19472 C88.2064658,12.89904 88.0339858,12.51712 88.0339858,12.04896 C88.0339858,11.65472 88.1325458,11.34056 88.3296658,11.10648 C88.5267858,10.8724 88.7670258,10.69376 89.0503858,10.57056 C89.3337458,10.44736 89.6479058,10.36728 89.9928658,10.33032 C90.3378258,10.29336 90.6581458,10.27488 90.9538258,10.27488 C91.8901458,10.27488 92.7032658,10.45352 93.3931858,10.8108 C94.0831058,11.16808 94.4650258,11.85184 94.5389458,12.86208 L99.5285458,12.86208 C99.4299858,11.67936 99.1281458,10.69992 98.6230258,9.92376 C98.1179058,9.1476 97.4834258,8.52544 96.7195858,8.05728 C95.9557458,7.58912 95.0871858,7.25648 94.1139058,7.05936 C93.1406258,6.86224 92.1365458,6.76368 91.1016658,6.76368 C90.0667858,6.76368 89.0565458,6.85608 88.0709458,7.04088 C87.0853458,7.22568 86.1983058,7.546 85.4098258,8.00184 C84.6213458,8.45768 83.9868658,9.07984 83.5063858,9.86832 C83.0259058,10.6568 82.7856658,11.66704 82.7856658,12.89904 C82.7856658,13.7368 82.9581458,14.4452 83.3031058,15.02424 C83.6480658,15.60328 84.1039058,16.08376 84.6706258,16.46568 C85.2373458,16.8476 85.8841458,17.1556 86.6110258,17.38968 C87.3379058,17.62376 88.0832658,17.82704 88.8471058,17.99952 C90.7197458,18.39376 92.1796658,18.788 93.2268658,19.18224 C94.2740658,19.57648 94.7976658,20.16784 94.7976658,20.95632 C94.7976658,21.42448 94.6867858,21.81256 94.4650258,22.12056 C94.2432658,22.42856 93.9660658,22.67496 93.6334258,22.85976 C93.3007858,23.04456 92.9311858,23.18008 92.5246258,23.26632 C92.1180658,23.35256 91.7299858,23.39568 91.3603858,23.39568 C90.8429458,23.39568 90.3439858,23.33408 89.8635058,23.21088 C89.3830258,23.08768 88.9579858,22.89672 88.5883858,22.638 C88.2187858,22.37928 87.9169458,22.04664 87.6828658,21.64008 C87.4487858,21.23352 87.3317458,20.74688 87.3317458,20.18016 L82.3421458,20.18016 C82.3914258,21.46144 82.6809458,22.52712 83.2107058,23.3772 C83.7404658,24.22728 84.4180658,24.91104 85.2435058,25.42848 C86.0689458,25.94592 87.0114258,26.31552 88.0709458,26.53728 C89.1304658,26.75904 90.2146258,26.86992 91.3234258,26.86992 Z" id="Books" fill="#2C283A"></path>
                </g>
                <g id="Group">
                    <rect id="Rectangle" stroke="#2C283A" stroke-width="1.68" x="0.84" y="0.84" width="20.58" height="25.2"></rect>
                    <line x1="1.26" y1="13.23" x2="20.16" y2="13.23" id="Line" stroke="#2C283A" stroke-width="2.1" stroke-linecap="square"></line>
                    <rect id="Rectangle-Copy-2" fill="#2C283A" x="16.8" y="15.12" width="2.52" height="8.82"></rect>
                    <rect id="Rectangle-Copy" fill="#2C283A" x="2.52" y="2.52" width="2.52" height="8.82"></rect>
                    <rect id="Rectangle-Copy-3" fill="#2C283A" transform="translate(13.860000, 19.530000) rotate(19.000000) translate(-13.860000, -19.530000) " x="12.6" y="15.12" width="2.52" height="8.82"></rect>
                </g>
            </g>
        </g>
        <rect id="Rectangle" fill="#FFA93F" x="7" y="0" width="3" height="10.5"></rect>
    </g>
</svg>