<?xml version="1.0" encoding="UTF-8"?>
<svg width="210px" height="27px" viewBox="0 0 210 27" version="1.1" xmlns="http://www.w3.org/2000/svg" xmlns:xlink="http://www.w3.org/1999/xlink">
    <title>Logo</title>
    <g id="Home-page" stroke="none" stroke-width="1" fill="none" fill-rule="evenodd">
        <g id="Sign-up" transform="translate(-375.000000, -24.000000)">
            <g id="Logo" transform="translate(375.000000, 24.000000)">
                <rect id="Rectangle" stroke="#2C283A" stroke-width="1.68" x="0.84" y="0.84" width="20.58" height="25.2"></rect>
                <line x1="1.26" y1="13.23" x2="20.16" y2="13.23" id="Line" stroke="#2C283A" stroke-width="2.1" stroke-linecap="square"></line>
                <rect id="Rectangle-Copy-2" fill="#2C283A" x="16.8" y="15.12" width="2.52" height="8.82"></rect>
                <rect id="Rectangle-Copy" fill="#2C283A" x="2.52" y="2.52" width="2.52" height="8.82"></rect>
                <rect id="Rectangle-Copy-3" fill="#2C283A" transform="translate(13.860000, 19.530000) rotate(19.000000) translate(-13.860000, -19.530000) " x="12.6" y="15.12" width="2.52" height="8.82"></rect>
                <rect id="Rectangle" fill="#494360" x="5.88" y="2.52" width="2.52" height="8.82"></rect>
                <path d="M41.7984,26.46 C42.98112,26.46 44.13304,26.31216 45.25416,26.01648 C46.37528,25.7208 47.3732,25.26496 48.24792,24.64896 C49.12264,24.03296 49.81872,23.23832 50.33616,22.26504 C50.8536,21.29176 51.11232,20.13984 51.11232,18.80928 C51.11232,17.1584 50.71192,15.74776 49.91112,14.57736 C49.11032,13.40696 47.8968,12.58768 46.27056,12.11952 C47.45328,11.5528 48.34648,10.82592 48.95016,9.93888 C49.55384,9.05184 49.85568,7.94304 49.85568,6.61248 C49.85568,5.38048 49.6524,4.3456 49.24584,3.50784 C48.83928,2.67008 48.2664,1.99864 47.5272,1.49352 C46.788,0.9884 45.90096,0.62496 44.86608,0.4032 C43.8312,0.18144 42.68544,0.07056 41.4288,0.07056 L29.01024,0.07056 L29.01024,26.46 L41.7984,26.46 Z M40.6896,10.752 L34.81296,10.752 L34.81296,4.57968 L40.24608,4.57968 C40.76352,4.57968 41.26248,4.6228 41.74296,4.70904 C42.22344,4.79528 42.64848,4.94928 43.01808,5.17104 C43.38768,5.3928 43.68336,5.7008 43.90512,6.09504 C44.12688,6.48928 44.23776,6.9944 44.23776,7.6104 C44.23776,8.7192 43.90512,9.52 43.23984,10.0128 C42.57456,10.5056 41.72448,10.752 40.6896,10.752 Z M41.02224,21.95088 L34.81296,21.95088 L34.81296,14.70672 L41.13312,14.70672 C42.38976,14.70672 43.4,14.99624 44.16384,15.57528 C44.92768,16.15432 45.3096,17.12144 45.3096,18.47664 C45.3096,19.16656 45.19256,19.73328 44.95848,20.1768 C44.7244,20.62032 44.41024,20.97144 44.016,21.23016 C43.62176,21.48888 43.16592,21.67368 42.64848,21.78456 C42.13104,21.89544 41.58896,21.95088 41.02224,21.95088 Z M61.8492764,26.94048 C63.3523164,26.94048 64.7136764,26.7064 65.9333564,26.23824 C67.1530364,25.77008 68.1940764,25.09864 69.0564764,24.22392 C69.9188764,23.3492 70.5841564,22.29584 71.0523164,21.06384 C71.5204764,19.83184 71.7545564,18.452 71.7545564,16.92432 C71.7545564,15.39664 71.5204764,14.01064 71.0523164,12.76632 C70.5841564,11.522 69.9188764,10.46248 69.0564764,9.58776 C68.1940764,8.71304 67.1530364,8.03544 65.9333564,7.55496 C64.7136764,7.07448 63.3523164,6.83424 61.8492764,6.83424 C60.3462364,6.83424 58.9910364,7.07448 57.7836764,7.55496 C56.5763164,8.03544 55.5414364,8.71304 54.6790364,9.58776 C53.8166364,10.46248 53.1513564,11.522 52.6831964,12.76632 C52.2150364,14.01064 51.9809564,15.39664 51.9809564,16.92432 C51.9809564,18.452 52.2150364,19.83184 52.6831964,21.06384 C53.1513564,22.29584 53.8166364,23.3492 54.6790364,24.22392 C55.5414364,25.09864 56.5763164,25.77008 57.7836764,26.23824 C58.9910364,26.7064 60.3462364,26.94048 61.8492764,26.94048 Z M61.8492764,23.02272 C60.9622364,23.02272 60.2230364,22.85024 59.6316764,22.50528 C59.0403164,22.16032 58.5659964,21.69832 58.2087164,21.11928 C57.8514364,20.54024 57.5988764,19.88728 57.4510364,19.1604 C57.3031964,18.43352 57.2292764,17.68816 57.2292764,16.92432 C57.2292764,16.16048 57.3031964,15.40896 57.4510364,14.66976 C57.5988764,13.93056 57.8514364,13.2776 58.2087164,12.71088 C58.5659964,12.14416 59.0403164,11.68216 59.6316764,11.32488 C60.2230364,10.9676 60.9622364,10.78896 61.8492764,10.78896 C62.7363164,10.78896 63.4816764,10.9676 64.0853564,11.32488 C64.6890364,11.68216 65.1695164,12.14416 65.5267964,12.71088 C65.8840764,13.2776 66.1366364,13.93056 66.2844764,14.66976 C66.4323164,15.40896 66.5062364,16.16048 66.5062364,16.92432 C66.5062364,17.68816 66.4323164,18.43352 66.2844764,19.1604 C66.1366364,19.88728 65.8840764,20.54024 65.5267964,21.11928 C65.1695164,21.69832 64.6890364,22.16032 64.0853564,22.50528 C63.4816764,22.85024 62.7363164,23.02272 61.8492764,23.02272 Z M82.5284729,26.94048 C84.0315129,26.94048 85.3928729,26.7064 86.6125529,26.23824 C87.8322329,25.77008 88.8732729,25.09864 89.7356729,24.22392 C90.5980729,23.3492 91.2633529,22.29584 91.7315129,21.06384 C92.1996729,19.83184 92.4337529,18.452 92.4337529,16.92432 C92.4337529,15.39664 92.1996729,14.01064 91.7315129,12.76632 C91.2633529,11.522 90.5980729,10.46248 89.7356729,9.58776 C88.8732729,8.71304 87.8322329,8.03544 86.6125529,7.55496 C85.3928729,7.07448 84.0315129,6.83424 82.5284729,6.83424 C81.0254329,6.83424 79.6702329,7.07448 78.4628729,7.55496 C77.2555129,8.03544 76.2206329,8.71304 75.3582329,9.58776 C74.4958329,10.46248 73.8305529,11.522 73.3623929,12.76632 C72.8942329,14.01064 72.6601529,15.39664 72.6601529,16.92432 C72.6601529,18.452 72.8942329,19.83184 73.3623929,21.06384 C73.8305529,22.29584 74.4958329,23.3492 75.3582329,24.22392 C76.2206329,25.09864 77.2555129,25.77008 78.4628729,26.23824 C79.6702329,26.7064 81.0254329,26.94048 82.5284729,26.94048 Z M82.5284729,23.02272 C81.6414329,23.02272 80.9022329,22.85024 80.3108729,22.50528 C79.7195129,22.16032 79.2451929,21.69832 78.8879129,21.11928 C78.5306329,20.54024 78.2780729,19.88728 78.1302329,19.1604 C77.9823929,18.43352 77.9084729,17.68816 77.9084729,16.92432 C77.9084729,16.16048 77.9823929,15.40896 78.1302329,14.66976 C78.2780729,13.93056 78.5306329,13.2776 78.8879129,12.71088 C79.2451929,12.14416 79.7195129,11.68216 80.3108729,11.32488 C80.9022329,10.9676 81.6414329,10.78896 82.5284729,10.78896 C83.4155129,10.78896 84.1608729,10.9676 84.7645529,11.32488 C85.3682329,11.68216 85.8487129,12.14416 86.2059929,12.71088 C86.5632729,13.2776 86.8158329,13.93056 86.9636729,14.66976 C87.1115129,15.40896 87.1854329,16.16048 87.1854329,16.92432 C87.1854329,17.68816 87.1115129,18.43352 86.9636729,19.1604 C86.8158329,19.88728 86.5632729,20.54024 86.2059929,21.11928 C85.8487129,21.69832 85.3682329,22.16032 84.7645529,22.50528 C84.1608729,22.85024 83.4155129,23.02272 82.5284729,23.02272 Z M98.6935093,26.46 L98.6935093,19.88112 L100.726309,17.92224 L105.974629,26.46 L112.331749,26.46 L104.311429,14.37408 L111.518629,7.35168 L105.309349,7.35168 L98.6935093,14.22624 L98.6935093,0.07056 L93.4451893,0.07056 L93.4451893,26.46 L98.6935093,26.46 Z M120.333666,26.94048 C121.417826,26.94048 122.483506,26.83576 123.530706,26.62632 C124.577906,26.41688 125.508066,26.05344 126.321186,25.536 C127.134306,25.01856 127.793426,24.3348 128.298546,23.48472 C128.803666,22.63464 129.056226,21.58128 129.056226,20.32464 C129.056226,19.4376 128.883746,18.69224 128.538786,18.08856 C128.193826,17.48488 127.737986,16.97976 127.171266,16.5732 C126.604546,16.16664 125.957746,15.84016 125.230866,15.59376 C124.503986,15.34736 123.758626,15.13792 122.994786,14.96544 C122.255586,14.79296 121.528706,14.6328 120.814146,14.48496 C120.099586,14.33712 119.465106,14.1708 118.910706,13.986 C118.356306,13.8012 117.906626,13.56096 117.561666,13.26528 C117.216706,12.9696 117.044226,12.58768 117.044226,12.11952 C117.044226,11.72528 117.142786,11.41112 117.339906,11.17704 C117.537026,10.94296 117.777266,10.76432 118.060626,10.64112 C118.343986,10.51792 118.658146,10.43784 119.003106,10.40088 C119.348066,10.36392 119.668386,10.34544 119.964066,10.34544 C120.900386,10.34544 121.713506,10.52408 122.403426,10.88136 C123.093346,11.23864 123.475266,11.9224 123.549186,12.93264 L128.538786,12.93264 C128.440226,11.74992 128.138386,10.77048 127.633266,9.99432 C127.128146,9.21816 126.493666,8.596 125.729826,8.12784 C124.965986,7.65968 124.097426,7.32704 123.124146,7.12992 C122.150866,6.9328 121.146786,6.83424 120.111906,6.83424 C119.077026,6.83424 118.066786,6.92664 117.081186,7.11144 C116.095586,7.29624 115.208546,7.61656 114.420066,8.0724 C113.631586,8.52824 112.997106,9.1504 112.516626,9.93888 C112.036146,10.72736 111.795906,11.7376 111.795906,12.9696 C111.795906,13.80736 111.968386,14.51576 112.313346,15.0948 C112.658306,15.67384 113.114146,16.15432 113.680866,16.53624 C114.247586,16.91816 114.894386,17.22616 115.621266,17.46024 C116.348146,17.69432 117.093506,17.8976 117.857346,18.07008 C119.729986,18.46432 121.189906,18.85856 122.237106,19.2528 C123.284306,19.64704 123.807906,20.2384 123.807906,21.02688 C123.807906,21.49504 123.697026,21.88312 123.475266,22.19112 C123.253506,22.49912 122.976306,22.74552 122.643666,22.93032 C122.311026,23.11512 121.941426,23.25064 121.534866,23.33688 C121.128306,23.42312 120.740226,23.46624 120.370626,23.46624 C119.853186,23.46624 119.354226,23.40464 118.873746,23.28144 C118.393266,23.15824 117.968226,22.96728 117.598626,22.70856 C117.229026,22.44984 116.927186,22.1172 116.693106,21.71064 C116.459026,21.30408 116.341986,20.81744 116.341986,20.25072 L111.352386,20.25072 C111.401666,21.532 111.691186,22.59768 112.220946,23.44776 C112.750706,24.29784 113.428306,24.9816 114.253746,25.49904 C115.079186,26.01648 116.021666,26.38608 117.081186,26.60784 C118.140706,26.8296 119.224866,26.94048 120.333666,26.94048 Z" id="Books" fill="#2C283A" fill-rule="nonzero"></path>
                <path d="M141.903262,26.94048 C142.864222,26.94048 143.812862,26.74336 144.749182,26.34912 C145.685502,25.95488 146.529422,25.3512 147.280942,24.53808 C148.032462,23.72496 148.642302,22.68392 149.110462,21.41496 C149.578622,20.146 149.812702,18.6368 149.812702,16.88736 C149.812702,15.13792 149.578622,13.62872 149.110462,12.35976 C148.642302,11.0908 148.032462,10.04976 147.280942,9.23664 C146.529422,8.42352 145.685502,7.81984 144.749182,7.4256 C143.812862,7.03136 142.864222,6.83424 141.903262,6.83424 C140.720542,6.83424 139.580942,7.06216 138.484462,7.518 C137.387982,7.97384 136.519422,8.69456 135.878782,9.68016 L135.804862,9.68016 L135.804862,0.07056 L130.556542,0.07056 L130.556542,26.46 L135.546142,26.46 L135.546142,24.02064 L135.620062,24.02064 C136.186782,25.08016 137.024542,25.83168 138.133342,26.2752 C139.242142,26.71872 140.498782,26.94048 141.903262,26.94048 Z M140.092222,23.02272 C139.328382,23.02272 138.663102,22.8564 138.096382,22.52376 C137.529662,22.19112 137.061502,21.74144 136.691902,21.17472 C136.322302,20.608 136.051262,19.95504 135.878782,19.21584 C135.706302,18.47664 135.620062,17.7128 135.620062,16.92432 C135.620062,16.1112 135.706302,15.33504 135.878782,14.59584 C136.051262,13.85664 136.322302,13.20368 136.691902,12.63696 C137.061502,12.07024 137.529662,11.62056 138.096382,11.28792 C138.663102,10.95528 139.328382,10.78896 140.092222,10.78896 C140.880702,10.78896 141.552142,10.95528 142.106542,11.28792 C142.660942,11.62056 143.122942,12.07024 143.492542,12.63696 C143.862142,13.20368 144.133182,13.85664 144.305662,14.59584 C144.478142,15.33504 144.564382,16.1112 144.564382,16.92432 C144.564382,17.7128 144.478142,18.47664 144.305662,19.21584 C144.133182,19.95504 143.862142,20.608 143.492542,21.17472 C143.122942,21.74144 142.660942,22.19112 142.106542,22.52376 C141.552142,22.8564 140.880702,23.02272 140.092222,23.02272 Z M156.927579,26.94048 C158.110299,26.94048 159.268379,26.768 160.401819,26.42304 C161.535259,26.07808 162.520859,25.4744 163.358619,24.612 C163.383259,24.93232 163.426379,25.24648 163.487979,25.55448 C163.549579,25.86248 163.629659,26.16432 163.728219,26.46 L163.728219,26.46 L169.050459,26.46 C168.804059,26.06576 168.631579,25.4744 168.533019,24.68592 C168.434459,23.89744 168.385179,23.072 168.385179,22.2096 L168.385179,22.2096 L168.385179,12.26736 C168.385179,11.10928 168.126459,10.17912 167.609019,9.47688 C167.091579,8.77464 166.426299,8.2264 165.613179,7.83216 C164.800059,7.43792 163.900699,7.17304 162.915099,7.03752 C161.929499,6.902 160.956219,6.83424 159.995259,6.83424 C158.935739,6.83424 157.882379,6.93896 156.835179,7.1484 C155.787979,7.35784 154.845499,7.70896 154.007739,8.20176 C153.169979,8.69456 152.480059,9.34752 151.937979,10.16064 C151.395899,10.97376 151.087899,11.99632 151.013979,13.22832 L151.013979,13.22832 L156.262299,13.22832 C156.360859,12.19344 156.705819,11.45424 157.297179,11.01072 C157.888539,10.5672 158.701659,10.34544 159.736539,10.34544 C160.204699,10.34544 160.642059,10.37624 161.048619,10.43784 C161.455179,10.49944 161.812459,10.62264 162.120459,10.80744 C162.428459,10.99224 162.674859,11.25096 162.859659,11.5836 C163.044459,11.91624 163.136859,12.36592 163.136859,12.93264 C163.161499,13.47472 163.001339,13.88744 162.656379,14.1708 C162.311419,14.45416 161.843259,14.66976 161.251899,14.8176 C160.660539,14.96544 159.982939,15.07632 159.219099,15.15024 C158.455259,15.22416 157.679099,15.32272 156.890619,15.44592 C156.102139,15.56912 155.319819,15.73544 154.543659,15.94488 C153.767499,16.15432 153.077579,16.46848 152.473899,16.88736 C151.870219,17.30624 151.377419,17.8668 150.995499,18.56904 C150.613579,19.27128 150.422619,20.16448 150.422619,21.24864 C150.422619,22.23424 150.588939,23.08432 150.921579,23.79888 C151.254219,24.51344 151.716219,25.1048 152.307579,25.57296 C152.898939,26.04112 153.588859,26.38608 154.377339,26.60784 C155.165819,26.8296 156.015899,26.94048 156.927579,26.94048 Z M158.886459,23.46624 C158.467579,23.46624 158.061019,23.42928 157.666779,23.35536 C157.272539,23.28144 156.927579,23.15208 156.631899,22.96728 C156.336219,22.78248 156.102139,22.52992 155.929659,22.2096 C155.757179,21.88928 155.670939,21.49504 155.670939,21.02688 C155.670939,20.53408 155.757179,20.12752 155.929659,19.8072 C156.102139,19.48688 156.330059,19.222 156.613419,19.01256 C156.896779,18.80312 157.229419,18.6368 157.611339,18.5136 C157.993259,18.3904 158.381339,18.29184 158.775579,18.21792 C159.194459,18.144 159.613339,18.0824 160.032219,18.03312 C160.451099,17.98384 160.851499,17.92224 161.233419,17.84832 C161.615339,17.7744 161.972619,17.682 162.305259,17.57112 C162.637899,17.46024 162.915099,17.30624 163.136859,17.10912 L163.136859,17.10912 L163.136859,19.068 C163.136859,19.36368 163.106059,19.75792 163.044459,20.25072 C162.982859,20.74352 162.816539,21.23016 162.545499,21.71064 C162.274459,22.19112 161.855579,22.60384 161.288859,22.9488 C160.722139,23.29376 159.921339,23.46624 158.886459,23.46624 Z M175.795735,26.46 L175.795735,16.44384 C175.795735,14.49728 176.116055,13.09896 176.756695,12.24888 C177.397335,11.3988 178.432215,10.97376 179.861335,10.97376 C181.117975,10.97376 181.992695,11.36184 182.485495,12.138 C182.978295,12.91416 183.224695,14.09072 183.224695,15.66768 L183.224695,26.46 L188.473015,26.46 L188.473015,14.70672 C188.473015,13.524 188.368295,12.446 188.158855,11.47272 C187.949415,10.49944 187.585975,9.674 187.068535,8.9964 C186.551095,8.3188 185.842695,7.78904 184.943335,7.40712 C184.043975,7.0252 182.892055,6.83424 181.487575,6.83424 C180.378775,6.83424 179.294615,7.0868 178.235095,7.59192 C177.175575,8.09704 176.313175,8.904 175.647895,10.0128 L175.537015,10.0128 L175.537015,7.35168 L170.547415,7.35168 L170.547415,26.46 L175.795735,26.46 Z M195.534132,26.46 L195.534132,19.88112 L197.566932,17.92224 L202.815252,26.46 L209.172372,26.46 L201.152052,14.37408 L208.359252,7.35168 L202.149972,7.35168 L195.534132,14.22624 L195.534132,0.07056 L190.285812,0.07056 L190.285812,26.46 L195.534132,26.46 Z" id="bank" fill="#FFA93F" fill-rule="nonzero"></path>
            </g>
        </g>
    </g>
</svg>