<?xml version="1.0" encoding="UTF-8"?>
<svg width="210px" height="27px" viewBox="0 0 210 27" version="1.1" xmlns="http://www.w3.org/2000/svg" xmlns:xlink="http://www.w3.org/1999/xlink">
    <title>Logo-2-colour</title>
    <defs>
        <filter id="filter-1">
            <feColorMatrix in="SourceGraphic" type="matrix" values="0 0 0 0 1.000000 0 0 0 0 1.000000 0 0 0 0 1.000000 0 0 0 1.000000 0"></feColorMatrix>
        </filter>
    </defs>
    <g id="Logo-2-colour" stroke="none" stroke-width="1" fill="none" fill-rule="evenodd">
        <g id="Group-2">
            <g filter="url(#filter-1)" id="Group-Copy-5">
                <g>
                    <g id="Booksbank" transform="translate(29.010240, 0.070560)" fill="#2C283A" fill-rule="nonzero">
                        <path d="M12.78816,26.38944 C13.97088,26.38944 15.1228,26.2416 16.24392,25.94592 C17.36504,25.65024 18.36296,25.1944 19.23768,24.5784 C20.1124,23.9624 20.80848,23.16776 21.32592,22.19448 C21.84336,21.2212 22.10208,20.06928 22.10208,18.73872 C22.10208,17.08784 21.70168,15.6772 20.90088,14.5068 C20.10008,13.3364 18.88656,12.51712 17.26032,12.04896 C18.44304,11.48224 19.33624,10.75536 19.93992,9.86832 C20.5436,8.98128 20.84544,7.87248 20.84544,6.54192 C20.84544,5.30992 20.64216,4.27504 20.2356,3.43728 C19.82904,2.59952 19.25616,1.92808 18.51696,1.42296 C17.77776,0.91784 16.89072,0.5544 15.85584,0.33264 C14.82096,0.11088 13.6752,0 12.41856,0 L0,0 L0,26.38944 L12.78816,26.38944 Z M11.67936,10.68144 L5.80272,10.68144 L5.80272,4.50912 L11.23584,4.50912 C11.75328,4.50912 12.25224,4.55224 12.73272,4.63848 C13.2132,4.72472 13.63824,4.87872 14.00784,5.10048 C14.37744,5.32224 14.67312,5.63024 14.89488,6.02448 C15.11664,6.41872 15.22752,6.92384 15.22752,7.53984 C15.22752,8.64864 14.89488,9.44944 14.2296,9.94224 C13.56432,10.43504 12.71424,10.68144 11.67936,10.68144 Z M12.012,21.88032 L5.80272,21.88032 L5.80272,14.63616 L12.12288,14.63616 C13.37952,14.63616 14.38976,14.92568 15.1536,15.50472 C15.91744,16.08376 16.29936,17.05088 16.29936,18.40608 C16.29936,19.096 16.18232,19.66272 15.94824,20.10624 C15.71416,20.54976 15.4,20.90088 15.00576,21.1596 C14.61152,21.41832 14.15568,21.60312 13.63824,21.714 C13.1208,21.82488 12.57872,21.88032 12.012,21.88032 Z M32.8390364,26.86992 C34.3420764,26.86992 35.7034364,26.63584 36.9231164,26.16768 C38.1427964,25.69952 39.1838364,25.02808 40.0462364,24.15336 C40.9086364,23.27864 41.5739164,22.22528 42.0420764,20.99328 C42.5102364,19.76128 42.7443164,18.38144 42.7443164,16.85376 C42.7443164,15.32608 42.5102364,13.94008 42.0420764,12.69576 C41.5739164,11.45144 40.9086364,10.39192 40.0462364,9.5172 C39.1838364,8.64248 38.1427964,7.96488 36.9231164,7.4844 C35.7034364,7.00392 34.3420764,6.76368 32.8390364,6.76368 C31.3359964,6.76368 29.9807964,7.00392 28.7734364,7.4844 C27.5660764,7.96488 26.5311964,8.64248 25.6687964,9.5172 C24.8063964,10.39192 24.1411164,11.45144 23.6729564,12.69576 C23.2047964,13.94008 22.9707164,15.32608 22.9707164,16.85376 C22.9707164,18.38144 23.2047964,19.76128 23.6729564,20.99328 C24.1411164,22.22528 24.8063964,23.27864 25.6687964,24.15336 C26.5311964,25.02808 27.5660764,25.69952 28.7734364,26.16768 C29.9807964,26.63584 31.3359964,26.86992 32.8390364,26.86992 Z M32.8390364,22.95216 C31.9519964,22.95216 31.2127964,22.77968 30.6214364,22.43472 C30.0300764,22.08976 29.5557564,21.62776 29.1984764,21.04872 C28.8411964,20.46968 28.5886364,19.81672 28.4407964,19.08984 C28.2929564,18.36296 28.2190364,17.6176 28.2190364,16.85376 C28.2190364,16.08992 28.2929564,15.3384 28.4407964,14.5992 C28.5886364,13.86 28.8411964,13.20704 29.1984764,12.64032 C29.5557564,12.0736 30.0300764,11.6116 30.6214364,11.25432 C31.2127964,10.89704 31.9519964,10.7184 32.8390364,10.7184 C33.7260764,10.7184 34.4714364,10.89704 35.0751164,11.25432 C35.6787964,11.6116 36.1592764,12.0736 36.5165564,12.64032 C36.8738364,13.20704 37.1263964,13.86 37.2742364,14.5992 C37.4220764,15.3384 37.4959964,16.08992 37.4959964,16.85376 C37.4959964,17.6176 37.4220764,18.36296 37.2742364,19.08984 C37.1263964,19.81672 36.8738364,20.46968 36.5165564,21.04872 C36.1592764,21.62776 35.6787964,22.08976 35.0751164,22.43472 C34.4714364,22.77968 33.7260764,22.95216 32.8390364,22.95216 Z M53.5182329,26.86992 C55.0212729,26.86992 56.3826329,26.63584 57.6023129,26.16768 C58.8219929,25.69952 59.8630329,25.02808 60.7254329,24.15336 C61.5878329,23.27864 62.2531129,22.22528 62.7212729,20.99328 C63.1894329,19.76128 63.4235129,18.38144 63.4235129,16.85376 C63.4235129,15.32608 63.1894329,13.94008 62.7212729,12.69576 C62.2531129,11.45144 61.5878329,10.39192 60.7254329,9.5172 C59.8630329,8.64248 58.8219929,7.96488 57.6023129,7.4844 C56.3826329,7.00392 55.0212729,6.76368 53.5182329,6.76368 C52.0151929,6.76368 50.6599929,7.00392 49.4526329,7.4844 C48.2452729,7.96488 47.2103929,8.64248 46.3479929,9.5172 C45.4855929,10.39192 44.8203129,11.45144 44.3521529,12.69576 C43.8839929,13.94008 43.6499129,15.32608 43.6499129,16.85376 C43.6499129,18.38144 43.8839929,19.76128 44.3521529,20.99328 C44.8203129,22.22528 45.4855929,23.27864 46.3479929,24.15336 C47.2103929,25.02808 48.2452729,25.69952 49.4526329,26.16768 C50.6599929,26.63584 52.0151929,26.86992 53.5182329,26.86992 Z M53.5182329,22.95216 C52.6311929,22.95216 51.8919929,22.77968 51.3006329,22.43472 C50.7092729,22.08976 50.2349529,21.62776 49.8776729,21.04872 C49.5203929,20.46968 49.2678329,19.81672 49.1199929,19.08984 C48.9721529,18.36296 48.8982329,17.6176 48.8982329,16.85376 C48.8982329,16.08992 48.9721529,15.3384 49.1199929,14.5992 C49.2678329,13.86 49.5203929,13.20704 49.8776729,12.64032 C50.2349529,12.0736 50.7092729,11.6116 51.3006329,11.25432 C51.8919929,10.89704 52.6311929,10.7184 53.5182329,10.7184 C54.4052729,10.7184 55.1506329,10.89704 55.7543129,11.25432 C56.3579929,11.6116 56.8384729,12.0736 57.1957529,12.64032 C57.5530329,13.20704 57.8055929,13.86 57.9534329,14.5992 C58.1012729,15.3384 58.1751929,16.08992 58.1751929,16.85376 C58.1751929,17.6176 58.1012729,18.36296 57.9534329,19.08984 C57.8055929,19.81672 57.5530329,20.46968 57.1957529,21.04872 C56.8384729,21.62776 56.3579929,22.08976 55.7543129,22.43472 C55.1506329,22.77968 54.4052729,22.95216 53.5182329,22.95216 Z M69.6832693,26.38944 L69.6832693,19.81056 L71.7160693,17.85168 L76.9643893,26.38944 L83.3215093,26.38944 L75.3011893,14.30352 L82.5083893,7.28112 L76.2991093,7.28112 L69.6832693,14.15568 L69.6832693,0 L64.4349493,0 L64.4349493,26.38944 L69.6832693,26.38944 Z M91.3234258,26.86992 C92.4075858,26.86992 93.4732658,26.7652 94.5204658,26.55576 C95.5676658,26.34632 96.4978258,25.98288 97.3109458,25.46544 C98.1240658,24.948 98.7831858,24.26424 99.2883058,23.41416 C99.7934258,22.56408 100.045986,21.51072 100.045986,20.25408 C100.045986,19.36704 99.8735058,18.62168 99.5285458,18.018 C99.1835858,17.41432 98.7277458,16.9092 98.1610258,16.50264 C97.5943058,16.09608 96.9475058,15.7696 96.2206258,15.5232 C95.4937458,15.2768 94.7483858,15.06736 93.9845458,14.89488 C93.2453458,14.7224 92.5184658,14.56224 91.8039058,14.4144 C91.0893458,14.26656 90.4548658,14.10024 89.9004658,13.91544 C89.3460658,13.73064 88.8963858,13.4904 88.5514258,13.19472 C88.2064658,12.89904 88.0339858,12.51712 88.0339858,12.04896 C88.0339858,11.65472 88.1325458,11.34056 88.3296658,11.10648 C88.5267858,10.8724 88.7670258,10.69376 89.0503858,10.57056 C89.3337458,10.44736 89.6479058,10.36728 89.9928658,10.33032 C90.3378258,10.29336 90.6581458,10.27488 90.9538258,10.27488 C91.8901458,10.27488 92.7032658,10.45352 93.3931858,10.8108 C94.0831058,11.16808 94.4650258,11.85184 94.5389458,12.86208 L99.5285458,12.86208 C99.4299858,11.67936 99.1281458,10.69992 98.6230258,9.92376 C98.1179058,9.1476 97.4834258,8.52544 96.7195858,8.05728 C95.9557458,7.58912 95.0871858,7.25648 94.1139058,7.05936 C93.1406258,6.86224 92.1365458,6.76368 91.1016658,6.76368 C90.0667858,6.76368 89.0565458,6.85608 88.0709458,7.04088 C87.0853458,7.22568 86.1983058,7.546 85.4098258,8.00184 C84.6213458,8.45768 83.9868658,9.07984 83.5063858,9.86832 C83.0259058,10.6568 82.7856658,11.66704 82.7856658,12.89904 C82.7856658,13.7368 82.9581458,14.4452 83.3031058,15.02424 C83.6480658,15.60328 84.1039058,16.08376 84.6706258,16.46568 C85.2373458,16.8476 85.8841458,17.1556 86.6110258,17.38968 C87.3379058,17.62376 88.0832658,17.82704 88.8471058,17.99952 C90.7197458,18.39376 92.1796658,18.788 93.2268658,19.18224 C94.2740658,19.57648 94.7976658,20.16784 94.7976658,20.95632 C94.7976658,21.42448 94.6867858,21.81256 94.4650258,22.12056 C94.2432658,22.42856 93.9660658,22.67496 93.6334258,22.85976 C93.3007858,23.04456 92.9311858,23.18008 92.5246258,23.26632 C92.1180658,23.35256 91.7299858,23.39568 91.3603858,23.39568 C90.8429458,23.39568 90.3439858,23.33408 89.8635058,23.21088 C89.3830258,23.08768 88.9579858,22.89672 88.5883858,22.638 C88.2187858,22.37928 87.9169458,22.04664 87.6828658,21.64008 C87.4487858,21.23352 87.3317458,20.74688 87.3317458,20.18016 L82.3421458,20.18016 C82.3914258,21.46144 82.6809458,22.52712 83.2107058,23.3772 C83.7404658,24.22728 84.4180658,24.91104 85.2435058,25.42848 C86.0689458,25.94592 87.0114258,26.31552 88.0709458,26.53728 C89.1304658,26.75904 90.2146258,26.86992 91.3234258,26.86992 Z" id="Books"></path>
                    </g>
                    <g id="Group">
                        <rect id="Rectangle" stroke="#2C283A" stroke-width="1.68" x="0.84" y="0.84" width="20.58" height="25.2"></rect>
                        <line x1="1.26" y1="13.23" x2="20.16" y2="13.23" id="Line" stroke="#2C283A" stroke-width="2.1" stroke-linecap="square"></line>
                        <rect id="Rectangle-Copy-2" fill="#2C283A" x="16.8" y="15.12" width="2.52" height="8.82"></rect>
                        <rect id="Rectangle-Copy" fill="#2C283A" x="2.52" y="2.52" width="2.52" height="8.82"></rect>
                        <rect id="Rectangle-Copy-3" fill="#2C283A" transform="translate(13.860000, 19.530000) rotate(19.000000) translate(-13.860000, -19.530000) " x="12.6" y="15.12" width="2.52" height="8.82"></rect>
                    </g>
                </g>
            </g>
            <rect id="Rectangle" fill="#FFA93F" x="5.88" y="2.52" width="2.52" height="8.82"></rect>
            <path d="M141.903262,26.94048 C142.864222,26.94048 143.812862,26.74336 144.749182,26.34912 C145.685502,25.95488 146.529422,25.3512 147.280942,24.53808 C148.032462,23.72496 148.642302,22.68392 149.110462,21.41496 C149.578622,20.146 149.812702,18.6368 149.812702,16.88736 C149.812702,15.13792 149.578622,13.62872 149.110462,12.35976 C148.642302,11.0908 148.032462,10.04976 147.280942,9.23664 C146.529422,8.42352 145.685502,7.81984 144.749182,7.4256 C143.812862,7.03136 142.864222,6.83424 141.903262,6.83424 C140.720542,6.83424 139.580942,7.06216 138.484462,7.518 C137.387982,7.97384 136.519422,8.69456 135.878782,9.68016 L135.804862,9.68016 L135.804862,0.07056 L130.556542,0.07056 L130.556542,26.46 L135.546142,26.46 L135.546142,24.02064 L135.620062,24.02064 C136.186782,25.08016 137.024542,25.83168 138.133342,26.2752 C139.242142,26.71872 140.498782,26.94048 141.903262,26.94048 Z M140.092222,23.02272 C139.328382,23.02272 138.663102,22.8564 138.096382,22.52376 C137.529662,22.19112 137.061502,21.74144 136.691902,21.17472 C136.322302,20.608 136.051262,19.95504 135.878782,19.21584 C135.706302,18.47664 135.620062,17.7128 135.620062,16.92432 C135.620062,16.1112 135.706302,15.33504 135.878782,14.59584 C136.051262,13.85664 136.322302,13.20368 136.691902,12.63696 C137.061502,12.07024 137.529662,11.62056 138.096382,11.28792 C138.663102,10.95528 139.328382,10.78896 140.092222,10.78896 C140.880702,10.78896 141.552142,10.95528 142.106542,11.28792 C142.660942,11.62056 143.122942,12.07024 143.492542,12.63696 C143.862142,13.20368 144.133182,13.85664 144.305662,14.59584 C144.478142,15.33504 144.564382,16.1112 144.564382,16.92432 C144.564382,17.7128 144.478142,18.47664 144.305662,19.21584 C144.133182,19.95504 143.862142,20.608 143.492542,21.17472 C143.122942,21.74144 142.660942,22.19112 142.106542,22.52376 C141.552142,22.8564 140.880702,23.02272 140.092222,23.02272 Z M156.927579,26.94048 C158.110299,26.94048 159.268379,26.768 160.401819,26.42304 C161.535259,26.07808 162.520859,25.4744 163.358619,24.612 C163.383259,24.93232 163.426379,25.24648 163.487979,25.55448 C163.549579,25.86248 163.629659,26.16432 163.728219,26.46 L163.728219,26.46 L169.050459,26.46 C168.804059,26.06576 168.631579,25.4744 168.533019,24.68592 C168.434459,23.89744 168.385179,23.072 168.385179,22.2096 L168.385179,22.2096 L168.385179,12.26736 C168.385179,11.10928 168.126459,10.17912 167.609019,9.47688 C167.091579,8.77464 166.426299,8.2264 165.613179,7.83216 C164.800059,7.43792 163.900699,7.17304 162.915099,7.03752 C161.929499,6.902 160.956219,6.83424 159.995259,6.83424 C158.935739,6.83424 157.882379,6.93896 156.835179,7.1484 C155.787979,7.35784 154.845499,7.70896 154.007739,8.20176 C153.169979,8.69456 152.480059,9.34752 151.937979,10.16064 C151.395899,10.97376 151.087899,11.99632 151.013979,13.22832 L151.013979,13.22832 L156.262299,13.22832 C156.360859,12.19344 156.705819,11.45424 157.297179,11.01072 C157.888539,10.5672 158.701659,10.34544 159.736539,10.34544 C160.204699,10.34544 160.642059,10.37624 161.048619,10.43784 C161.455179,10.49944 161.812459,10.62264 162.120459,10.80744 C162.428459,10.99224 162.674859,11.25096 162.859659,11.5836 C163.044459,11.91624 163.136859,12.36592 163.136859,12.93264 C163.161499,13.47472 163.001339,13.88744 162.656379,14.1708 C162.311419,14.45416 161.843259,14.66976 161.251899,14.8176 C160.660539,14.96544 159.982939,15.07632 159.219099,15.15024 C158.455259,15.22416 157.679099,15.32272 156.890619,15.44592 C156.102139,15.56912 155.319819,15.73544 154.543659,15.94488 C153.767499,16.15432 153.077579,16.46848 152.473899,16.88736 C151.870219,17.30624 151.377419,17.8668 150.995499,18.56904 C150.613579,19.27128 150.422619,20.16448 150.422619,21.24864 C150.422619,22.23424 150.588939,23.08432 150.921579,23.79888 C151.254219,24.51344 151.716219,25.1048 152.307579,25.57296 C152.898939,26.04112 153.588859,26.38608 154.377339,26.60784 C155.165819,26.8296 156.015899,26.94048 156.927579,26.94048 Z M158.886459,23.46624 C158.467579,23.46624 158.061019,23.42928 157.666779,23.35536 C157.272539,23.28144 156.927579,23.15208 156.631899,22.96728 C156.336219,22.78248 156.102139,22.52992 155.929659,22.2096 C155.757179,21.88928 155.670939,21.49504 155.670939,21.02688 C155.670939,20.53408 155.757179,20.12752 155.929659,19.8072 C156.102139,19.48688 156.330059,19.222 156.613419,19.01256 C156.896779,18.80312 157.229419,18.6368 157.611339,18.5136 C157.993259,18.3904 158.381339,18.29184 158.775579,18.21792 C159.194459,18.144 159.613339,18.0824 160.032219,18.03312 C160.451099,17.98384 160.851499,17.92224 161.233419,17.84832 C161.615339,17.7744 161.972619,17.682 162.305259,17.57112 C162.637899,17.46024 162.915099,17.30624 163.136859,17.10912 L163.136859,17.10912 L163.136859,19.068 C163.136859,19.36368 163.106059,19.75792 163.044459,20.25072 C162.982859,20.74352 162.816539,21.23016 162.545499,21.71064 C162.274459,22.19112 161.855579,22.60384 161.288859,22.9488 C160.722139,23.29376 159.921339,23.46624 158.886459,23.46624 Z M175.795735,26.46 L175.795735,16.44384 C175.795735,14.49728 176.116055,13.09896 176.756695,12.24888 C177.397335,11.3988 178.432215,10.97376 179.861335,10.97376 C181.117975,10.97376 181.992695,11.36184 182.485495,12.138 C182.978295,12.91416 183.224695,14.09072 183.224695,15.66768 L183.224695,26.46 L188.473015,26.46 L188.473015,14.70672 C188.473015,13.524 188.368295,12.446 188.158855,11.47272 C187.949415,10.49944 187.585975,9.674 187.068535,8.9964 C186.551095,8.3188 185.842695,7.78904 184.943335,7.40712 C184.043975,7.0252 182.892055,6.83424 181.487575,6.83424 C180.378775,6.83424 179.294615,7.0868 178.235095,7.59192 C177.175575,8.09704 176.313175,8.904 175.647895,10.0128 L175.537015,10.0128 L175.537015,7.35168 L170.547415,7.35168 L170.547415,26.46 L175.795735,26.46 Z M195.534132,26.46 L195.534132,19.88112 L197.566932,17.92224 L202.815252,26.46 L209.172372,26.46 L201.152052,14.37408 L208.359252,7.35168 L202.149972,7.35168 L195.534132,14.22624 L195.534132,0.07056 L190.285812,0.07056 L190.285812,26.46 L195.534132,26.46 Z" id="bank" fill="#FFA93F" fill-rule="nonzero"></path>
        </g>
    </g>
</svg>