<svg xmlns="http://www.w3.org/2000/svg" width="300" height="399" viewBox="0 0 300 399">
    <g fill="none" fill-rule="evenodd">
        <g>
            <g>
                <g>
                    <path fill="#E76C67" fill-rule="nonzero" d="M79.3 130.08l-1.069 17.437c2.291-.66 16.863-4.941 15.963-.6-.645 3.114-4.743 6.483-6.83 8.65-1.92 1.997-3.9 3.94-5.928 5.828 3.729-1.425 7.488-2.775 11.275-4.038 2.865-.955 5.751-1.888 8.687-2.604 1.09-.266 4.033-1.352 5.062-.611 2.706 1.944-11.973 16.265-13.984 18.284 2.843-1.32 5.755-2.52 8.716-3.55 2.137-.743 8.742-3.583 10.634-1.157 2.025 2.594-2.992 8.553-4.383 10.442-1.993 2.707-4.154 5.304-6.42 7.787 9.42 8.45 20.49 15.971 32.272 20.646 8.639 3.428 17.124 4.3 26.24 2.42 9.365-1.933 18.345-5.64 26.883-9.877 5.014-2.49 9.961-5.182 14.675-8.207-1.943-2.36-3.83-4.77-5.663-7.217-2.616-3.493-5.831-7.31-7.323-11.468-1.46-4.07 4.017-3.275 6.644-3.054 3.805.32 7.599 1 11.327 1.812-2.636-1.832-5.224-3.736-7.76-5.702-3.307-2.563-7.716-5.46-9.88-9.147-1.903-3.241 2.273-2.423 4.204-1.998 4.604 1.013 9.084 2.74 13.475 4.423 3.216 1.233 6.412 2.524 9.577 3.883-1.965-1.705-3.863-3.492-5.688-5.345-2.453-2.49-5.76-5.532-6.86-8.962-2.24-6.985 12.825-1.716 15.397-.638l-1.425-21.707-59.843 15.903c-2.155.573-4.853 1.821-7.101 1.888-2.037.06-4.496-.855-6.482-1.234l-36.097-6.888L79.3 130.08" transform="translate(-1222 -192) translate(0 -5) translate(1222 197)"/>
                    <g fill="#000" fill-rule="nonzero">
                        <path d="M293.693 326.916c-2.153 1.23-4.676 2.181-7.068 2.819-1.405.375-3.727 1.531-4.961.47-.593-.508-.729-1.664-1.078-2.334-.554-1.06-1.34-1.977-2.077-2.915-1.786-2.271-3.645-4.463-5.59-6.6-.921-1.014-2.605-3.378-4.228-3.223-2.024.194-1.976 2.992-1.468 4.421 1.614 4.55 6.503 8.517 9.696 11.946-.812 1.247-5.27 1.099-6.509.807-1.89-.446-2.081-1.79-2.944-3.328-2.018-3.593-6.112-5.604-9.477-7.716-1.227-.771-3.834-2.906-5.433-2.369-1.515.51-1.45 2.442-.967 3.705.729 1.907 2.803 3.23 4.336 4.436 2.045 1.607 3.915 3.356 5.62 5.324-2.457.2-4.904.546-7.354.747-2.964.244-5.433-1.38-8.161-2.3-2.535-.855-5.06-1.578-7.553-2.564-2.798-1.107-5.73-1.492-8.552-2.463-11.078-3.81-21.933-8.602-32.608-13.433-5.087-2.302-10.069-4.605-15.369-6.406-3.863-1.314-9.933-3.93-10.856-8.525-.488-2.428 1.289-5.039 1.55-7.465.307-2.853.066-5.993-.805-8.731-.767-2.412-2.039-4.646-3.04-6.961-1.168-2.7-.123-2.656 2.145-2.962 2.714-.368 5.882-1.894 8.433-2.888 2.94-1.145 5.853-2.746 8.545-4.39 2.435-1.489 4.553-3.407 6.491-5.49 1.972-2.12 3.248-4.63 5.155-6.802 7.035 8.64 13.722 17.413 21.198 25.68 3.528 3.903 7.365 7.13 11.713 10.096 1.815 1.24 3.617 2.655 5.594 3.634 2.474 1.226 5.24 1.987 7.782 3.106 9.748 4.29 19.051 8.978 28.145 14.513 4.4 2.677 8.092 5.747 11.966 9.105 1.206 1.046 11.084 7.14 7.73 9.056M179.34 256.13c-1.575.713-3.077 1.638-4.758 2.095.477-2.895 3.182-7.262 6.65-6.781 1.326.183 2.326 1.21 1.743 2.628-.529 1.287-2.513 1.55-3.635 2.058M69.69 177.603c-1.786.985-3.45 1.558-4.498-.555.776-.156 4.3-.625 4.498.555m-2.974-5.975c-1.38-.418-.276-.858.199-1.362.37-.393 1.594-1.77 2.023-1.997 1.893-1.001 3.356 2.725 4.262 3.934-2.143-.19-4.398.056-6.484-.575m14.756 12.902c-2.615.443-2.325-2.826-2.247-4.482.552.673 4.287 4.137 2.247 4.482m8.67-5.645c-3.19.537-5.297-4.966-4.725-7.373.503-2.12 2.975-3.304 4.942-3.616 1.907-.304 4.562.11 5.129 2.306.5 1.942-3.22 8.324-5.346 8.683m75.492 83.067c-2.292.703-4.538.792-6.841 1.482-2.614.784-5.032.714-7.651 1.247-1.066.217-3.94 1.767-4.98 1.421-1.029-.343-2.519-3.534-3.11-4.363 4.633-1.924 8.586-4.407 11.64-8.46 2.429-3.223 5.033-8.051 3.505-12.21-1.723-4.69-7.663-5.709-11.623-3.75-1.874.926-3.73 2.078-5.275 3.49-1.766 1.614-2.46 3.376-3.605 5.366-1.157 2.014-1.969.894-3.125-.816-.988-1.461-.859-2.937-2.094-4.379-.63-.735-1.605-1.445-1.934-2.395-.208-.603.231-1.67-.164-2.145-.556-.666-1.232.117-1.698-.478-.338-.433-.228-1.418-.577-1.958-.303-.308-.64-.57-1.013-.788-.452-.223-.534-.503-.248-.838-.36-.664-.013-.889-.783-1.697-1.2-1.26-2.294-2.469-3.148-3.956-.39-.681-.352-1.691-.837-2.28-.666-.81-1.775-.688-2.347-1.69-.51-.892-.169-2.453-1.01-3.263-.443-.127-.886-.25-1.33-.373-.334-.324-.529-.717-.584-1.18-.467-.718-.56-1.56-1.15-2.32-1.128-1.45-2.646-2.79-3.643-4.32-1.047-1.607-.492-1.878 1.329-2.453 1.641-.52 3.14-1.002 4.661-1.886 7.035-4.088 13.704-14.933 2.539-18.246-4.144-1.23-7.548-4.535-12.142-3.236-1.992.564-3.881 1.763-5.367 3.187-1.027.984-1.977 3.615-3.238 4.12-2.266.906-1.308-1.358-1.951-2.399-.307-.496-1.543-1.068-2.002-1.52-.537-.53-1.057-1.199-1.43-1.854-.693-1.216-1.117-1.894-2.117-2.885-.376-.374-2.257-2.305-.561-2.053-.687-2.091.316-2.405 1.701-3.933 1.628-1.794 3.308-4.287 3.317-6.8.02-4.827-5.708-6.99-9.304-4.125-.732.583-5.06 6.21-4.174 2.622.477-1.936 4.898-6.988 6.948-5.68-2.297-3.344-7.574 4.774-8.805 6.435-1.049-1.928-1.123-3.437-2.859-4.93-1.412 2.263-.666-.21-.978-.713-.673-1.085-.303.156-.668-.23-.454-.48-1.17-.858-1.653-1.494-.828 1.122-.497-.086-.751-.505-.593-.98-.364-1.547-1.38-2.4-.74-.62-2.198-1.582-3.194-1.67-1.148-.101-1.466.338-2.636.013-1.488-.413-3.362-1.048-2.64 1.438.522 1.806 2.649 2.833 3.115 4.679.469 1.858-1.37 3.73-2.263 5.254-1.146 1.954-2.083 1.794-4.16 2.235-1.327.282-3.098.884-1.96 2.492.813 1.148 2.717.906 3.79 1.587 1.504.954 1.483 3.306 3.404 3.715 2.114.45 3.326-1.901 5.11-2.47 1.267-.403 5.194-.358 6.192.593 1.36 1.295.185 3.77.528 5.38.509 2.386 2.125 2.531 4.17 2.608 2.517.094 3.402 2.507 4.755 4.422 3.171 4.484 5.927 9.264 9.175 13.689 1.437 1.959 3.54 3.702 4.718 5.828 1.454 2.626-.565 4.14-2.306 6.025-2.276 2.463-3.975 5.265-5.949 7.957-1.754 2.392-3.934 1.796-6.737 1.796.625-1.285 1.377-2.087 2.913-1.931-1.606-1.96-2.892.281-3.934 1.523-1.508 1.796-3.474 2.229-5.41 3.41-.686.417-4.419 3.124-3.285 4.049.13.105 6.308-3.954 7.012-4.327 0 1.499-.328 3.056-.118 4.546.154 1.093.923 2.232.76 3.368-.312 2.145-3.087 3.834-4.278 5.505-.897 1.258-.68 2.25-1.137 3.6-.416 1.231-.197.859-1.235 1.24-2.112.774-5.666.356-7.579-.746-1.187-.683-2.097-1.764-3.061-2.716-.727-.718-2.554-1.945-2.755-2.95-.347-1.729 3.092-4.943 3.772-6.727 1.922-5.035-1.374-8.95-6.503-9.235 1.581-1.218 3.54-.3 5.207.164-2.849-3.941-7.713-.698-10.13 1.98-1.65-4.167-2.446-8.563-3.455-12.91-.687-2.959-3.302-8.24-2.135-11.288.564-1.473 2.155-2.294 3.256-3.315 1.251-1.161 2.323-2.549 3.237-3.985 2.155-3.385 3.4-7.657.433-10.992l2.704-.444c-1.466-1.376-3.78-.706-5.682-1.114-1.208-.258-4.682-.09-5.488-.773-.97-.82-.348-4.596-.314-5.714.08-2.61.299-5.121.587-7.717.274-2.452.219-5.1.726-7.51.412-1.954 1.728-2.55 3.247-3.702 3.63-2.755 6.588-6.105 5.348-10.852l1.318-.209c-1.42-1.025-3.258-.652-4.838-1.194 1.45-4.078 4.66-11.246 9.869-11.633.179 1.823.056 3.991 1.288 5.5 1.402 1.718 3.863 1.891 5.762.983 1.724-.826 3.342-2.575 4.136-4.303.537-1.17.44-3.148 1.384-4.075 1.265-1.243 9.987-.493 9.72 1.606-.158 1.234-2.49 3.308-3.142 4.402-1.193 2.001-2.148 4.166-2.586 6.465-.665 3.49-.28 8.1 3.27 9.935 4.037 2.088 8.957-.567 12.268-2.86 1.818-1.26 3.58-2.65 5.24-4.108.885-.777 1.774-1.577 2.554-2.46.575-.652 1.035-1.704 1.744-2.192 1.674-1.153 3.315.804 4.731 1.792 2.308 1.61 4.604 3.14 7.08 4.48 5.027 2.718 9.623 6.32 14.067 9.896 4.47 3.597 9.078 7.298 12.7 11.78-2.194 1.347-1.802 1.697-2.778 4.1-.693 1.706-1.646 3.157-1.757 5.052-.19 3.27 1.912 6.058 5.103 6.781 1.785.405 3.485.081 5.138-.647 1.284-.567 2.565-1.96 3.907-2.307 2.496-.642 4.492 4.065 5.891 5.723 6.212 7.365 12.779 14.439 18.628 22.104.648.849 2.573 2.507 2.729 3.631.225 1.615-2.318 3.153-3.373 4.078-.554.486-6.427 6.003-4.455 6.88.562.25 2.208-3.135 2.62-3.425 1.54-1.083.374 1.041.283 2.115-.23 2.67 1.606 4.124 4.187 3.785 2.754-.36 5.206-2.532 6.91-4.582 2.136 2.47 5.474 6.204 6.092 9.504.394 2.108-1.432 7.268 1.977 7.698.52.065 2.405-1.33 2.756-.538.293.662-1.743 1.792-2.037 2.011-1.255.935-2.013 1.938-3.026 3.07-1.19 1.33-2.815 2.45-4.153 3.725-1.41 1.343-4.198 4.989-6.058 3.227-.935-.885-.689-2.042-2.186-2.562-1.364-.473-3.091.127-4.358.652-1.427.59-6.126 2.745-6.647 4.52-.72 2.447 3.164-.495 3.855-.925-.788 1.996-1.223 4.886-3.228 6.05-1.666.968-4.063 1.537-5.89 2.098M139 246.854c1.334-4.28 9.197-11.911 14.167-9.524-5.792 1.212-10.388 5.17-14.167 9.524m2.941 12.257c-1.938-1.079-1.834-4.212-2.51-6.045-.389-1.052-1.165-1.82-.937-2.987.267-1.368 2.015-2.89 2.945-3.876 2.928-3.107 8.08-7.351 12.792-6.64 5.997.908 1.931 8.949-.11 11.718-1.741 2.36-8.449 9.907-12.18 7.83m-13.992-5.235c-6.486-.432-12.95-1.011-19.348-2.2-2.268-.422-4.168-.36-2.87-2.964.428-.86 3.012-6.247 3.595-6.092.346.091.267 3.794.369 4.218.458 1.907 1.744 3.683 3.912 3.562 3.547-.198 5.834-4.778 7.702-7.237 1.496 2.01 2.58 4.241 4.084 6.217.719.944 3.222 3.141 2.556 4.496M89.922 228.45c-1.088 2.494-3.276 4.865-4.798 7.125-.86-1.82-1.466-5.996.575-7.341.773-.509 4.912-1.36 4.223.216m22.496 7.426c.3-.96.631-1.913 1.001-2.848.635 1.995.96 2.054-1 2.848m5.552 2.043c.787 1.332 2.099 2.643 1.893 4.316-.156 1.268-1.304 2.568-2.124 3.452-1.356 1.462-4.361 4.268-6.326 2.326-1.642-1.621-1.07-6.08-.307-7.904 1.09-2.607 4.987-5.365 6.864-2.19m-3.853-2.732c.452-.179-.496-3.087.384-3.377.767 1.747 1.49 2.22-.384 3.377m-12.393-39.145c-.293-1.073-.963-1.028-.722-2.355.159-.87.85-1.798 1.375-2.488 1.045-1.374 2.424-2.506 3.915-3.364 3.147-1.809 7.47-2.56 10.288.272-2.634.416-10.711 3.013-10.763 6.612 2.93-.564 5.234-3.503 8.173-4.43 2.411-.76 5.027-.706 7.427.097 6.567 2.197 3.836 7.866.13 11.548-2.201 2.186-4.84 3.819-7.725 4.945-1.335.521-2.154.579-3.466.317-.246-.05-.533-.505-.828-.602-.732-.243-.52.578-1.123.21-.526-.322-1.649-2.396-2.006-2.99-.57-.945-.836-1.864-1.535-2.727-.7-.863-1.04-2.02-1.689-2.801-.31-.376-1.163-.361-1.392-.728-.343-.55.094-.952-.06-1.516m-10.086 42.28c1.492-2.59 4.046-4.79 6.022-7.053.122 3.721-2.55 6.269-6.022 7.053m2.017 1.196c3.083-1.083 4.781-3.675 5.096-6.817.399-3.98 2.901-6.07 4.408-9.645.578-1.37 1.251-5.88 3.49-4.59.769.443 1.224 2.108 1.625 2.86.968 1.82 2.07 3.584 3.097 5.371.836 1.455 2.09 2.918 1.72 4.67-.321 1.526-1.357 3.153-1.963 4.593-1.432 3.401-3.313 6.533-4.885 9.86-.634 1.342-1.384 4.519-3.32 4.502-1.533-.013-1.361-1.686-2.37-2.26-1.274-.723-2.722.654-3.768 1.225 1.204-2.031 3.31-3.181 5.678-2.799-2.835-2.82-4.75.985-7.183 1.832-2.305.803-6.394-2.983-8.335-4.056.743-1.256 1.414-2.791 2.69-3.617 1.211-.785 2.698-.664 4.02-1.129m-25.063 25.763c.337-1.623 1.291-2.583 1.896-4.057.701 1.788-.94 2.842-1.896 4.057m48.979 9.96c-.166 5.467-.613 10.92-.774 16.387-.075 2.522-.522 4.927-.819 7.42-.25 2.107-.123 4.177-1.451 5.978-2.095 2.84-6.167 3.655-9.33 4.707-2.321.772-4.67 1.473-6.962 2.33-2.063.773-3.726 1.943-5.688 2.86-1.755.822-3.65 1.308-5.396 2.183-1.807.905-3.235 2.008-5.09 2.813-2.222.965-4.053 2.68-6.029 4.043-1.74 1.199-3.58 2.125-5.076 3.632-1.403 1.415-3.179 2.035-4.769 3.292-1.681 1.329-3.441 2.192-5.298 3.234-3.805 2.136-8.939 5.783-13.518 3.708 1.31-1.67 3.99-3.276 4.194-5.577.265-2.998-2.348-1.895-3.861-.937-2.292 1.45-3.56 3.2-5.305 5.133-2.04 2.26-4.616.74-7.112.104 1.707-1.534 3.4-3.083 5.103-4.62 1.438-1.297 3.638-2.7 4.514-4.493.626-1.283.595-3.04-.915-3.706-1.69-.745-3.6.825-4.852 1.76-3.322 2.483-5.51 5.63-7.692 9.085-1.16 1.837-1.695 1.696-3.83 1.329-2.261-.39-4.524-.804-6.805-1.077 3.022-3.099 6.399-6.456 8.785-10.082.773-1.175 1.781-4.27-.574-4.556-.97-.117-2.903 1.865-3.652 2.4-3.272 2.335-6.418 5.28-8.586 8.69-.716 1.126-.941 2.378-2.327 2.472-1.813.122-5.18-1.605-6.929-2.14 3.342-4.206 6.66-8.443 10.564-12.152 3.587-3.41 7.165-5.886 11.36-8.5 4.496-2.803 8.684-6.03 12.812-9.34 3.95-3.17 8.079-6.16 11.716-9.698 7.265-7.069 13.736-15.198 19.095-23.794 1.253-2.012 2.434-4.076 3.454-6.216.958-2.01 1.4-4.414 2.693-6.242.447-.631 1.077-1.1 1.475-1.76.376-.62.249-1.37.822-1.92 1.324-1.27 3.737-.504 4.975.386 1.992 1.432 3.603 3.17 5.792 4.368 2.201 1.205 4.583 2.082 7.02 2.674 5.698 1.384 11.346 2.519 17.15 3.36-.597 2.211.87 2.56 1.356 4.55.59 2.416-.166 5.453-.24 7.913m-54.86-36.887c-1.292-1.917-2.445-3.92-3.714-5.85-.773-1.175-1.732-2.437-1.071-3.874 1.113-2.422 5.04-2.853 7.171-1.797 4.845 2.4.344 9.266-2.386 11.52M49.887 194.52c-.446-3.747.989-6.404 4.382-8.369 2.419-1.4 4.366.514 4.036 3.066-.502 3.888-4.663 8.212-7.838 10.241-.207-1.644-.383-3.293-.58-4.938M49.37 183.8c1.001-.794 3.682.219 4.842.288l-4.786 4.175c-.104-.955-.98-3.73-.056-4.463m5.382-36.179c8.072-1.048-1.22 7.603-3.559 8.958.38-1.84 1.316-8.666 3.56-8.958m21.487-15.145c-1.083 4.434-9.51 9.27-9.597 2.008-.033-2.706 1.49-2.487 3.71-2.747 1.268-.147 6.507-1.795 5.887.74m-29.103 6.865c-.946 2.48-1.705 5.023-2.632 7.506-.41 1.098-.894 1.854-1.659 2.725-.64.728-1.402.912-1.377 2.063.802-.155 1.43-.633 2.078-1.093-.157 2.282-.965 4.737-1.356 7.012-.468 2.727-.858 5.456-1.003 8.221-.314 6.014-.316 12.006-.184 18.024.067 3.066.098 6.134.263 9.197.083 1.524.177 3.054.365 4.568.077.611.521 1.913.247 2.486-1.079 2.25-5.854-3.929-7.928-3.022.298-1.712-.39-1.338-1.54-2.18-.556-.407-.918-1.101-1.499-1.465-.175-.189-.369-.357-.58-.505-.24-.327-.493-.292-.759.104-2.336-1.395-2.94-4.367-4.194-6.367-.645-1.028-1.268-1.189-1.378-2.61-.096-1.239.09-2.501.04-3.745-.057-1.404-.139-2.951-.533-4.31-.458-1.577-1.087-1.449-2.313-2.29.378-.164.627-.441.747-.83-.391.07-1.58.554-1.876.205-.582-.684.79-.775 1.15-1.048-1.538-.682-1.206-1.242-.651-2.492.157-.354.307-.882.44-1.18.292-.652.46-.24.556-1.048.092-.772-.593-2.29-.795-3.111-.338-1.38-.525-2.571-.221-4.008.246-1.163.908-2.217.955-3.413.013-.336-.5-.447-.507-.772-.01-.474.433-.682.548-1.12.294-1.121.162-2.306.665-3.37.453-.956 1.367-2.192 2.015-3.026.448-.577 1.549-1.229 1.67-1.991.08-.506-.709-.448-.674-.828.048-.516.481-.683.6-1.066.328-1.051.41-2.061 1.256-2.867 1.066-1.014 1.53-.59 1.574-2.262.021-.816-.632-.942-.282-1.882.19-.511.751-.813 1.11-1.175 1.066-1.074 1.785-2.027 2.544-3.354.671-1.173 1.742-1.855 2.43-2.867.895-1.32-.444-1.974 1.374-2.346-.259-.82-.533-1.482.146-2.175.429-.437 1.517-.17 1.896-.676.435-.58-.208-1.957.448-2.334.533-.306 1.331.638 2.169.17.638-.356 1.602-2.323 1.397-3.046 1.65.928 1.238.29 2.028-.9.177-.267.714-.326.867-.596.305-.537.235-1.086.674-1.523.732-.728 1.93-.541 2.735-1.062.666-.43.63-.892 1.162-1.298.454-.346 1.199-.412 1.64-.771.864-.703.873-1.445 1.954-2.05 1.28-.717 2.415-1.327 3.58-2.277.759-.62 1.48-1.717 2.367-2.126 1.229-.565 2.186-.605 3.388-1.411.868-.583 1.69-1.545 2.542-2.036.643-.37 1.094-.29 1.905-.52 1.46-.413 1.815-1.786 3.005-2.345.817-.384 2.007-.032 2.904-.234 2.792-.626 5.55-1.976 8.352-2.724 3.42-.913 6.865-1.712 10.311-2.519-3.167 4.287-7.2 8.155-11.292 11.56-1.342 1.118-8.701 6.213-4.735 8.388 1.592.874 5.051-1.947 6.337-2.636 2.588-1.389 5.27-2.5 7.98-3.624 4.385-1.816 10.094-5.045 14.966-4.786-2.965 3.634-6.668 6.551-10.06 9.761-3.117 2.95-7.814 5.717-6.344 10.545-4.379-1.112-8.311-2.427-12.864-2.136-2.039.13-4.08-.114-6.11.171-2.207.312-4.285 1.05-6.406 1.697-1.678.511-3.533.552-5.077 1.403-.746.412-1.668 1-2.339 1.51-.893.681-1.097 1.132-1.798 2.03-2.504 3.2-4.926 6.202-6.414 10.102m-13.695 60.595c-.137-.554-.26-1.06-.418-1.692 1.394.857 1.394.857.418 1.692M22.91 182.29c-.172.238-.893.314-1.103.109-.26-.255.425-1.246.535-1.456.272.208.898.89.568 1.347m-2.983-6.423l.554-2.03c.226.628 1.248 1.321 1.27 1.919.014.396-1.623.199-1.824.111m.592.929c1.599 1.05 1.766 2.291 1.814 4.106-1.914-.633-1.639-2.483-1.814-4.106m27.807-71.604c-.161.436-.846 1.795-1.348.845-.16-.305 1.015-.72 1.348-.845m-.459-1.482c.396-.356 1.192.087 1.64-.2.313-.202.209-.407.356-.526.03-.024.456-.885.63-1.08.308-.344.98-.559 1.355-.869 1.048-.867 1.639-2.006 2.298-3.166.786-1.384 1.036-1.544 2.304-2.178.874-.437 1.552-.972 2.263-1.714.82-.856.76-1.468 1.432-2.403.333-.462.811-.519 1.198-.89.465-.446.7-1.069 1.13-1.518.185-.194.78-.194.893-.36.143-.211.255-1.053.389-1.208l.769 1.037c1.01-1.775 1.748-3.241 3.437-4.422 1.775-1.24 3.307-3.055 5.141-4.166.412-.249 1.252-.354 1.567-.722.533-.622.071-1.176.46-1.704.44-.6 1.294-.114 1.855-.373.709-.327.911-1.281 1.824-1.176-3.002 3.546-2.964 9.065-3.123 13.495-.07 1.908 1.135 2.87-.643 4.271-1.511 1.192-3.643.838-5.43 1.622-2.244.985-4.644 1.51-6.934 2.368-2.369.887-4.273 2.441-6.552 3.47-2.01.905-3.383 2.194-5.222 3.313-.683.416-1.742 1.02-2.557.523-.51-.312-1.146-.824-.48-1.424m33.905-29.738c.13-.504 2.692-1.828 3.323-2.26.946-.65 2.346-2.236 3.402-1.606.366-1.463 1.794-3.092 3.055-3.402 1.4-.345 3.8-1.543 5.177-2.59.402-.305.535-.751 1.008-1.038.824-.499 1.642-.227 2.435-.907.122-.104 1.22-1.915 1.263-1.897.056.194.108.39.152.588.834-.462 1.576-.829 2.095-1.417.118-.134-.646-.481-.405-.746.296-.324.954.038 1.253-.27-.928 4.6-.237 10.52 4.434 12.85-5.556.6-10.982-1.068-16.607-.043-2.692.49-5.429 1.296-7.878 2.533-1.5.757-3.419 3.472-4.913 2.154.593-.79 1.497-1.28 2.206-1.95m26.958-13.23c2.078-2.538 5.23-3.542 8.403-2.633 3.716 1.064 2.149 3.657 1.588 6.536-1.073-1.57-3.396-3.127-5.374-3.174-2.803-.067-1.744 2.266-.06 3.102 1.531.76 4.156.971 5.252 2.353 1.067 1.344.658 3.542.83 5.127l-2.488-.37c.696-3.699-2.367-3.878-5.223-4.92-2.886-1.054-5.292-3.133-2.928-6.021m9.307-9.109v3.433l-3.467-1.973 3.467-1.46m9.287 27.431c3.857 1.044 7.689 2.149 11.397 3.59 1.347.523 2.822.708 4.142 1.298 1.257.562 1.445.504.998 1.604-1.252 3.081-4.218 2.55-6.817 2.078-4.068-.738-8.052-1.761-12.069-2.724-3.926-.94-7.936-1.557-11.803-2.735-3.969-1.21-7.836-2.354-11.918-3.153-1.191-.233-10.615-1.096-10.544-2.08 5.936-.77 12.046-.011 18.008.069 6.195.083 12.596.426 18.606 2.053m-5.237-11.92c.074-2.119.103-4.244.367-6.35 1.765 2.176 3.36 2.827 5.585.787 2.13-1.953 2.606-2.97 5.308-1.135 2.342 1.592 4.558 1.52 7.045.125 1.518-.85 3.956-4.324 5.55-3.609.76.341 1.318 1.715 2.085 2.22.963.634 2.443 1.073 3.565 1.32 2.65.579 4.23-1.123 5.893-2.944 2.413-2.64 2.342-1.107 4.579.724 2.495 2.042 4.58 1.044 6.84-.699 1.376 4.027 1.89 8.424 2.28 12.646.13 1.425.62 3.449-.662 4.457-.903.71-2.821.738-3.91 1.131-3.888 1.405-7.625 3.397-10.878 5.947-1.267.994-2.372 2.21-4.103 1.984-1.65-.216-3.254-1.595-4.582-2.506-1.44-.988-2.898-2.11-4.581-2.66-.986-.323-2.565-.207-3.428-.798-1.603-1.1.284-3.983-.116-5.92-.302-1.47-1.149-4.534-3.176-3.672-3.017 1.281-1.261 6.285.398 7.847-3.394-.602-7.151-1.48-10.424-2.597-2.528-.863-3.726-3.714-3.635-6.298m56.915 10.32c6.966-1.953 13.485-3.27 20.735-3.626 3.209-.158 6.316-.058 9.49-.03 1.826.017 3.218-1.454 1.759-3.147-2.02-2.343-8.182-1.451-10.912-1.556-7.317-.283-14.026.548-20.957 2.957.733-1.348 2.494-1.523 3.7-2.22 1.48-.856 2.487-2.266 3.12-3.83 1.645-4.07-.012-7.904-1.733-11.62 3.381.908 6.879 2.897 10.277 3.402.713.105 1.17.037 1.8.297.387.158.51.708.989.828.232.058.788-.465 1.05-.391 1.035.292.217.37.871.793.52.336.478.768 1.43.61.423-.07.881-.723 1.104-.741.283-.023.218-.368.652-.267.79.183.72 1.199.982 1.699.281.532-.117 1.24.734 1.53.637.219.797-.453 1.338-.405.329.03 1.011.503 1.302.79.935.929 2.216 1.954 3.474 2.558-.124-.124.593-.423.421-.494-.115-.046.637.135.626.132.726.165 1.11 1.279 1.477 1.685.675.744 1.724 1.53 2.67 1.858 1.635.569 1.586-.11 2.182 1.83 1.163-1.825 1.61 1.233 3.052 1.57.747.174.66-.146 1.338.245.466.267.777 1.087 1.128 1.482l.452-1.71c1.039 1.965 3.28 5.081 5.74 4.518 0 .536-.221 1.177.194 1.635.29.32.76-.044.988.142.198.163.673.81.825.915.299.21.842.363 1.102.572.23.184.343 1.062.597 1.38.477.596 1.303.715 1.693 1.43.09-.705.178-1.412.267-2.117.774.598.841 1.062 1.031 1.936.271 1.245-.088.953.772 1.479.845.517 1.285.458 2.06 1.355.76.88.766 1.42 1.862.505.204.677.27 1.554.813 2.073.411.392 2.113.409 2.276 1.336-3.197-2.694-1.094 1.397.001.006.231 1.489 1.322 1.97 2.568 3.03 1.162.988 1.352.916 1.75 2.576-.01-.037.583.33.626.404-1.132.161.623 1.425.92 1.656.216.168.498-.234.858.039.411.312.746 1.021 1.08 1.45.908 1.16 1.58 2.156 2.534 3.1 1.03 1.018 1.532 2.305 2.521 3.495 1.098 1.322 1.692 2.841 2.61 4.276.872 1.365 2.03 2.46 3.041 3.71 1.61 1.987 2.158 6.366 5.16 6.482-.175.181.07 1.539.098 1.79.142 1.232.048 2.417.778 3.534.167-1.274.834-.783 1.414-.114.964 1.113.118.833.168 1.96.062 1.368.218.31.74 1.504.408.935.631 1.542.85 2.58-1.696.133-2.472-1.25-3.099-2.592-.262-.56-.353-1.482-.817-1.92-.493-.468-1.171-.504-1.679-1.025-.974-1-1.395-2.56-2.543-3.534-1.297-1.1-1.584-1.62-2.656-2.935-1.185-1.455-2.823-2.476-4.066-3.883-1.246-1.41-1.145-.64-2.71-1.15-1.664-.543-4.355-5.768-6.451-3.756.083-1.316-1.891-2.554-2.89-3.032-.43-.206-.933-.019-1.365-.328-.468-.335-.501-.982-.973-1.384 0 0-.724.175-.87.102-.3-.152-.302-.687-.566-.863-.731-.488-1.602-.999-2.377-1.414-1.885-1.01-3.55-2.253-5.369-3.468-1.558-1.041-3.443-2.922-5.244-3.47-1.573-.48-2.562-.236-3.85-1.196-.701-.523-.495-.698-1.622-1.024-1.074-.31-1.676-.15-2.245-1.287-.995-1.988-.367-5.87-.56-8.1-.204-2.368-.446-4.794-1.064-7.095-.731-2.72-1.697-4.142-4.618-3.502-5.79 1.27-11.509 2.48-17.324 3.596-11.588 2.223-22.977 5.85-34.311 9.071-.863.246-5.68 1.347-4.695-1.14.453-1.147 3.501-1.574 4.522-1.935 5.601-1.98 11.228-3.997 16.954-5.602m-1.947-5.062l-2.539.967v-2.35c.847.46 1.693.921 2.54 1.383m-3.518-12.427c.735.6 2.23-.845 2.856-1.138 1.068-.5 2.428-.928 3.621-.826 2.2.19 3.81 2.354 3.407 4.548-.682 3.712-5.978 5.467-8.897 6.918-.094-1.315-.52-2.897.403-4.034.802-.988 2.357-.916 3.097-1.967 1.862-2.641-3.184-2.88-4.312-.78l-1.335-4.027c1.074-.177.602.851 1.16 1.306m5.208-7.266l-3.152 2.035c-.52-2.348 1.255-2.657 3.152-2.035m95.74 81.731c-1.377.656-1.72-.91-2.71-.978 1.169-.718 1.169-.718 2.71.978m5.595 34.196c.172 2.251.038 4.528.338 6.77.228 1.705.92 3.293.994 5.017.162 3.778-1.116 7.625-3.695 10.394-2.44 2.62-5.932 4.874-9.226 5.976-1.484.495-3.033 1.595-4.475 2.001-1.595.45-3.11-.529-4.426 1.227-.877-7.531-.236-15.4-.305-22.98-.07-7.595.012-15.193-1.274-22.706-1.146-6.692-3.405-14.218-7.568-19.693-1.691-2.223-3.774-4.044-5.97-5.748-1.14-.884-2.279-1.83-3.548-2.528-1.953-1.075-3.617-.926-5.74-1.232-3.041-.439-5.867-.81-8.918.046-2.84.796-5.97 1.703-8.514 3.085-2.534 1.379-5.478 1.946-8.109 3.18-1.79.84-5.507 3.645-7.493 3.14-1.922-.49-4.768-3.747-5.995-5.207-1.569-1.865-2.866-4.027-4.258-6.033-.488-.705-1.485-1.794-1.612-2.698-.22-1.57.41-1.057 1.912-.882 3.862.453 7.495 1.168 11.197 2.382 1.842.604 5.444 3.048 7.286 1.584 2.813-2.236-1.461-6.08-3.026-7.37-2.668-2.2-5.769-3.834-8.612-5.79-3.02-2.077-7.014-4.288-8.958-7.487 5.676 1.673 11.347 3.59 16.858 5.748 2.521.987 5.013 2.03 7.381 3.342 1.33.737 4.018 2.73 5.62 1.776 3.482-2.076-4.516-8.105-5.67-9.337-1.793-1.914-3.55-3.81-5.52-5.547-1.33-1.172-3.418-1.996-4.036-3.724 2.206.797 3.99 2.36 6.057 3.422 1.082.556 2.069.876 3.264 1.046 1.273.182 1.425.385 2.429.89.781.395 1.584.922 2.461 1.19.626.191 1.718.224 2.264.578.28.399.568.79.866 1.174.334.098.662.21.985.34.485.43.772 1.026 1.244 1.471 3.422 3.232 8 5.545 11.836 8.253 3.63 2.561 7.482 4.878 10.969 7.674 4.012 3.218 8.176 6.676 11.588 10.534 1.929 2.18 3.514 4.653 5.134 7.064 1.173 1.746 2.879 3.194 3.893 4.995 2.21 3.925 4.045 8.167 6.424 12.029 2.425 3.935 5.584 7.845 5.948 12.634m-32.612 22.773c.66-2.724 4.39-5.904 6.774-7.105-1.2 2.968-4.401 4.992-6.774 7.105m6.15 9.502c-2.033 4.213-10.972 4.694-9.76-1.54.595-3.054 3.117-4.928 5.282-6.927 1.001-.923 3.453-4.227 5.002-3.695-.072 2.375-.212 4.761-.207 7.137.003 1.586.403 3.534-.317 5.025m-2.584-48.552c.825 1.85 1.647 3.391.117 5.046-.69.747-2.94 2.381-3.959 2.018-3.267-1.163 2.963-6.231 3.842-7.064m-19.764-16.46c.787-.044 1.552.073 2.33.025.774-.048.856-.185 1.574-.087l.227.33c.098.738.487.818 1.164.241.943.21 1.556.35 2.458.858-2.433 1.752-5.395 3.79-8.378 4.377-4.715.93-3.412-5.523.625-5.745m-72.28 39.402c-.49.982-1.896-1.472-2.244-1.93.65-.001 2.738.939 2.244 1.93m37.883-25.854c3.664-2.135 8.014-4.01 11.949-5.599.691 3.329-2.683 7.626-4.76 9.904-1.681 1.842-3.707 3.752-5.985 4.812-2.464 1.146-5.156.643-5.036-2.573.044-1.175.311-3.066.79-4.14.618-1.386 1.786-1.673 3.042-2.404m-49.518-60.55c.545-.032 6.468-.797 6.437-.061-.094 2.212-5.843.475-6.437.06m-41.883 42.712c3.129-3.855 8.179-8.016 8.253-13.403.109-7.927-8.7-3.972-13.13-3.642 2.342-2.298 14.111-11.939 7.15-15.363-2.001-.984-4.845-.023-6.853.493-3.562.915-6.874 2.5-10.374 3.602 2.5-2.658 6.822-5.68 6.68-9.706-.173-4.9-4.201-3.716-7.684-2.996-1.339.276-7.318 2.652-8.441 1.039-.412-.591.254-1.342.395-1.867.249-.931.172-1.256.18-2.207.017-1.918 1.294-4.38.253-6.165-.238.405-.442.827-.611 1.266-.344-1.039-.113-2.14-.456-3.178 8.695 2.221 17.542 3.437 26.292 5.333 4.43.96 8.599 2.612 13.09 3.356 4.528.75 8.978 1.897 13.515 2.612 4.14.652 8.106 1.738 12.205 2.57 3.997.813 8.095-.967 11.995-1.868 8.737-2.018 17.47-4.084 26.217-6.042 10.095-2.26 20.596-4.193 30.258-7.962.187 5.024.59 10.038 1.204 15.027-4.267-2.014-10.6-4.641-14.913-1.036-1.727 1.442-2.259 3.932-1.576 6.05.742 2.305 3.017 3.375 4.518 5.11-4.568-1.169-16.354-9.415-18.451-1.08-1.482 5.887 5.745 9.69 9.28 13.004-3.51-.686-8.21-3.488-10.27 1.015-1.781 3.893.364 8.129 2.56 11.34 1.192 1.74 2.53 3.377 3.796 5.062.67.892 1.323 1.796 2.026 2.661.706.868 2.037 1.777 2.53 2.711.996 1.884-1.012 1.999-2.574 2.68-1.95.849-3.625 2.276-5.408 3.413-4.084 2.604-7.653 5.022-12.479 5.854-4.968.857-9.752 1.752-14.655 2.946-4.888 1.191-8.878 2.336-13.874.797-2.278-.702-4.133-1.326-6.55-1.194-2.537.139-4.02.007-6.107-1.563-8.978-6.753-18.724-12.294-27.99-18.67m-16.187-6.779c3.47-1.738 6.963-3.486 10.548-4.98 2.967-1.237 7.472-2.678 10.72-2.136-.916 2.349-2.587 4.276-4.379 6.006-1.585 1.53-3.565 3.838-5.482 4.905-1.742.97-3.768-.566-5.486-1.209-1.887-.706-4.484-1.035-5.92-2.586m.871 8.772c1.73-.718 5.446 1.69 7.019 2.316 3.09 1.231 6.198 2.516 8.922 4.458-3.326 3.839-7.093 7.348-11.569 9.814-2.945 1.622-7.908 3.482-10.685.537-3.49-3.701.705-11.243 3.176-14.415.081.543.164 1.085.246 1.628.788-1.26 1.39-3.715 2.891-4.338m63.482 32.853c-2.158.454-2.89.044-4.315-1.608-.963-1.117-1.909-2.277-2.994-3.28-1.108-1.025-3.844-3.496-.358-2.073 3.177 1.296 5.899 1.944 9.394 1.436 3.997-.58 7.724-2.268 11.664-3.122-2.16 1.888-4.305 3.794-6.47 5.677-2.286 1.989-4.016 2.359-6.921 2.97m.493 15.183c-4.728 3.553-14.245 3.168-11.042-4.649.487-1.187 1.168-2.305 1.955-3.316.263-.338.73-1.038 1.105-1.264 1.045-.634.755-.71 1.76.346.868.91 7.646 8.353 6.222 8.883m-1.402-13.583c.433-.14 2.258-1.197 2.674-.613.42.592-3.157 2.64-2.674.613m34.417 54.186c-1.063 2.54-9.57 6.217-7.985 1.097.701-2.268 1.363-3.985 4.011-4.158 1.529-.099 4.91.824 3.974 3.06m15.26-34.42c1.4-2.037 6.025-4.79 8-1.753.95 1.463-1.358 2.212-2.754 1.836-.75-.202-1.363-.65-2.178-.683-1.047-.043-2.071.778-3.068.6m3.712 2.021c-.952.963-6.695 5.79-7.626 5.045 1.876-2.678 4.03-5.668 7.626-5.045m-9.38 48.84c-1.994.113-.998-2.888-.805-4.088.482.836 3.021 3.963.805 4.089m5.068-5.38c-.645-1.147-2.384-2.853-1.99-4.328.3-1.128 3.013-2.644 4.15-1.997 1.508.86-.68 6.515-2.16 6.325m47.323-12.022c-.853 2.935-1.737 2.178-4.412 2.747-2.684.57-4.54 2.846-6.902 4.066.82-1.732 1.33-3.844 2.704-5.25.317-.325 2.265-.966 1.155-1.718-.97-.657-2.364 1.476-2.78 2.058-2.047 2.861-3.479 6.356-4.66 9.648-.582 1.617-1.047 3.265-1.322 4.963-.245 1.513.02 3.096-.23 4.57-.403 2.374-3.632 2.386-5.573 2.999-1.758.553-3.508 1.154-5.333 1.453-1.581.259-3.223-.213-4.756.098-1.66.337-2.405 1.32-4.292 1.098-1.538-.18-2.978-.887-4.537-.958-1.459-.065-2.914.439-4.364.028-1.464-.414-1.393-.574-1.06-2.01.207.387.416.775.625 1.162.583-.457.986-1.85 1.344-2.504.554-1.013 1.006-1.363.8-2.625-.302-1.864-1.985-3.19-2.366-4.962-.398-1.85.971-3.362 1.78-4.906 1.107-2.114 1.092-3.681.165-5.867l2.098.554c-.959-2.078-4.21-1.236-5.84-.62-.818.309-2.117 1.524-2.998 1.493-1.211-.042-1.843-1.632-2.363-2.508-1.506-2.534-3.226-5.036-5.008-7.388-.49-.647-1.132-1.063-.963-1.8.144-.626 1.549-1.513 2.005-1.899 1.709-1.443 3.884-2.243 5.49-3.762 2.425-2.295 5.223-3.94 7.703-6.19 2.584-2.344 5.247-4.497 7.94-6.712 2.727-2.244 5.09-4.887 7.797-7.154.702 1.27 2.06 5.816 3.615 6.168 1.813.41 1.759-1.732 1.669-3.02-.129-1.837-1.15-3.621-1.264-5.374-.122-1.874 1.684-2.712 3.048-3.797 2.105-1.675 6.765-5.49 4.26-8.63-2.158-2.705-9.174 2.48-11.108 4.04-1.644 1.325-2.914 2.524-4.764 3.57-1.302.734-3.485 3.56-5.027 3.298-1.835-.31-2.552-2.31-4.796-2.245-2.193.064-4.056 1.642-5.417 3.226-3.074 3.58-4.131 8.37-6.933 12.103-1.381 1.84-3.173 3.36-4.672 5.1-1.645 1.911-1.995 4.113-3.617 5.983-4.644-6.178-9.703-12.027-14.6-18.003-2.445-2.983-4.84-6.002-7.233-9.028-.896-1.134-1.908-2.198-2.73-3.389-1.124-1.631-.922-2.941-1.363-4.76-.196-.806-1.113-1.772-.867-2.543.33-1.035 2.648-1.848 3.484-2.272 3.413-1.73 6.51-3.893 9.693-6.007 5.894-3.914 11.857-7.585 18.125-10.929-.108 1.44-1.046 2.934-.416 4.379.294-.832.759-4.535 1.87-4.695-.213.03-.037 4.75.134 5.424.514 2.01 2.002 3.386 4.132 3.372 4.056-.026 7.692-4.432 9.943-7.351 1.524-1.977 2.988-4.275 3.525-6.749.483-2.22-.048-3.765 2.264-4.893 4.743-2.314 9.525-4.199 14.598-5.426-.228 2.184-.861 4.871 1.126 6.442 2.193 1.733 5.063.188 7.128-.958 2.045-1.136 5.2-4.256 7.602-3.35 2.363.892 4.008 3.851 5.33 5.817 1.166 1.732 2.435 2.981 1.085 4.912-1.513 2.164-2.498 4.276-3.71 6.626-.466.904-.91 1.493-.581 2.419.106.3 1.321 2.089 1.651 2.345 2.105 1.636 4.947-1.475 6.45-2.657.53 5.087.648 10.15.862 15.252.156 3.737 1.605 7.416-1.466 10.147-3.07 2.73-5.632 5.534-7.503 9.232-1 1.975-1.895 4.002-2.977 5.937-.722 1.292-2.245 3.187-1.313 4.708.984-.932 1.277-2.35 2.096-3.401.492 2.182.986 4.602 3.296 5.527 2.66 1.064 5.302-.777 7.656-1.802-.844 5.833-2.49 11.5-4.132 17.148m-2.718 6.704c-1.824 3.894-3.473 8.59-6.842 11.458-.74.63-3.884 3.088-5.08 2.676-1.015-.35-.457-2.399-.28-3.277.898-4.457 2.451-7.261 6.07-10.104 1.498-1.177 3.42-2.682 5.352-2.972 2.08-.313 1.48.722.78 2.219m51.468 92.444c-4.73-6.425-11.417-11.418-17.736-16.244-2.862-2.186-6.016-3.826-8.908-6.013-3.27-2.472-6.59-4.857-10.252-6.72-6.943-3.533-14.517-5.996-21.07-10.174-3.195-2.038-6.69-4.007-9.695-6.294-1.32-1.005-2.485-2.29-3.678-3.441-1.108-1.07-3.486-2.622-3.927-4.187 1.844-.301 2.892-2.088 4.538-2.27.542-.06 3.939.837 3.474-.809 1.232-.03 1.376-.049 2.408-.318.428-.112.935.063 1.367-.09.662-.233 1.112-.907 1.78-1.165.475-.184 2.239.021 2.506-.207.73-.623-.046-.568-.481-1.346 1.418-.036 2.393.68 3.815-.081.433-.232.8-.766 1.22-1.043.743-.491 1.012.27 1.522-.75.477 1.408.464 1.018 1.614.605 1.145-.413 1.972-.71 3.277-.813 3.115-.247 6.243.131 9.344-.09 1.135-.081 2.104-.338 3.232-.19.992.13.693.82 1.519-.11.191-.215-.429-.806-.131-1.116.13-.137.558-.04.72-.11 1.45-.633 1.456.25 1.713 1.4.851-.198 1.718-.378 2.457-.877-.373-.332-.997-.7-.637-1.307 1.227.464 2.028.25 1.415 1.594 1.234.407 1.465-.123 2.574-.24.655-.068 1.57.338 2.116-.184.597-.571-.344-1.191.751-1.682.225.114.391.286.5.516.592.179.486.411-.319.698 2.155 1.115 1.648-.132 2.553-1.45.21-.304 1.145-1.249 1.571-.792.647.69-.673.91-.39 1.599.49 1.192 2.202-.336 2.727-.94.398-.456.56-1.331.989-1.672.595-.474 1.45.258 2.196.127 3.404-.596 6.619-5.167 4.055-8.226-.69-.822-1.273-.66-2.094-1.178-.812-.513-1.267-1.4-1.919-2.133-1.487-1.673-3.309-2.926-5.388-3.726-4.824-1.859-10.021-3.215-15.087-4.212-2.346-.462-4.843-1.168-7.245-1.163-1.415.002-3.546 1.101-4.869.575-2.571-1.024 1.204-6.263 1.827-7.955 1.83-4.972 3.211-10.272 4.117-15.492.177-1.021.11-2.344.478-3.317.422-1.12.513-.961 1.418-1.052 1.635-.165 3.424.691 5.126.395 1.888-.328 3.927-.175 5.833-.758.875-.268 1.687-.56 2.264-1.297.182-.232-.02-.433.094-.595.036-.052.687-.753.708-.793-.006-.363.025-.724.095-1.08.66.547.335 1.695 1.447 1.722.2-1.224.201-1.471 1.006-2.16-.062.053.606-.513.52-.453.04-.218.12-.422.24-.61.376-.181.774-.278 1.192-.289.87-.893.508-1.369.508-2.571l2.106 1.092c.17-3.561 2.34-5.511 3.784-8.398.614-1.23 1.24-2.19 1.387-3.674.085-.856-.136-1.61.219-2.418.322-.731 1.042-1.126 1.343-1.923.592-1.569.15-3.571.183-5.2.045-2.26.27-4.511.344-6.77.146-4.432-.3-8.988-.965-13.37-.318-2.095-.849-4.129-1.266-6.203-.343-1.704-1.165-3.303-1.458-4.888-.122-.66.066-1.25-.133-1.98-.262-.957-.7-1.899-1.026-2.84-.761-2.197-1.514-4.391-2.37-6.555-1.658-4.192-3.6-8.259-5.445-12.37-1.774-3.955-3.244-8.032-5.543-11.724-2.264-3.637-4.701-7.213-7.197-10.694-2.599-3.625-5.885-6.74-8.405-10.399-4.733-6.87-11.334-12.53-18.24-17.205-14.25-9.646-29.65-19.277-46.739-22.585-2.575-.498-5.183-.844-7.808-.908-1.628-.04-4.327.746-5.869.195-1.727-.616-1.569-2.553-2-4.073-.557-1.953-1.811-3.233-3.235-4.613-1.499-1.454-2.86-3.152-4.729-4.14-1.895-1.001-4.13-1.376-6.228-1.678-1.875-.271-4.675-.018-6.387-.834-1.56-.743-.79-1.517.67-.88.108-.644.194-1.059.607-1.556.207-.25 1.186-.6 1.21-.833.028-.273-.794-1.05-.911-1.403-.253-.758-.109-1.807.19-2.519 1.473 1.307 1.9 1.886 3.543.637.695-.528.907-.76 1.711-1.026.218-.073.707.15.898.025.726-.477.058-.365.403-.93-.087.143.523-1.358.494-1.044.074-.8.311-.554-.172-1.536-.947-1.921-3.357-2-2.128-4.192.483-.863.908-.777 1.045-2.028.072-.672-.018-1.443-.021-2.128-.006-1.399.257-2.378-1.055-3.09-1.262-.686-2.426.066-2.938-1.633-.537-1.783.004-4.07-1.93-5.29-1.414-.892-3.455-.13-5.016-.566-1.565-.437-3.004-2.036-4.593-.808-1.128.873-1.727 3.018-3.854 1.858-.96-.523-1.488-2.28-2.093-3.266-.964-1.57-1.737-2.137-3.221-.608-.915.944-2.843 3.24-2.961 4.546-.13 1.441 1.13 2.044-.451 2.897-1.573.848-2.456.226-3.732 1.948-1.267 1.709-.287 2.653-1.754 4.287-1.833 2.044-2.81 2.926-2.784 5.679.018 1.888-1.653 3.52-.678 5.31 1.092 2.009 4.28 2.844 6.213 3.66-.645 1.191-1.53 1.955-.777 3.18.682 1.11 2.61 1.34 3.806 1.139.804-.135.833-.014 1.466-.578.415-.37-.154-.832.7-1.036.908-.22 2.36 1.56 2.95 2.004-1.319 1.71-4.94 2.029-6.857 2.895-1.168.529-2.24 1.31-3.43 1.783-1.079.428-2.392.329-3.37.992-1.689 1.145-2.392 3.982-3.427 5.65-1.171 1.887-2.308 2.764-4.556 3.156-2.805.489-5.064.685-7.68 1.905-3.194 1.49-6.343 3.063-9.48 4.669-5.06 2.59-9.761 5.249-14.46 8.382-4.916 3.278-9.698 6.7-14.441 10.125-4.692 3.387-8.631 7.554-12.707 11.651-3.294 3.312-6.185 6.886-9.467 10.196-3.874 3.91-6.723 8.843-10.316 12.99-1.965 2.269-3.845 4.5-5.079 7.172-1 2.167-2.737 4.292-3.897 6.565-1.483 2.906-2.886 5.766-4.55 8.575-.683 1.153-1.495 2.143-2.216 3.243-.923 1.41-.869 2.771-1.117 4.396l-.778-1.189c-.47 1.026-1.039 2.035-1.446 3.085-.26.67-.22 1.62-.48 2.207-.328.736-.727.638-1.135 1.25-.436.656-.577 1.537-1.037 2.24-1.989 3.038-2.754 6.893-3.776 10.36-1.371 4.65-1.155 9.996-1.08 14.791.079 5.065.356 10.13 1.119 15.142.69 4.54 2.167 8.893 4.48 12.873 2.014 3.467 4.793 5.488 8.351 7.264 1.634.816 3.151.564 4.866.694 1.88.143 3.16.652 5.149.204.953-.215 1.405-.909 2.163-1.14.469-.143.721.09 1.171.036.645-.078 1.984-.393 2.683-.317 2.173.237 1.808 3.518 2.022 5.193.33 2.582.57 5.19 1.014 7.755.934 5.394 2.949 10.433 4.14 15.734-5.52.673-10.255 1.701-15.428 3.788-5.19 2.092-10.438 2.802-15.9 3.843-5.11.973-10.025 2.792-14.115 6.086-1.917 1.544-3.908 3.35-2.5 5.893.9 1.626 2.522 2.039 3.923 2.984.283-.358-.535-1.116-.685-1.326 1.177.242 1.141.79 2.001 1.268.752.418 1.367.403 2.19.698 2.009.72 2.996 2.519 4.981 3.024.625.159 1.442.538 2.081.646.767.13 1.342-.206 2.12-.064.42.276.873.474 1.361.592.32-.148.636-.305.947-.47 1.118.116 1.808.818 2.716 1.395.06-.727-.027-1.482.662-1.956.268.707-.166 1.154.568 1.64.93.617 2.15-.153 2.983-.542.235 2.348 5.68 2.21 7.405 2.176 2.39-.046 4.777-.993 7.188-.464 1.23.269 2.543.55 3.767.9 1.475.42 3.257.797 4.708 1.327.577.211 1.284.888 1.899.842.489-.037.62-.757 1.189-.736.644.023.86.74 1.418.956.834.322 1.602-.291 2.395.018.285.111.671.589 1.036.744.554.236 1.65.24 2.266.353.874.162 1.656.053 2.405.106.603.044.59.449.879.475.331.03.908-1.108 1.353-1.274.649-.243 1.825.335 2.486.437-4.79 6.483-10.564 12.213-16.823 17.23-6.752 5.413-13.666 10.818-20.906 15.565-6.574 4.31-12.937 8.038-18.034 14.123-4.298 5.13-11.139 10.62-10.084 18.057 1.053 7.43 9.132 10.454 15.606 11.872 8.142 1.784 16.523 1.066 24.687 2.07 3.482.427 7.35.199 10.855-.166 4.139-.43 7.687-3.128 11.245-5.079 6.401-3.509 11.874-8.203 18.179-11.822 7.893-4.53 15.705-9.331 24.359-12.366 4.026-1.412 8.171-3.023 11.419-5.926.483-.432.843-1.085 1.39-1.44.928-.606 1.177.008 1.715-.176.415-.14.816-.588 1.175-.722.908-.34 1.313-.2 2.33-.2-.873-.502-1.671-1.797-.766-2.853 1.551-1.808 1.818 1.081 2.401 1.75.494-.633.305-1.197.178-1.917l1.253.825c-.288-1.394-.014-2.678.725-3.892.682-1.12.85-.962 1.038-2.513 2.118 1.93 2.532-2.756 2.723-4.465.185-1.657.002-2.846 1.093-4.295 1.172-1.556 2.953-2.539 4.44-3.747 2.349-1.91 4.933-4.322 8.182-2.49 2.564 1.446 3.96 4.99 6.365 6.812 1.46 1.105 3 1.216 3.93 2.93.752 1.385.996 3.042 1.707 4.465 1.72 3.447 4.196 7.392 7.02 10.036 2.63 2.461 6.006 2.449 9.083 3.975 3.046 1.512 6.211 3.15 9.436 4.244 3.521 1.197 7.319 1.705 10.747 3.155 1.764.746 3.341 1.868 5.12 2.582 1.919.77 3.94 1.312 5.885 2.017 7.704 2.795 15.243 6.221 23.336 7.77 3.59.687 6.913 2.553 10.528 2.946 1.551.169 2.816.382 4.334.77 2.381.607 1.877.93 2.754 2.913 1.443 3.264 4.967 1.331 7.683 1.413 4.348.13 8.63-.571 12.971-.605 7.592-.058 14.903-.912 22.247-3.401 7.373-2.5 15.767-8.521 9.64-16.842M210.125 65.412c.104.103.348.166 0 0" transform="translate(-1222 -192) translate(0 -5) translate(1222 197) translate(0 52.03)"/>
                        <path d="M76.396 204.425c1.649-1.669 8.664-1.332 9.195 1.653.59 3.332-5.678 8.365-7.972 9.776-2.953 1.816-6.556 2.156-6.033-2.403.396-3.444 2.462-6.65 4.81-9.026m5.793-3.435c.214.923-1.362.609-1.797.39-.204-.42 1.583-1.317 1.797-.39m-12.098 6.11c1.4.125 3.003-2.116 4.059-2.88.466.72-2.61 4.68-2.95 5.583-.845 2.257-1.315 5.109-.163 7.36 3.369 6.58 11.99-2.816 14.146-6.098 1.508-2.295 2.553-5.141.422-7.39-.759-.801-2.012-1.024-2.717-1.785-.928-1.002-.197-2.294-2.062-2.076-1.287.151-2.833 1.31-4.084 1.73-1.508.506-2.863 1.03-4.18 1.966-.296.211-4.2 3.435-2.471 3.59M168.99 209.308c-.88 4.52-5.365 9.157-10.084 9.337-4.7.18-6.222-4.738-5.392-8.657.707-3.343 3.6-9.15 7.728-8.51 3.245.502 8.501 3.955 7.748 7.83m-2.993-7.555c-2.98-2.303-7.097-3.368-10.551-1.54-1.133.598-5.653 3.24-4.277 5.029 1.854-1.435 3.456-3.427 5.866-3.905-.406 1.866-2.72 3.544-3.536 5.361-.953 2.123-1.475 4.552-1.319 6.885.278 4.152 3.063 7.378 7.374 6.807 3.946-.523 7.396-3.544 9.28-6.94 2.513-4.535 1.097-8.657-2.837-11.697M138.324 219.583c-2.122 3.138-5.357 6.089-9.098 7.058-4.842 1.254-3.482-2.743-2.035-5.61 1.28-2.536 3.475-6.898 6.818-6.875 1.134.008 3.247.555 4.241 1.161 1.96 1.195 1.19 2.615.074 4.266m-4.52-6.895c.762-.847 4.133-4.478 4.585-1.647.968-1.121.204-2.052-1.035-2.17-1.495-.143-3.13 1.52-4.209 2.346-2.22 1.7-3.93 3.44-5.402 5.823-1.622 2.627-5.76 8.565-2.14 11.172 3.915 2.817 9.611-2.386 12.062-5.07 1.567-1.717 3.643-4.237 3.047-6.755-.732-3.092-4.333-3.416-6.908-3.699M117.105 162.127c-2.19 2.496-6.638 6.132-10.304 5.703-3.344-.39-2.038-4.138-.855-5.952 1.777-2.725 4.159-5.284 7.6-5.433 1.485-.065 3.41-.035 4.56 1.089 1.571 1.534.156 3.275-1 4.593m-.234-6.933c-2.565-.885-3.573-1.222-6.066.185-2.002 1.13-3.778 2.727-5.152 4.541-2.056 2.715-4.13 8.821 1.15 9.585 5.791.838 19.568-11.03 10.068-14.31M124.766 170.774c-1.666 1.7-3.746 3.087-6.12 3.56 1.005-2.238 3.247-7.127 5.906-7.809 1.225-.314 2.621.098 2.52 1.492-.072 1.007-1.649 2.086-2.306 2.757m2.145-5.915c-1.38-.69-.945-1.162-2.55-.62-1.264.426-2.86 1.166-3.913 2.02-.574.465-2.363 2.115-2.145 2.955.397 1.526 1.732-.813 2.082-1.262.602.489-2.472 4.882-2.655 5.605-.682 2.692 1.434 2.977 3.508 2.096 2.797-1.187 11.079-8.09 5.673-10.794M167.916 237.304c.207-1.784.5-3.671 2.14-4.674 1.478-.903 3.009-.772 3.228 1.08.203 1.721-1.485 4.778-2.85 5.716-1.902 1.307-2.269-.322-2.518-2.122m2.443 4.062c3.904-2.282 6.365-12.744-.832-9.811-4.09 1.666-2.585 11.808.832 9.81M137.018 197.98c.615-1.26 1.32-1.677 2.568-2.229-.833.785-1.683 1.51-2.568 2.23m.9-3.106c-.884.886-2.91 2.237-2.627 3.76.26 1.388 1.322 1.308 2.285.875 2.021-.907 3.146-4.878 5.26-5.25-2.345-1.484-2.892-1.415-4.918.615M138.229 116.003c.112 4.229.211 8.458.305 12.687.033 1.487-.323 3.606.124 5.03.197.627 1.98 3.345 2.614 3.521 2.214.616 1.423-4.928 1.438-6.293.054-4.605-.014-9.216-.032-13.822-.01-2.373.66-22.274-2.423-22.177-.531.017-1.84 2.293-2.037 2.749-.62 1.432-.392 3.556-.377 5.083.042 4.405.27 8.817.388 13.222M156.9 128.331c.173 1.17.082 3.12 1.4 3.726 1.147.527 1.587-.1 2.016-1.08.986-2.254.63-5.7.612-8.03-.036-4.62-.557-9.22-.917-13.82-.158-2.02.17-4.048-.083-6.16-.11-.927-.221-4.657-1.942-4.483-1.556.156-1.416 4.065-1.5 5.073-.706 8.383-.829 16.405.414 24.774M230.346 224.608c-.66 3.367-11.42 15.093-14.129 8.535-1.607-3.89 1.877-8.127 4.594-10.379 1.682-1.394 3.783-2.762 6.075-2.34 1.945.36 3.879 2.045 3.46 4.184m-5.556-6.04c-.76.18-7.113 4.635-7.17 4.576-.553-.553 3.454-6.517 3.866-7.039 3.397-4.298 5.652-1.043 7.776 2.335-.452-2.018-1.697-4.947-3.777-5.8-2.625-1.078-4.674 1.581-5.937 3.493-1.786 2.702-2.77 5.636-3.763 8.685-.473 1.454-1.012 2.773-1.813 4.084-.79 1.294-2.174 2.72-1.97 4.357 1.124-.624 1.721-1.846 2.43-2.852.79.32.518 2.835.679 3.476.403 1.61 1.504 2.869 3.207 3.146 3.175.516 6.6-2.417 8.723-4.41 2.237-2.098 4.644-4.975 4.625-8.205-.02-3.375-3.344-6.68-6.876-5.846M233.395 164.463c-1.8 2.753-4.96 6.052-8.304 6.692-2.455.469-4.074-1.348-3.088-3.8.833-2.072 3.67-3.381 5.53-4.293 1.476-.724 8.355-2.408 5.862 1.401m-1.325-4.502c-3.689-.14-6.664 2.524-9.415 4.65.621-2.442 2.026-5.098 4.005-6.688 2.693-2.163 5.246-.82 8.081.262-.7-2.204-3.839-2.997-5.839-2.686-2.529.394-4.347 2.55-5.626 4.636-1.525 2.488-2.047 5.42-3.842 7.754-.822 1.068-5.912 5.065-4.76 6.699l5.704-6.047c.493 2.382 1.037 5.095 4.082 4.863 2.432-.185 5.206-2.25 6.984-3.828 2.297-2.038 6.817-9.381.626-9.615M180.393 183.464c-1.562.718-5.002 1.693-5.876-.463-1.214-2.994 2.692-8.247 4.55-10.242 1.144-1.227 1.92-1.863 3.514-1.068 1.273.634 3.143 2.437 3.632 3.823 1.048 2.975-3.375 6.827-5.82 7.95m3.586-14.381c1.272.286 1.428 1.9-.163 1.28-1.192-.464-1.47-1.648.163-1.28m1.597 2.273c-.475-1.448.492-3.718-1.848-3.823-1.326-.059-3.756 1.287-4.913 1.835-1.605.758-3.115 1.916-3.954 3.547-.776 1.51-.221 1.908.962.654.144.099-2.677 7.364-2.7 8.092-.111 3.327 2.247 5.518 5.559 4.928 3.044-.542 5.787-3.028 7.462-5.537.847-1.27 1.543-2.724 1.607-4.28.098-2.385-1.495-3.344-2.175-5.416M200.177 170.135c-1.284-2.47 1.691-6.626 4.356-5.41 5.547 2.532-2.671 8.649-4.356 5.41zm4.983-3.224c-.595.024-4.359 1.476-3.805 2.46.76 1.35 3.508-1.917 3.805-2.46zM23.19 162.346c-.15-1.052-2.51.475-2.497 1.153.39-.78 2.807 1.04 2.497-1.153M152.327 82.85c3.006-.22-.824-15.366-3.015-14.027-2.375 1.452.256 14.23 3.015 14.027M157.94 75.778c2.817.403 2.37-6.056.855-7.212-2.796-2.133-4.273 6.723-.854 7.212" transform="translate(-1222 -192) translate(0 -5) translate(1222 197) translate(0 52.03)"/>
                    </g>
                    <path stroke="#000" stroke-width="2.52" d="M245.912 11.013c-4.277 8.737-4.797 19.234-.532 28.814 3.822 8.583 10.762 14.805 18.892 17.925 7.077 2.715 15.056 3.081 22.666.61l.013-.006-.157.172c-2.654 2.816-5.872 5.184-9.581 6.917l-.533.244c-7.95 3.54-16.582 3.522-24.11.633-7.529-2.889-13.955-8.65-17.493-16.597-3.45-7.748-3.519-16.145-.841-23.537 2.182-6.025 6.189-11.382 11.676-15.175z" transform="translate(-1222 -192) translate(0 -5) translate(1222 197)"/>
                </g>
            </g>
        </g>
    </g>
</svg>
