<svg xmlns="http://www.w3.org/2000/svg" width="551" height="418" viewBox="0 0 551 418">
    <g fill="none" fill-rule="evenodd">
        <g fill-rule="nonzero">
            <g>
                <g>
                    <g>
                        <path fill="#E76C67" d="M352.282 153.304c-4.528 8.846-9.312 17.457-14.142 26.142-2.558 4.597-10.805 23.613-12.935 24.34-2.294.782-16.344-7.474-20.377-9.09-7.165-2.875-13.974-5.596-21.46-7.368-8.38-1.985-16.829-3.448-25.523-2.71-3.807.324-10.11 1.243-6.326-4.101 2.76-3.898 5.431-7.487 9.178-10.303 2.728-2.05 6.725-5.809 9.918-7.178 3.35-1.437 8.291-1.119 11.892-1.034 3.892.092 22.444 5.876 23.464-.152 1.892 1.72 2.994 1.054 5.162 1.895 2.444.947 3.968 2.785 6.395 3.895 1.574.72 4.476 3.569 6.226 3.586 2.327.023 2.953-1.902 4.624-3.323 3.744-3.185 8.728-5.28 12.79-8.047 3.576-2.437 6.982-4.978 11.114-6.552zM311.525 83.38c-.318 4.038.773 7.79.746 11.946-.01 1.813-.093 3.625.458 5.372.495 1.566.149 4.38.412 6.02-4.63-1.409-13.23-3.497-17.958-1.598-4.518 1.815-5.087 10.21-5.246 14.293-.109 2.783 1.128 7.07.19 9.735-.436 1.242-.44 1.644-.413 1.755l.004.012c-.09-.045-.452-.045-1.732.878-1.269.914-2.783 1.418-4.037 2.427-2.28 1.838-2.67 3.92-3.795 6.584-1.093 2.587-4.004 4.886-7.254 4.792 2.612-4.73 6.24-9.149 4.158-14.706-1.57-4.194 1.182-9.115 3.347-13.1.717-1.319 8.665-11.428 5.143-12.14-2.286-.464-7.535 10.267-8.54 12.14-2.8-1.892-4.059-4.224-1.903-7.074 1.656-2.188 3.689-4.06 5.3-6.325 2.617-3.678 5.167-8.068 8.275-11.335 5.458-5.736 14.986-9.641 22.845-9.676zm73.352-6.268c3.488 3.339 7.9 6.108 11.27 9.612 2.95 3.067 6.923 8.226 8.325 12.324-7.192 1.385-19.141 5.627-22.005 13.168-11.184-10.26-15.511 8.496-17.73 16.34-6.546-2.83-5.24-12.253-5.154-17.754.067-4.364 2.727-9.53-3.614-9.887-4.74-.266-9.342 1.662-13.616 3.468-5.333 2.253-10.928 5.624-15.235 9.496l-4.489-3.491c7.363-4.13 11.2-12.028 15.51-19.259 1.376-2.305 3.212-4.869 4.214-7.36.694-1.724 1.182-5.202 1.942-6.734 1.196-2.409 12.878-3.072 15.972-3.693 8.17-1.638 17.934-2.62 24.61 3.77z" transform="translate(-1047 -4169) translate(0 -5) translate(0 3944.852) translate(1047 230)"/>
                        <g fill="#000">
                            <path d="M383.015 130.64c3.018-.154 6.022.52 9.04.226l-7.86-6.84c-1.157 2.031-1.242 4.341-1.18 6.614zm-71.592-46.872c-7.81.035-17.338 3.955-22.764 9.68-2.875 3.034-5.25 7.108-7.682 10.517-1.63 2.287-3.222 4.494-5.202 6.504-2.886 2.93-2.06 3.599 1.192 5.805 1.03-1.928 6.487-12.231 8.774-11.768 3.476.705-3.237 11.589-3.97 12.945-2.171 4.011-5.677 9.615-4.102 13.845 2.079 5.585-.935 8.768-3.553 13.527 2.749.08 3.02-.991 3.967-3.334 1.216-3.01 2.544-5.525 5.116-7.606 1.992-1.612 5.251-2.29 6.187-4.236 1.158-2.405.431-7.155.525-9.831.143-4.066.153-13.678 4.637-15.485 4.698-1.893 13.146-.108 17.739 1.294-.574-3.584-2.383-5.924-2.358-9.906.027-4.168 1.175-7.887 1.494-11.95zm-60.003 66.497c4.085-1.292 7.958-2.654 12.162-3.535 4.399-.922 4.693-1.977 7.173-5.746 1.88-2.857 4.16-5.085 3.628-8.584-.342-2.244-1.572-3.338-1.202-5.862.23-1.564.96-3.272 1.488-4.76.647-1.825 1.99-3.895-1.13-3.985-1.724-.05-1.808.858-2.974 2.383-2.151 2.816-4.628 5.374-6.917 8.075-3.977 4.69-8.194 9.681-12.633 14.022-4.887 4.777-9.105 10.538-12.264 16.654-.583 1.129-4.13 7.78-2.617 9.085 1.39 1.198 9.119-1.596 10.528-1.923 6.084-1.41 12.989-1.914 18.736-4.477 2.928-1.306 9.39-2.864 11.703-4.885 2.15-1.878 2.054-6.427.806-9.075-3.492 2.171-28.738 10.361-26.487 2.613zm76.007-37.33c4.076-3.68 8.895-6.631 13.929-8.818 4.503-1.956 10.096-4.137 15.105-3.797 6.241.422 3.633 5.445 3.61 9.723-.029 5.676-2.518 13.852 4.265 16.797 2.214-7.86 6.88-26.444 18.061-16.145 2.857-7.557 13.048-10.115 20.224-11.502-1.301-3.818-5.252-7.274-7.99-10.14-3.426-3.585-6.13-7.786-9.562-11.303-6.78-6.945-19.061-4.715-27.644-2.984-2.865.578-11.171 1.303-12.559 3.406-.87 1.318-.384 4.54-1.03 6.151-.888 2.222-2.407 4.28-3.626 6.332-4.446 7.486-8.968 15.02-16.577 19.307l3.794 2.973zm24.88 40.33c-4.026 1.543-6.987 4.123-10.557 6.296-4.33 2.635-9.405 5.103-13.29 8.358-1.422 1.19-2.22 3.246-4.183 3.38-1.707.116-4.307-1.865-5.82-2.558-2.539-1.164-4.964-2.928-7.514-3.966-2.097-.853-3.025-.678-4.839-2.337-1.017 6.05-19.526.395-23.409.303-3.592-.085-8.52.34-11.863 1.782-3.186 1.375-5.676 4.4-8.403 6.461-3.737 2.827-7.304 5.685-10.056 9.598-3.776 5.364 1.92 3.846 5.719 3.522 8.67-.74 17.104 1.323 25.463 3.314 7.471 1.78 14.85 3.915 22.002 6.8 4.022 1.624 8.256 3.116 12.039 5.226 1.994 1.113 5.229 3.836 7.517 3.051 2.099-.72 4.19-6.73 5.463-9.132 2.47-4.66 5.07-9.242 7.621-13.857 4.82-8.718 9.593-17.362 14.11-26.242zM302.773 268.64c2.48-1.424 6.524-1.04 9.267-1.637 3.1-.674 6.217-1.772 9.173-2.917 2.993-1.159 5.821-2.345 8.556-3.795 1.251-.663 2.918-1.317 4.074-2.237.932-.742 1.271-2.12 2.13-2.792 2.24-1.756 2.9-.655 3.2-4.042.326-3.68-1.74-5.763-4.312-8.516-2.302-2.464-5.293-4.594-8.186-6.328-1.28-.766-2.647-1.629-3.953-2.36-1.976-1.109-4.624-2.951-5.66-.573 2.159.55 2.635 3.306.686 4.296-1.07.544-2.69-.254-3.897.324-1.863.892-3.656 3.383-5.25 4.724-5.235 4.403-10.24 6.054-17.092 6.408-14.316.737-29.308-.894-43.348-3.014-3.614-.547-7.221.045-10.869-.085-3.548-.127-7.248-.903-10.737-1.501-6.72-1.154-13.802-2.103-20.417-3.8-8-2.052-16.027-4.707-23.538-8.145-7.205-3.299-15.348-8.749-23.44-9.169 3.453 3.378 8.628 4.68 12.781 6.905 3.395 1.818 8.704 2.985 10.85 5.98 1.396 1.95 2.096 5.531 3.15 7.817 1.167 2.53 2.243 5.1 3.323 7.668 1.085 2.584 2.215 5.169 3.096 7.83.545 1.65.78 5.073 2.068 6.202 2.055 1.801 8.932 2.6 11.701 3.2 5.17 1.12 11.068.97 16.342 1.048 2.18.032 4.376.329 6.458.37 2.925.055 2.646-.45 2.604-2.987-.024-1.524.007-4.294 2.046-3.04 1.39.856.433 4.642.176 5.988 11.64 1.158 23.786 1.74 35.37 1.353 11.394-.381 22.393-1.85 33.648-3.175zm52.57-26.699c2.053-14.737 4.556-29.72 7.358-44.267 2.83-14.7 6.235-29.266 10.064-43.91l-7.587-1.812c-.094 3.085-1.139 5.766-1.584 8.837-.614 4.24-1.79 8.356-2.492 12.581-1.336 8.033-3.812 15.892-5.993 23.724-2.222 7.985-2.965 16.212-5.007 24.237-1.684 6.612-2.544 13.894-3.483 20.691-2.28 16.49-5.53 33.011-8.002 49.509-2.319 15.467-2.551 31.25-2.418 46.861.082 9.532 1.537 19.036 1.461 28.58-.018 2.36.18 4.711.303 7.067.087 1.662-.807 6.269-.05 7.66.48.882 2.541 1.695 3.27 2.919 1.155 1.936 1.398 4.25 3.251 5.716 1.502-6.054.792-14.045.464-20.223-.318-5.953.3-12.106.42-18.15.238-11.858.867-23.542 1.475-35.405.667-13.01 2.564-26.336 4.416-39.248 1.685-11.74 2.81-23.69 4.133-35.367zM300.365 57.123l-2.444-.227c.122 1.715-.24 4.492.97 5.386.916.678 2.772.456 3.884.672 3.642.712 7.864 1.307 11.48.01 1.405-.503.502-1.292 2.437-.964 2.33.396 1.48.764 2.153 2.217.518 1.121.785 3.03 1.373 4.375.788 1.802 2.384 5.025 1.702 7.105-.663 2.022-3.138 2.633-4.19 4.922-.782 1.703-.597 4.177-1.004 6.052-.542 2.501-1.227 4.992-1.53 7.54-.381 3.208-.25 6.973 3.728 7.47 3.693.463 6.333-.723 8.81-3.41 4.729-5.13 10.129-12.371 12.907-18.824.325-.754 1.123-2.012 1.012-2.819-.22-1.596-.316.02-.822-1.09-.484-1.06-1.242-2.02-1.688-3.197-1.605-4.226-2.742-8.656-3.385-13.13-.291-2.025-.39-4.027-.34-6.074.017-.698.437-2.796.187-3.274-.256-.485-1.586-.709-2-1.19-.77-.892-2.09-3.41-2.942-4.077-1.048-.82-3.393-.17-3.818-1.802-.681-2.611 15.433-6.864 7.905-10.348-5.62-2.602-14.242 10.548-16.207.2-.341-1.792.308-4.225-.48-5.867-.869-1.816-3.236-2.494-4.89-3.378-2.11-1.126-4.241-2.284-6.292-3.517-1.406-.846-3.433-3.091-4.93-3.297.59 3.048-.54 6.069-.56 9.11 3.244-.877 5.475-.895 8.676.664 1.524.742 7.267 4.953 4.358 6.979-2.358-1.393-4.88-2.6-7.507-3.419-1.037-.323-2.331-.763-3.433-.785-2.56-.052-2.2.216-3.16 2.144-.926 1.857-.727 6.7-2.76 7.887-2.103 1.226-.481-.49-2.277-.094-1.024.226-2.14.987-3.077 1.417 1.284 1.393 3.877 2.664 4.729 4.212 1.242 2.255.811 6.921 1.006 9.389 1.627-.582 3.34-.606 4.988-1.038 1.55-.406 3.7-2.167 3.861.421.18 2.884-4.381 3.649-6.43 3.649zm21.172 75.924c.127-2.492.266-4.983.543-7.464.187-1.667 1.77-6.5.876-7.964-.974-1.592-4.236-1.693-5.806-2.075-3.01-.733-5.896-1.334-8.955-1.818-2.813-.445-5.464-.539-8.299-.668-3.087-.139-3.852-.958-4.534 2.442-.537 2.673-1.256 5.456-1.356 8.193-.094 2.569.682 4.799-1.866 6.53 5.595 0 12.881-4.977 17.986-.527 7.303 6.364-5.406 8.198-8.757 9.603 2.786 1.352 6.922 2.415 8.233 5.505 1.472 3.463-.664 4.936-3.931 5.213.307 1.335 1.483 2.202 1.834 3.807.513 2.354-1.152 1.574.972 3.395 2.797 2.397 8.555 4 11.985 5.525.804.36 1.617.696 2.439 1.011 1.285 1.143 2.233.926 2.846-.653 1.76-1.113 3.326-3.596 4.887-5.04 3.473-3.214 7.306-6.034 11.433-8.355-1.711-.708-3.757.892-5.399.113-1.327-.63-.827-1.774-1.621-2.632.318-1.118-.018-1.527-1.01-1.227-.495.053-.956-.03-1.382-.25-.83-1.029-1.203-1.365-1.259-2.953-.058-1.684.919-2.279 1.293-3.627 1.218-.83 1.19-1.644-.083-2.443-.523-.855-.809-1.782-.856-2.783-.242-3.715 3.151-5.212 5.74-7.177-4.635-.51-4.458-5.94-1.252-8.314 3.324-2.461 10.361-1.454 14.38-.899.836.115 3.093 1.192 3.938.506.519-.421.153-3.98.177-4.608.054-1.426.4-3.126.173-4.544-.476-2.97.533-1.474-1.607-1.557-5.093-.198-11.578 4.245-16.058 6.339-5.015 2.344-8.238 2.705-8.29 8.517-.05 5.503-1.595 10.987-2.27 16.403-.294 2.365-.504 14.653-4.837 10.118-1.68-1.758-.603-4.463-.478-6.633.17-2.985.069-6.016.171-9.009zM41.381 317.275c2.48.44 6.518-.983 9.222-1.132 4.73-.26 9.6-.71 14.233-1.693 3.625-.77 7.755-1.447 9.71-4.952 1.748-3.134 2.365-7.057 3.307-10.477.5-1.815 1.789-4.448 1.789-6.326 0-2.442-.33-1.96-2.878-3.297-3.226-1.69-6.365-4.047-9.844-5.007-1.052-.205-2.105-.406-3.16-.604-1.363-.79-2.132-.401-2.31 1.165-1.331 1.402-2.111 3.986-3.228 5.625-2.546 3.739-5.569 6.286-9.518 8.442-7.106 3.878-13.728 6.872-21.34 9.407-4.194 1.398-8.062 3.359-12.162 4.9-3.284 1.234-7.818 1.61-10.34 4.357-2.848 3.1 1.528 4.226 3.96 6.322 1.993 1.717 2.032 2.111 4.758 1.278 2.031-.622 3.831-1.81 5.782-2.615 6.68-2.757 14.766-4.591 22.02-5.393zm152.68 49.167l-7.47-1.614c2.448 4.568 7.598 11.25 3.902 16.537-1.382 1.975-3.68 2.538-5.732 3.54-2.485 1.212-4.778 2.766-7.127 4.21-9.684 5.96-19.527 12.001-29.731 17.114 3.194 1.03 8.106 1.743 11.396.845 3.832-1.045 7.379-3.446 11.312-4.495 7.057-1.882 14.485-3.484 21.654-4.45 5.86-.789 20.529.994 19.816-7.812-.676-8.36-5.674-16.337-7.161-24.602-3.65.81-7.131.668-10.86.727zm148.406-133.816c2.838-13.917 4.533-28.07 7.88-41.888 1.67-6.893 2.847-13.88 4.478-20.775.76-3.208 1.333-6.447 2.072-9.649.749-3.24 2.36-6.233 2.729-9.583-2.712.67-3.34 6.876-4.162 9.21-1.508 4.284-3.152 8.4-5.09 12.501-3.08 6.519-6.349 12.807-9.824 19.127-3.663 6.666-7.533 13.076-12.11 19.163-1.504 2-3.545 3.568-4.514 5.761-1.525 3.452-2.166 7.565-3.622 11.157 1.026.52 3.675.65 4.932.898 2.339.46 3.978.87 6.224 1.982 3.958 1.958 7.283 4.278 9.927 7.8.664-1.808.837-3.79 1.08-5.704zM232.16 338.811c-.047-13.403-.238-26.921-.018-40.225.06-3.695.362-7.68.898-11.346.337-2.304 2.318-7.202 1.015-8.307-1.112-.945-6.987-.322-8.428-.356-2.797-.065-5.584-.19-8.385-.4 0 4.968 1.942 10.609 2.844 15.523.842 4.583 1.533 9.192 2.228 13.797 1.502 9.971 1.93 20.08 3.562 30.078 1.478 9.065 3.428 18.093 4.504 27.156.59 4.976 1.784 9.67 2.712 14.642.485 2.594 2.252 13.273 4.477 14.324.47-3.832-1.451-8.458-1.796-12.332-.355-4-.63-8.026-1.279-12.046-.762-4.72-1.147-9.557-1.44-14.335-.178-2.924-.232-5.84-.485-8.76-.183-2.121-.986-5.334-.41-7.413zm69.906-179.231c.093-1.46-3.688-1.4-4.392-3.078-1.428-3.407 1.827-2.794 3.83-3.146-.715-1.895-14.08-1.205-10.966-6.319 2.16-3.548 10.351 1.883 12.54-1.489 1.44-2.215-2.477-2.52-4.03-2.741-2.336-.335-7.841.746-7.66-2.284.228-3.806 10.93-6.434 13.932-7.552-.332-2.607-13.213 1.099-15.077 2.155-4.22 2.392-7.452 6.683-8.07 11.452-.722 5.55 2.094 9.92 7.641 11.281 2.313.568 4.023.631 6.162 1.485 1.409.56 5.966 1.96 6.93.544l-.84-.308zm75.616-34.514c.213-2.37 2.21-6.83-.09-8.388-3.22-2.179-4.553 1.412-5.283 3.568-.892 2.634-4.641 9.08-1.362 10.721.762.381 4.376-.063 5.014-.314 1.776.462 2.349-.202 1.72-1.995v-3.592zm-78.556 191.363c-.202-6.476 2.7-14.262 4.345-20.606 1.864-7.187 2.847-14.517 4.822-21.626-2.198.265-4.415.48-6.586.921-2.962.601-3.015.507-2.802 3.41.317 4.36-.099 8.634-.324 12.992-.451 8.725.648 17.595-.083 26.265.652.166.86-.286.628-1.356zm82.006-169.738c7.116 1.089 13.936 3.343 20.412 6.372 3.57 1.67 7.5 3.463 11.49 4.13 4.431.741 9.13.393 13.657.68 1.595.1 5.789.875 7.345-.063 1.54-.93 1.42-2.503 1.492-4.38.187-4.826-2-9.552-3.966-13.883-1.686-3.715-2.961-6.551-5.578-9.747-3.361-4.105-6.288-8.534-9.435-12.819-2.374-3.229-4.772-6.412-7.19-9.638-1.73-2.31-1.649-3.104-4.257-2.846-2.568.255-5.154 1.772-7.573 2.576-3.59 1.193-7.938 1.848-11.212 3.756-2.117 1.233-2.211 1.46-2.187 3.614.023 2.005.67 4.45 1.87 6.02 2.495 3.256 6.63 4.98 10.177 6.605 2.053.94 3.826 2.272 5.654 3.568 1.968 1.398 5.94 2.221 7.446 3.814 4.386 4.639-3.598 3.721-5.828 3.581-4.814-.302-9.602-.256-14.451-.26-5.294-.003-10.544-.25-15.763-.077-3.056.1-6.563-1.448-8.544-4.03-.958-1.251-1.332-2.433-2.586-3.73-1.643-1.7-3.072-3.49-5.07-4.805-3.271-2.152-9.214-3.369-13.107-2.566 1.394.195 7.95 2.425 5.064 5.228-.351.342-4.57.565-5.486.986-1.654.759-3.74 1.862-4.71 3.465 2.826-.473 13.304-1.02 7.958 4.396-1.312 1.33-5.079 2.657-1.873 4.07.736.326 2.21-.134 3.158.159 1.409.436 2.56 1.601 3.88 2.223 3.745 1.764 8.905 2.853 12.813 2.466 5.403-.535 11.033.429 16.4 1.135zm-143.283 163.21c.184 7.782-.097 15.609.07 23.425.177 8.348 1.248 16.53 1.76 24.793.458 7.407 1.459 14.672 2.272 22.043.468 4.246 1.007 8.306 1.726 12.52.673 3.942.788 7.417-3.93 8.477-9.019 2.028-10.42-10.938-12.163-16.4-2.603-8.153-4.271-16.712-5.56-25.163-2.4-15.74-5.592-31.261-6.838-47.135-.766-9.774-1.879-19.45-2.51-29.215-.123-1.913.365-4.862-1.317-5.714-1.012-.512-3.798-.516-5.074-.887-3.558-1.034-6.84-2.557-10.311-4.137 2.464 12.871 3.277 25.678 5.125 38.662.98 6.89 2.857 14.028 4.483 20.81 1.685 7.026 2.06 14.592 4.003 21.465.856 3.03 1.581 4.265.339 7.374-1.525 3.817-.514 4.73 1.398 8.479 3.516 6.897 6.2 15.036 5.604 22.811-.486 6.35-5.288 9.674-11.236 11.387-7.44 2.143-15.232 1.89-22.717 4.323-6.522 2.12-13.148 3.685-19.48 6.483-2.554 1.128-4.98 2.467-7.816 2.674-3.89.282-6.512-1.973-10.185-2.443-2.296-.293-5.657.802-6.98-1.603-1.048-1.907.138-6.066 1.455-7.6 3.697-4.313 11.101-8.071 16.087-10.616 5.747-2.933 11.307-6.604 16.632-10.389 3.227-2.295 6.518-4.497 9.743-6.796 2.134-1.522 2.944-1.532 2.726-3.949-.173-1.928-1.043-3.798-1.195-5.772-.116-1.512.414-3.573-.301-4.56-.526-.728-2.501-1.242-3.278-1.793-2.84-2.011-3.484-4.5-4.774-7.559-2.929-6.949-6.294-13.703-9.122-20.707-6.073-15.04-9.778-30.855-14.813-46.201-5.143-15.68-9.742-32.14-12.575-48.406-3.79 1.152-7.367 6.252-10.386 8.776-4.078 3.41-8.256 6.708-12.256 10.211-6.555 5.744-13.192 11.33-18.61 18.208-2.609 3.313-4.746 6.878-7.109 10.358-1.364 2.01-2.637 4.287-4.115 6.2-.237.307-.244.937-.5 1.198-.563.575-1.638-.19-1.999.188-2.227 2.327-2.198 8.935-2.892 12.006-.956 4.232-2.03 9.098-5.337 12.014-5.109 4.505-14.53 5.203-20.995 5.437-8.296.3-16.345 2.61-24.216 5.092-3.672 1.157-7.248 2.51-10.933 3.634-2.12.647-4.538 1.937-6.801 1.688-2.73-.298-4.886-2.593-6.885-4.3-3.2-2.728-6.161-5.418-6.06-9.895.117-4.74 2.687-8.317 6.735-10.671 7.825-4.552 16.578-7.469 25.012-10.614 3.233-1.206 6-2.54 9.09-4.164 4.368-2.294 9.395-4.167 13.27-7.196 1.142-.894 5.34-3.632 5.698-5.045.047-.184-1.002-2.34-1.006-2.682-.01-.88.51-1.833.831-2.586 2.018-4.74 5.404-9.306 7.992-13.776 4.74-8.189 9.497-16.42 14.993-24.122 10.958-15.354 23.267-30.388 36.553-43.791 6.477-6.534 12.074-13.946 18.642-20.39 2.602-2.552 5.349-4.63 8.555-6.287 3.575-1.847 7.586-2.209 11.683-2.773 9.928-1.365 18.22 1.57 27.54 4.123 8.811 2.414 17.633 4.45 26.493 6.964 9.731 2.76 19.362 5.409 29.063 8.418 5.183 1.607 10.515 2.594 15.722 4.137 2.508.742 11.988 5.394 14.078 3.866-6.586-3.088-13.332-5.903-20.379-7.766-2.074-.549-3.4.058-3.323-2.322.043-1.299 1.503-3.052 2.029-4.12 1.259-2.56 2.684-5.06 3.916-7.627-4.467 1.267-16.473 5.654-19.84 1.12-3.522-4.747-.581-14.052 1.627-18.7 5.763-12.13 15.565-22.253 25.115-31.397 2.066-1.978 6.52-4.56 7.62-7.077.335-.766-.393-1.891.362-2.886.45-.591 2.253-.996 2.975-1.633 2.626-2.323 4.72-7.21 6.536-10.256 1.9-3.19 3.612-6.643 6-9.504 3.907-4.68 7.94-9.64 14.265-10.733 3.102-.537 6.397-.25 9.37-1.321 3.596-1.295 7.013-3.335 10.643-4.676-.9-1.85-1.63-4.793-3.378-4.994-1.683-.196-4.151 1.25-6.077 1.24-2.812-.016-5.213-.466-7.927-1.001-3.005-.594-3.994-.486-5.09-3.742-1.148-3.411-.859-7.373-.849-10.916.005-1.731.348-3.88.2-5.58-.22-2.56-.719-2.658-2.728-4.287-2.51-2.034-5.603-4.727-2.529-8.261 1.661-1.91 5.075-.425 6.547-2.477 1.498-2.09 1.426-7.342 1.882-9.797-4.62 2.269-2.926-6.214-2.927-8.255 0-2.97-1.992-8.311.875-10.782 1.333-1.148 2.323-.199 3.847-.858 1.738-.752 2.833-2.726 4.683-3.49 3.676-1.522 7.43.31 11.205.007 4.33-.346 8.582-1.015 12.936-.32 2.063.327 2.93 1.11 4.676 1.988 1.678.844 3.381 1.075 5.204 1.618 1.622.483 3.044.728 4.14 2.14.867 1.117.514 2.997 1.389 3.96.863.95 2.57.811 3.599 1.938.987 1.082 1.578 2.87 2.09 4.216.695 1.813.776 2.494 1.997 3.945 1.064 1.267 2.597 2.285 3.485 3.73 2.093 3.405 2.147 8.329 1.478 12.16-.226 1.304-2.119 4.676-1.822 5.786.281 1.056 2.056.778 2.86 1.446.694.578 1.304 3.15 1.852 3.307 1.183.339 2.642-1.995 3.538-2.345 1.557-.609 2.21-1.233 3.072 1.06.64 1.703-.251 4.013-.72 5.638-.597 2.068-1.256 4.558-2.837 6.122-1.86 1.838-3.347.833-5.398 1.823-3.074 1.484-2.167 6.124-5.949 7.45-3.604 1.263-7.575-2.712-10.3-4.539.564 4.436 2.69 8.71 1.67 13.257 8.288-3.245 16.487-7.85 25.52-8.865 4.607-.518 9.26-1.13 13.608.78 5.09 2.237 8.208 7.17 11.654 11.268 6.474 7.704 13.118 15.191 19.332 23.143 5.7 7.294 10.505 15.745 16.78 22.575 6.36 6.926 11.162 18.163 10.465 27.753-.063.866-.734 2.833-.629 3.766.082.715.733 1.622.722 2.198-.035 1.94-.677 3.058-2.528 4.135-3.21 1.867-7.992 2.813-11.619 3.276-4.819.616-10.72.682-15.542.025-4.973-.68-9.343-3.46-13.916-5.141-4.011-1.475-8.04-2.396-12.254-3.337-2.325-.52-4.899-1.956-6.335-.565-1.32 1.278-1.594 7.837-1.9 9.58-3.336 18.903-7.298 37.165-10.808 55.971-3.978 21.316-6.698 42.624-9.464 64.12-2.515 19.542-3.336 39.304-3.899 58.827-.268 9.312-.307 18.525-.25 27.846.032 5.22 2.643 22.641-5.1 23.308-4.551.393-8.191-6.126-9.41-9.68-1.833-5.342-2.787-11.094-3.079-16.705-.59-11.359-1.366-22.726-1.824-34.09-.497-12.31.135-24.849 1.148-37.12 1.02-12.352 3.588-24.525 4.375-36.896-2.363 3.37-3.12 4.003-7.056 5.47-4.12 1.538-8.082 3.355-12.239 4.788-1.414.487-3.62.792-4.78 1.59-2.139 1.472-.734-.198-1.417 2.667-.73 3.061-.867 6.736-1.06 9.881-.911 14.761-5.004 29.418-6.891 44.1-.456 3.546.194 18.595-5.912 13.852-4.703-3.652-4.61-15.125-5.278-20.5-.89-7.163-.395-14.528-.254-21.735.16-8.208.298-16.816 2.258-24.83-3.506-.6-8.384 1.033-11.914 1.308-3.057.238-6.103.39-9.142.556-7.248.398-14.714.715-22.085.573-1.342-.026-10.108-1.252-11.228-.264-.364.321-.475 4.737-.543 5.277-.258 2.029-.608 4.056-.869 6.074-.832 6.45-1.584 13.377-1.345 19.825z" transform="translate(-1047 -4169) translate(0 -5) translate(0 3944.852) translate(1047 230)"/>
                            <g>
                                <path d="M5.662 91.682c5.531 2.16 11.402 2.944 16.98 4.912 4.988 1.76 9.619 4.124 14.53 5.912.287-2.276.44-6.13-.402-8.276-1.19-3.037-4.325-3.112-7.411-4.194-7.512-2.633-15.413-3.188-22.87-6.264 1.277 2.455.706 5.707-.827 7.91m95.488-7.943c-11.947.35-23.364 3.128-35.138 4.846-5.73.835-11.464 1.581-17.199 2.361-2.207.3-6.23-.054-7.833 1.855-1.33 1.582.127 6.979-.463 9.297 2.415.178 6.702-2.076 9.323-2.45 4.08-.579 8.108-1.391 12.232-1.65 6.53-.41 12.947-.76 19.467-1.487 6.63-.738 13.045-2.11 19.727-2.612 3.249-.244 4.556.364 4.747-3.062.075-1.34.26-3.583-.117-4.904.601-1.624.068-2.412-1.6-2.366-1.058-.12-2.106-.062-3.146.172M78.044 72.802c3.23-.302 6.475-.736 9.713-.918.657-.038 3.988.163 4.533-.447.77-.863-.088-4.02-.23-4.997-.48-3.322-1.01-5.253-4.637-5.26-3.06-.008-6.228.639-9.277.937-13.838 1.355-27.606 1.928-41.291 4.501.833 3.545 1.779 7.201.783 10.826 6.565.339 13.772-.924 20.188-2.219 6.558-1.323 13.516-1.98 20.218-2.423M56.142 39.43c-4.944.022-10.17 2.198-15.048 1.713-.073.907 1.488.154 1.92 1.003.92.002 1.241.302.96.902.017.409-.192.649-.628.718-.216.02-.43.038-.645.056-.944.03-1.099.666-.463 1.91-.273 1.538.136 3.494.195 5.039 8.768-1.192 17.285-2.432 26.114-2.964 4.168-.251 8.334-.25 12.497-.593 4.58-.377 9.58.431 14.058-.426 2.394-.458 2.143-.426 1.969-3.537-.107-1.89-.067-4.133-1.607-5.511-2.572-2.302-8.428-.972-11.503-.89-9.262.244-18.68 1.104-27.82 2.58m5.062 44.42c13.244-1.202 26.39-3.834 39.709-3.834-.942-.94-2.993-1.183-4.165-1.696-1.337-.584-2.598-1.83-3.904-2.34-2.621-1.026-5.288.399-7.98 1.014-6.493 1.486-13.156 1.537-19.66 2.994-6.723 1.506-13.535 2.895-20.382 3.66-3.261.365-6.76 1.104-9.982.244-.26-.187-.524-.374-.785-.56-.282-1.199-1.063-1.518-2.345-.96-1.629-.31-3.703.09-5.342.13-.066.655 5.99 2.707 7.145 3.215 2.782 1.224 4.67 2.12 7.64 1.596 6.692-1.18 13.274-2.59 20.05-3.463m-46.59-38.691c.517 2.016 2.69 1.099 4.562 1.32 2.511.298 5.01 1.164 7.442 1.817 4.418 1.186 8.837 2.356 13.236 3.61-.174-1.776.22-5.817-.72-7.392-.984-1.65-5.655-2.374-7.83-2.878-5.482-1.267-11.338-.546-16.908-.28.098 1.267.171 2.533.217 3.803m52.662 12.613c5.202-.44 10.41-.783 15.626-.966 5.964-.209 1.63-1.16 1.503-4.795-7.839 1.25-15.747 1.496-23.561 2.564-6.474.885-14.187 3.197-20.79 1.955-3.115-.585-6.295-.811-9.608-1.142-3.126-.312-6.075-1.767-9.163-2.129-3.466-.406-7.007 1.541-10.455 2.055-1.462.219-1.802 1.209-2.492-.549-.715-1.823 1.334-3.313 2.142-4.403.942-1.274.55.794 1.074-1.195.147-.557-.25-1.957-.324-2.557-.185-1.518-.662-3.165-.736-4.68-.069-1.39-.08-3.514 1.43-4.326.923-.496 1.577.227 2.381.087 6.278-1.091 13.662-1.18 20.028-.128 6.901 1.141 12.842-1.88 19.644-3.104 7.98-1.437 16.044-1.652 24.093-2.26 6.882-.518 19.456-3.21 22.078 5.574.742 2.488 1.824 9.34-.174 11.457-2.62 2.78-8.69 1.893-12.079 2.616.507 1.441 2.016 2.42 1.494 4.137 4.75.224 5.59 4.706 6.334 8.892.77 4.33-.732 6.05 3.41 8.305 5.771 3.142 11.886 6.316 11.772 13.8-.056 3.762-.478 9.437-4.344 11.389-3.783 1.91-9.942 1.587-14.11 2.28-8.073 1.343-16.174 2.919-24.296 3.725-8.649.86-17.44 1.564-26.103 1.948-4.72.21-8.797.922-13.356-.665-4.481-1.56-8.865-2.7-13.49-3.858-4.564-1.142-18.538-2.681-14.466-10.482.651-1.248 2.878-2.24 3.238-3.42.58-1.904-1.38-3.39-1.298-5.11.15-3.148 3.704-3.543 6.158-3.543-4.206-2.628 1.426-5.74 1.393-7.972-.059-3.932-4.953-6.484-5.23-9.78-.673-8.02 24.792.33 28.712 2.066-3.017 4.47-17.013.602-21.182-.076.569 1.493 1.112 2.834 1.277 4.363.133 1.245-.343 2.668.093 3.921.688 1.982.664 1.603 3.1 2.143 1.801.4 3.583.861 5.38 1.284 2.758.65 7.097 2.396 9.83 2.3 2.398-.083 1.925.66 2.364-2 .237-1.43-.167-2.95-.408-4.351-.503-2.936-1.24-5.714 1.326-7.82 2.447-2.01 7.604-2.966 10.604-3.674 6.66-1.572 14.348-1.957 21.181-1.876" transform="translate(-1047 -4169) translate(0 -5) translate(0 3944.852) translate(1047 230) translate(362.364 279.522)"/>
                                <path d="M98.967 7.666c-7.234-1.211-14.583-1.51-21.902-1.143l1.19 5.427c6.857-1.764 13.813-2.798 20.712-4.284zM40.149 21.703c-2.9-.213-.883 1.084-.166 2.98.88 2.332.691 5.278.894 7.732 8.487-3.234 18.362-5.127 27.386-6.215 4.28-.516 8.62-.664 12.924-.885 1.272-.065 5.866.468 6.797-.388.69-.636.206-4.144-.458-4.918-3.612-4.207-17.574-.574-22.625-.198-8.282.619-16.412 2.097-24.752 1.892zm12.055-11.274c7.515.722 14.771.653 22.287 1.778-.57-4.773.111-5.992-5.308-6.245-4.83-.225-9.644-.407-14.45-.405-10.81.006-21.594-.2-32.415-.2v4.85c10.008-1.024 19.857.825 29.886.222zM16.066 28.267c4.742-.02 9.225 1.768 13.968 2.232 2.84.277 1.947.63 3.917 2.053 3.067 2.219 3.95 1.037 3.566-1.978-1.303-10.197-14.225-7.91-21.672-8.477.49 2.431-.635 4.494-2.293 6.17h2.514zM67.33 15.174c-6.822.111-13.652.498-20.426.357-3.033-.064-6.961-.664-9.933-.147-2.177.378-3.998 1.486-6.386 1.898 3.508 1.887 5.286.612 8.973.182 3.684-.428 7.423-.42 11.123-.643 6.075-.368 12.55-1.822 18.535-1.427.11-.842-.519-.915-1.886-.22zM13.222 37.261c-3.13-.007 1.177-3.564 1.742-3.916-3.465 0-4.304-2.077-3.3-5.413.946-3.143 1.646-2.18-.735-4.798-1.791-1.97-2.062-3.422.05-5.625 2.15-2.241 6.502-1.607 8.406-3.457 3.243-3.149-.941-9.42 3.551-11.833C25.973.589 30.868.791 34.221.447 37.46.114 40.815.05 44.078.006c7.11-.098 14.497 1.094 21.577 1.75 2.58.238 5.483 1.28 8.026 1.282 2.593.003 5.31-.575 7.987-.508 3.113.078 6.111-.151 9.321.36 2.46.391 8.202.597 10.082 2.424 6.264 6.088-8.59 8.883-11.146 9.567 2.601 2.848 2.493 6.612 2.1 10.196 1.24 0 3.374-.538 4.015.85.796 1.722-2.15 2.17-2.847 2.371-4.008 1.156-8.698.84-12.829 1.26-8.257.84-16.414 1.324-24.586 2.887-3.982.761-7.94 1.704-11.92 2.446-.687.128-1.378.23-2.072.308-1.065-.09-1.409.577-1.033 2.007-1.105.539-5.223-.805-6.497-1.01-7.29-1.182-13.811-.691-21.034 1.065zM160.431 107.994c-4.702 3.697-9.073 7.186-14.165 10.398 3.6-.112 15.57-5.847 14.165-10.398m-1.837-6.026c-2.566-2.203-5.115-1.978-8.291-2.646-2.926-.615-5.768-1.674-8.687-2.379-2.29-.553-4.558-1.3-6.841-1.823-3.224-.739-3.541.074-6.506 1.762-10.513 5.986-22.277 10.104-33.35 14.963 3.251 2.86 10.565 2.983 14.628 3.895 2.967.665 5.79 1.575 8.632 2.628 2.645.982 6.908 3.24 9.699 3.314 2.355.064 4.27-2.252 6.298-3.5 2.667-1.641 5.323-3.254 8.011-4.855 5.69-3.387 11.009-7.537 16.407-11.359m-47.51 24.248c-1.213-1.166-4.866-1.115-6.388-1.471-2.997-.7-5.95-1.427-8.988-1.953-4.929-.852-12.715-1.233-13.25-7.623-.447-5.31 5.974-6.57 9.73-8.368 5.648-2.707 11.41-5.204 17.201-7.59 5.43-2.237 10.939-4.13 16.467-6.062 1.078-.377 1.954-.325 2.834-1.188.694-.68.48-2.001 1.24-2.712 1.744-1.628 4.005-.772 6.099-.354 4.755.948 9.694 2.192 14.227 3.95 4.712 1.827 8.927 2.209 10.058 7.546 2.41-1.13 4.221-1.294 3.933 2.025-.084.975-.793 2.036-.963 3.041-.25 1.483.188 3.046-.06 4.532-.901 5.405-8.195 9.409-12.715 11.531-5.573 2.617-12.764 6.483-18.986 6.994-6.63.545-13.856-2.057-20.439-2.298" transform="translate(-1047 -4169) translate(0 -5) translate(0 3944.852) translate(1047 230) translate(362.364 279.522)"/>
                            </g>
                            <g>
                                <path d="M4.288 70.17c4.19 1.64 8.636 2.236 12.86 3.731 3.778 1.336 7.286 3.133 11.005 4.491.217-1.729.333-4.657-.304-6.286-.902-2.308-3.276-2.365-5.614-3.187-5.689-2-11.673-2.421-17.32-4.759.967 1.866.535 4.336-.627 6.01m72.32-6.034c-9.048.266-17.695 2.376-26.612 3.68-4.34.635-8.683 1.202-13.026 1.795-1.672.227-4.718-.041-5.933 1.409-1.007 1.202.096 5.301-.35 7.062 1.828.135 5.075-1.577 7.06-1.86 3.091-.44 6.141-1.058 9.264-1.254 4.946-.313 9.806-.578 14.744-1.13 5.021-.56 9.88-1.603 14.941-1.984 2.46-.186 3.45.276 3.595-2.327.057-1.017.196-2.721-.088-3.725.455-1.233.05-1.832-1.212-1.797-.802-.09-1.596-.047-2.383.13m-17.5-8.307c2.447-.23 4.904-.56 7.357-.698.497-.029 3.02.124 3.432-.34.584-.655-.066-3.053-.173-3.796-.364-2.523-.766-3.99-3.512-3.996-2.318-.005-4.718.486-7.026.712-10.48 1.03-20.908 1.465-31.273 3.42.63 2.692 1.347 5.47.593 8.224 4.972.257 10.43-.702 15.29-1.686 4.966-1.005 10.236-1.504 15.312-1.84M42.52 30.476c-3.744.017-7.702 1.67-11.397 1.301-.055.69 1.128.117 1.454.762.698.002.94.23.728.686.013.31-.146.493-.476.545l-.489.043c-.714.023-.832.506-.35 1.45-.207 1.17.103 2.654.148 3.828 6.64-.905 13.09-1.847 19.778-2.251 3.157-.191 6.311-.19 9.464-.45 3.47-.287 7.256.327 10.647-.324 1.813-.348 1.623-.324 1.491-2.687-.08-1.435-.05-3.14-1.217-4.187-1.947-1.749-6.383-.738-8.712-.676-7.014.186-14.148.839-21.069 1.96m3.833 33.744c10.031-.913 19.987-2.913 30.075-2.913-.714-.714-2.267-.898-3.155-1.288-1.012-.444-1.967-1.39-2.957-1.778-1.985-.779-4.004.304-6.043.771-4.918 1.129-9.964 1.167-14.89 2.274-5.092 1.144-10.25 2.2-15.437 2.781-2.47.277-5.12.838-7.56.185l-.595-.426c-.213-.91-.805-1.153-1.776-.73-1.233-.235-2.804.07-4.046.1-.05.498 4.537 2.056 5.412 2.442 2.107.93 3.536 1.611 5.787 1.213 5.068-.897 10.053-1.968 15.185-2.631M11.066 34.828c.392 1.532 2.038.835 3.455 1.004 1.903.225 3.795.883 5.637 1.379 3.346.901 6.693 1.79 10.025 2.742-.132-1.349.166-4.418-.545-5.615-.746-1.254-4.284-1.803-5.93-2.186-4.153-.963-8.588-.415-12.806-.212.074.961.13 1.924.164 2.888m39.885 9.582c3.94-.335 7.883-.595 11.834-.734 4.517-.159 1.234-.882 1.139-3.643-5.937.95-11.927 1.137-17.845 1.948-4.903.673-10.744 2.43-15.746 1.486-2.359-.445-4.767-.617-7.277-.868-2.367-.237-4.6-1.343-6.94-1.617-2.624-.309-5.306 1.17-7.918 1.56-1.107.167-1.364.919-1.887-.416-.542-1.385 1.01-2.517 1.622-3.345.714-.968.417.603.814-.908.111-.423-.19-1.487-.245-1.943-.14-1.153-.502-2.404-.558-3.554-.052-1.057-.061-2.67 1.084-3.287.698-.377 1.194.172 1.803.066 4.754-.829 10.346-.897 15.168-.097 5.227.867 9.726-1.428 14.878-2.358 6.043-1.092 12.15-1.255 18.247-1.717 5.212-.394 14.736-2.438 16.721 4.234.562 1.89 1.382 7.095-.131 8.704-1.985 2.112-6.582 1.438-9.149 1.987.384 1.095 1.527 1.839 1.132 3.143 3.597.17 4.233 3.575 4.797 6.754.583 3.29-.555 4.597 2.582 6.31 4.372 2.386 9.002 4.797 8.917 10.482-.043 2.859-.362 7.17-3.29 8.652-2.865 1.45-7.53 1.206-10.688 1.732-6.114 1.02-12.25 2.218-18.4 2.83-6.55.653-13.21 1.188-19.77 1.48-3.575.16-6.663.7-10.115-.505-3.394-1.185-6.715-2.05-10.217-2.93-3.457-.869-14.04-2.038-10.957-7.964.494-.948 2.18-1.702 2.453-2.598.44-1.446-1.045-2.575-.983-3.882.113-2.39 2.805-2.69 4.664-2.69-3.186-1.998 1.08-4.362 1.055-6.057-.045-2.987-3.751-4.925-3.961-7.43-.51-6.093 18.777.252 21.745 1.57-2.285 3.396-12.885.457-16.042-.058.43 1.134.842 2.154.967 3.314.1.946-.26 2.027.07 2.98.521 1.505.503 1.217 2.348 1.627 1.365.304 2.714.654 4.074.976 2.09.494 5.376 1.82 7.446 1.747 1.816-.063 1.458.501 1.79-1.52.18-1.086-.126-2.24-.309-3.305-.381-2.23-.939-4.34 1.005-5.94 1.853-1.527 5.758-2.253 8.03-2.791 5.045-1.195 10.867-1.487 16.043-1.425" transform="translate(-1047 -4169) translate(0 -5) translate(0 3944.852) translate(1047 230) matrix(-1 0 0 1 551 277.44)"/>
                                <path d="M75.362 5.87c-5.481-.928-11.05-1.156-16.596-.875l.902 4.155c5.195-1.35 10.466-2.142 15.694-3.28zm-44.57 10.747c-2.198-.162-.669.83-.126 2.283.667 1.785.524 4.04.678 5.92 6.431-2.477 13.914-3.926 20.752-4.76 3.243-.394 6.532-.508 9.793-.676.964-.05 4.445.357 5.15-.297.524-.488.157-3.174-.346-3.767-2.737-3.22-13.317-.44-17.145-.15-6.275.473-12.436 1.605-18.756 1.447zm9.135-8.632c5.694.553 11.193.5 16.888 1.362-.432-3.655.084-4.588-4.022-4.782-3.66-.172-7.308-.312-10.95-.31-8.19.004-16.363-.154-24.562-.154v3.714c7.583-.784 15.047.632 22.646.17zM12.543 21.644c3.594-.016 6.99 1.354 10.585 1.708 2.151.213 1.475.482 2.968 1.573 2.324 1.699 2.994.794 2.702-1.515-.988-7.808-10.78-6.057-16.422-6.491.37 1.862-.482 3.441-1.737 4.725h1.904zm38.846-10.025c-5.169.085-10.344.381-15.478.273-2.297-.049-5.274-.508-7.526-.113-1.65.29-3.03 1.138-4.839 1.453 2.658 1.446 4.005.47 6.8.14 2.791-.328 5.624-.322 8.427-.493 4.604-.281 9.51-1.395 14.046-1.092.083-.645-.393-.701-1.43-.168zm-41 16.911c-2.372-.005.89-2.728 1.32-2.999-2.627 0-3.262-1.59-2.502-4.144.717-2.406 1.248-1.67-.556-3.674-1.358-1.508-1.563-2.62.037-4.307 1.63-1.716 4.927-1.23 6.37-2.647 2.457-2.41-.713-7.213 2.691-9.06C20.05.451 23.76.606 26.3.342c2.456-.255 4.997-.304 7.47-.338 5.388-.074 10.985.838 16.35 1.34 1.955.183 4.154.98 6.081.982 1.965.003 4.023-.44 6.052-.389 2.36.06 4.631-.115 7.064.275 1.863.3 6.215.458 7.64 1.857 4.746 4.661-6.51 6.802-8.447 7.325 1.972 2.18 1.89 5.063 1.592 7.807.939 0 2.556-.412 3.042.65.603 1.32-1.63 1.662-2.158 1.816-3.036.886-6.59.643-9.72.965-6.257.643-12.439 1.013-18.63 2.21-3.018.584-6.018 1.305-9.033 1.873-.52.099-1.044.177-1.57.236-.807-.07-1.068.442-.783 1.537-.837.412-3.958-.616-4.923-.774-5.524-.904-10.466-.528-15.939.816z" transform="translate(-1047 -4169) translate(0 -5) translate(0 3944.852) translate(1047 230) matrix(-1 0 0 1 551 277.44)"/>
                            </g>
                            <path d="M389.052 316.07l-5.93.038c1.972-.37 3.95-.375 5.93-.038M273.406 107.083l-1.78 2.963c.202-1.273.655-2.364 1.78-2.963M389.052 344.393c1.189.011 2.376.02 3.558.032-1.19-.01-2.374-.02-3.558-.032M416.333 279.93l-4.152-.224 4.152.225M392.61 316.1l-3.558-.034c1.19-.324 2.377-.313 3.558.034M439.809 147.97l-.1-3.555.1 3.555M238.155 326.928l-.073-2.963.073 2.963M270.44 278.632c.794 0 1.586 0 2.372.003-.794 0-1.583-.002-2.372-.003M376.598 65.791l-2.965.215 2.965-.215M451.323 282.2l-3.558-.023 3.558.023M351.437 355.372c-.03-.792-.06-1.584-.088-2.37l.088 2.37M352.611 325.15l-.064-2.37.064 2.37M332.372 338.78l.086 2.37-.086-2.37M275.185 278.053l1.779-.024-1.78.024M447.172 308.893l1.779-.077-1.78.077M333.55 357.742l.102 2.37-.102-2.37M397.118 353.594l-.12 2.37.12-2.37M328.764.506L326.25.187c.83.192 1.741-.52 2.514.32M292.714 304.41l-.068 2.37.068-2.37M241.738 376.704l-.122-2.37.122 2.37M433.531 310.058l1.78-.037-1.78.037M232.182 166.34l.012 2.37-.012-2.37M219.738 344.113c-.002.791-.005 1.583-.009 2.37.002-.792.006-1.582.01-2.37M367.55 339.372l-.065 2.37c-.325-.812-.288-1.6.064-2.37M256.8 279.226h1.78-1.78M351.995 335.817l-.019-2.37.02 2.37M473.266 406.012l1.78.05-1.78-.05M451.916 330.79l1.186-.02-1.186.02M437.09 332.559l1.186-.003-1.186.003M206.129 336.41l-.071-1.778c.024.593.048 1.186.07 1.777M448.951 335.96c-.515.52-1.178.213-1.78.246l1.78-.246M378.377 317c-.783.37-1.574.421-2.372.026l2.372-.026M429.973 337.308l-2.372-.02 2.372.02M396.762 316.666l-2.372-.216 2.372.216M215.606 313.891l-.047 1.778c.015-.595.03-1.187.047-1.778M351.94 345.89l.092-1.777c-.03.594-.06 1.186-.092 1.778M433.531 311.718l-2.372.199 2.372-.2M238.143 309.743c-.016-.593-.032-1.187-.05-1.777l.05 1.777M337.23 264.115l-.14 1.778.14-1.778M445.393 282.047c-.792.41-1.583.358-2.373-.004.79 0 1.582.003 2.373.004M351.445 364.26l-.105-1.777.105 1.777M351.43 369.001l-.075-1.778.075 1.778M239.292 290.781c.01-.593.017-1.188.025-1.778l-.025 1.778M408.03 385.313l1.186-.033-1.186.033M216.816 390.334l-.096-1.778.096 1.778M345.166 395.358l1.186.025-1.186-.025M431.16 281.686l-2.373-.18 2.372.18M435.31 282.312l-1.779-.246 1.78.246zM345.412 344.705l.1-5.333-.1 5.333M299.173 279.522l.061 4.148-.061-4.148M196.9 366.316l-2.964.037 2.965-.037M278.15 248.435c-.991-.016-1.981-.032-2.965-.046l2.965.046M252.648 271.524c.99 0 1.978-.002 2.966-.003-.989 0-1.977.002-2.966.003M265.696 247.8l-2.372.039 2.372-.04M201.645 366.34l-2.372-.012 2.372.013M308.396 63.631l2.965-.205-2.965.205M321.685 133.156l.11-2.963-.11 2.963M297.721 142.34c-.595 0-1.19 0-1.78.002l1.78-.002M247.311 246.032l-1.78.02 1.78-.02M233.67 270.24c.792.065 1.583.13 2.373.193l-2.372-.192M232.17 300.262l.037-2.37-.038 2.37M300.093 268.676l2.372-.233-2.372.233M354.288 254.634l.14-2.37-.14 2.37M364.737 145.396l2.372-.184c-.791.06-1.581.122-2.372.184M284.08 249.013l-1.779-.017 1.78.017M232.232 344.705c-.03-.593-.06-1.186-.088-1.777l.088 1.777M298.725 314.484c1.296 3.211.568.938.601 1.679-1.104.148-1.305-.412-.601-1.679M244.346 246.074l-1.78-.065 1.78.065M365.57 185.895c.038-.79.076-1.58.112-2.37l-.112 2.37M232.19 338.78c0-.791-.003-1.58-.005-2.37l.006 2.37M232.126 321.002c.04-.593.083-1.186.124-1.777l-.124 1.777M355.461 243.375l.166-1.778-.166 1.778M224.399 322.78c.052.594.106 1.188.159 1.778l-.16-1.778M223.204 318.04l.176 1.777-.176-1.778M341.837 236.857l.133-1.778-.133 1.778M39.147 317.244l2.372-.187-2.372.187M336.6 331.669l-.068 1.777.068-1.777M345.99 333.446l.131-1.777-.132 1.777M342.403 234.486l.188-1.777-.188 1.777M43.892 316.674l2.372-.232-2.372.232M295.349 248.405c-.397.005-.795.01-1.186.013l1.186-.013M232.19 315.67c0-.595-.003-1.188-.005-1.779l.006 1.778M347.288 314.484c-.21-.613-.314-1.217.092-1.778l-.092 1.778M337.185 303.225c-.017.593-.035 1.187-.05 1.778l.05-1.778M337.697 361.89l.11 1.778-.11-1.778M381.342 146.362c.594.085 1.187.17 1.78.253l-1.78-.253M378.97 146.418c.796.048 1.67-.335 2.372.225l-2.372-.225zM277.557 271.528c.79-.003 1.582-.007 2.372-.012-.79.005-1.581.009-2.372.012M295.349 145.794l2.372.205-2.372-.205M256.207 271.368l2.372.01c-.794.382-1.585.42-2.372-.01M234.628 370.779l-.136-1.778.136 1.778M321.134 146.785l.026-1.777-.026 1.777M271.033 271.618l2.373-.191-2.373.191M338.326 376.112l.04 1.778-.04-1.778M340.421 131.787l2.372-.225-2.372.225M350.719 283.078l.162-1.778c-.054.594-.109 1.185-.162 1.778M378.013 124.86l.135-1.778-.135 1.778M321.723 73.898c.01.594.022 1.187.034 1.778l-.034-1.778M300.686 62.837l2.373.197-2.373-.197M182.074 399.635l2.373-.233-2.373.233M301.872 57.01h-1.186 1.186M155.98 407.352c.791-.407 1.581-.291 2.372.003-.79 0-1.582-.001-2.372-.003M463.778 372.959l4.15-.212-4.15.212M463.778 362.752c-.794.017-1.586.036-2.373.054l2.373-.054M451.916 350.999l2.966-.226c-.922.58-1.977.15-2.966.226M440.648 352.22l2.966-.215-2.966.215M424.043 362.871l2.372-.185-2.372.185M428.194 362.873l2.372-.188-2.372.188M431.16 362.291l2.371-.21-2.372.21M435.31 342.033c-.594.005-1.19.009-1.779.011.598-.005 1.189-.008 1.78-.01M450.137 374.68l2.372-.201c-.738.518-1.571.22-2.372.2M427.6 327.338l2.373-.227-2.372.227M424.636 317.744l-1.78-.002 1.78.002M418.705 318.926l-1.186.005 1.186-.005M404.472 320.577c-.2.487-1.247.424-1.184-.076l1.184.076M376.858 322.78l.073 1.778-.073-1.778M457.847 325.921l1.78-.03c-.587.419-1.18.36-1.78.03M435.31 317.142l-1.185.017c.399-.005.792-.01 1.186-.017M419.891 354.593l2.372-.22-2.372.22M410.402 355.771l2.372-.206-2.372.206zM456.66 373.557c.791-.075 1.583-.15 2.373-.223l-2.372.223M428.194 377.124c.792-.289 1.584-.388 2.372.007l-2.372-.007M426.937 295.443l-1.115-.385 4.151-.05c.003 0-2.877.448-3.036.435M416.333 285.152l-2.966-.001 2.966.001M378.97 307.804c.987-.395 1.975-.318 2.965-.01l-2.965.01M438.869 298.178l-1.78.02 1.78-.02M426.415 290.388l2.965.194c-.988-.066-1.977-.13-2.965-.194M413.96 296.515c.99-.07 1.978-.139 2.966-.21-.988.071-1.977.14-2.965.21M421.67 295.326l2.373-.201-2.373.2M415.147 289.795l2.372.194-2.372-.194M403.879 301.164l-1.187-.025 1.187.025M416.333 295.262l-1.186-.074 1.186.074M408.623 295.242l-1.186-.033 1.186.033M429.973 294.69c0 .154 1.786-.625 1.78.1l-1.78-.1zM423.45 285.15l-1.187.002 1.186-.001M212.914 257.05c.642-2.62.467-4.668 2.754-2.995 1.255.919 3.325 5.578 3.168 7.156-.194 1.947-1.082 2.722-2.916 2.103-2.108-.714-2.944-4.306-3.006-6.264M328.46 241.151c5.31 0 2.993 5.648-1.434 5.774-2.035.059-4.961-.343-4.302-3.064.353-1.452 5.513-3.41 5.735-2.71M271.493 252.264c3.833 1.853-1.56 9.993-5.045 7.977-4.46-2.579 3.468-6.816 5.045-7.977M262.163 259.967c1.256 1.368 6.91 6.005 3.794 7.87-3.834 2.292-6.751-5.277-3.794-7.87M197.896 256.412c-1.247-2.41.47-8.717 4.278-7.565 3.832 1.161-2.169 6.925-4.278 7.565M282.503 257.8c2.487-1 2.013 1.96 2.39 2.914.425 1.085 2.614 3.726 2.065 4.88-.815 1.714-2.763.622-3.82-.49-1.855-1.95-1.724-5.077-.635-7.304M244.607 260.544c-2.073 0-7.02-5.971-4.113-6.973 3.608-1.243 6.625 7.411 4.113 6.973M316.23 251.078c1.897.468 4.41 5.838 1.55 6.46-3.168.69-3.733-4.974-1.55-6.46M304.721 261.152c-1.49-2.864-1.856-8.996 1.78-4.074.787 1.066 1.599.635 1.195 2.393-.354 1.536-1.765 1.681-2.975 1.681M226.308 246.338c1.517 2.282 1.069 9.438-2.102 5.205-1.348-1.799-.42-5.12 2.102-5.205M302.577 31.291c2.944-.76 3.65 6.176 1.933 6.94-2.404 1.07-2.103-5.78-1.933-6.94M488.779 383.607c-2.733-.16-6.56-.904-2.421-2.841 2.625-1.228 6.53-1.313 9.302-.81 1.911.348 4.779 1.93 1.862 3.982-1.707 1.2-6.668-.272-8.743-.33M485.716 388.556c-.79-.09-1.58-.178-2.368-.266.634-1.15 2.474-1.39 2.368.266M489.279 383.493l2.372.052-2.372-.052" transform="translate(-1047 -4169) translate(0 -5) translate(0 3944.852) translate(1047 230)"/>
                        </g>
                    </g>
                </g>
            </g>
        </g>
    </g>
</svg>
