<svg xmlns="http://www.w3.org/2000/svg" width="633" height="595" viewBox="0 0 633 595">
    <g fill="none" fill-rule="evenodd">
        <g fill="#000" fill-rule="nonzero">
            <g>
                <g>
                    <g>
                        <path d="M59.908 73.454l.284.474c-.163-.892-.256-1.05-.284-.474M419.17 179.742c.01-.001.017-.006.022-.014l-.021.014z" transform="translate(0 -4861) translate(0 -5) translate(0 4866.852)"/>
                        <path d="M621.045 437.73c-6.162.38-11.879 3.078-17.832 4.467-6.317 1.476-12.76 2.382-19.11 3.705-3.054.636-6.137 1.278-9.231 1.693-3.071.412-5.945 1.186-8.968 1.841-6.003 1.301-12.39 2.247-18.219 4.172-5.715 1.887-11.834 2.265-17.766 3.273-6.412 1.09-12.87 1.848-19.27 3.003-6.313 1.14-12.618 2.326-18.93 3.468-3.021.547-5.987 1.655-9.06 1.791-3.443.152-6.68.546-10.065 1.214-12.981 2.562-25.897 5.638-38.78 8.664-3.141.738-6.278 1.494-9.41 2.27-3.2.793-6.53 1.254-9.686 2.194-5.795 1.725-11.629 3.468-17.66 3.866-3.019.199-5.792 1.513-8.72 2.147-3.078.665-6.254.787-9.372 1.166-6.274.765-12.617 3.038-18.675 4.805-6.04 1.761-12.037 3.903-18.143 5.404-6.397 1.573-12.879 2.772-19.271 4.372-12.413 3.105-24.443 7.675-37.037 9.924-.966.173-2.535.674-3.51.307-1.023-.385-1.49-1.686-2.027-2.55-1.57-2.532-2.977-4.931-3.312-7.956-.303-2.728-.255-5.362-2.08-7.594-.532-.65-1.223-.772-.28-1.5.61-.47 2.626-.355 3.396-.485 2.742-.469 5.063-1.768 7.755-2.423 3.002-.731 5.935-1.527 8.844-2.575 5.876-2.12 11.752-4.056 17.707-5.94 2.919-.923 5.816-1.91 8.654-3.056 1.357-.548 2.709-1.198 4.169-1.418 1.588-.24 2.995-.2 4.557-.707 6.15-1.994 12.522-3.417 18.814-4.896 5.969-1.403 12.129-2.928 18.208-3.71 3.034-.39 5.815-1.118 8.75-1.951 3.11-.885 6.356-1.125 9.517-1.771 5.56-1.138 11.793-1.366 17.062-3.532 2.489-1.024 4.833-1.043 7.455-1.517 3.226-.586 6.44-1.197 9.674-1.763 3.097-.542 6.16-1.255 9.248-1.846 3.113-.594 6.577-.623 9.565-1.703 5.278-1.91 11.184-1.86 16.696-2.968 6.48-1.302 13.05-2.058 19.528-3.377 6.256-1.273 12.694-2.156 18.872-3.752 2.89-.746 5.568-1.604 8.555-1.95 3.26-.377 6.453-1.102 9.675-1.713 5.987-1.137 12.075-1.41 18.08-2.447 12.226-2.11 24.073-5.793 35.993-9.178 6.121-1.738 12.19-3.433 18.436-4.662 2.936-.577 5.688-1.624 8.57-2.392 3.208-.854 6.476-1.446 9.736-2.06 2.95-.556 5.898-1.142 8.825-1.81 1.41-.321 3.828-1.62 5.197-1.283 1.274.314 1.231 2.417 1.484 3.54.642 2.855 1.557 5.658 2.417 8.454.737 2.396 1.483 4.79 2.255 7.176.483 1.502.89 3.436-1.28 3.57zm-9.077 10.82c-3.205 1.913-5.416 5.103-8.032 7.693-2.927 2.896-6.06 5.61-9.192 8.281-3.242 2.766-6.568 5.434-9.981 7.986-3.173 2.37-6.53 4.582-9.4 7.331-2.695 2.584-4.721 5.862-7.695 8.155-2.918 2.25-6.493 3.323-9.473 5.506-1.39 1.019-2.653 2.223-4.272 2.873-1.862.747-3.842 1.309-5.734 1.992-1.852.669-3.655.88-5.59 1.182-2.099.329-3.588.924-5.747.57.989-.589 1.96-1.37 3.05-1.757.926-.33 1.747-.167 2.71-.195 2.012-.06 3.711-1.115 5.722-1.216-1.771-1.467-4.472-.488-6.399.107-3.005.93-6.059 1.7-9.074 2.598-6.017 1.792-12.054 3.455-18.155 4.937-12.764 3.102-25.571 6.03-38.378 8.953-6.288 1.435-12.69 2.324-18.973 3.753-5.958 1.354-12.154 1.85-18.197 2.998-12.742 2.421-25.496 4.784-38.216 7.321-12.536 2.5-25.237 5.038-37.519 8.608-5.749 1.672-11.454 3.71-17.25 4.975-5.987 1.307-11.73 3.312-17.618 4.96-6.117 1.711-12.298 3.02-18.35 4.976-6.112 1.976-12.233 3.844-18.428 5.539-1.296.354-2.478.792-3.728 1.273-1.547.594-2.889.597-4.498.81-1.237.164-2.198.72-3.345 1.152-1.346.508-2.69.246-3.939.967-2.5 1.446-5.006 1.783-7.856 2.358-3.332.671-6.553 1.688-9.784 2.733-5.944 1.92-11.983 3.442-17.94 5.292-.892.277-10.44 4.138-10.616 2.995-.1-.734 2.443-2.12 3.018-2.54 2.649-1.935 5.277-3.915 7.875-5.918 4.708-3.628 8.954-7.729 13.396-11.665 4.603-4.079 9.652-7.586 14.048-11.907 4.198-4.125 7.584-8.958 11.48-13.354 1.662-1.876 2.961-3.717 4.058-5.966 1.193-2.446 2.638-2.986 5.325-2.955 5.918.07 12.202-1.784 17.824-3.53 5.704-1.771 11.628-3.853 17.548-4.713 5.996-.871 11.756-2.712 17.688-3.968 6.273-1.327 12.296-3.31 18.428-5.144 6.104-1.825 12.343-3.237 18.495-4.891 2.856-.768 5.688-1.59 8.528-2.411 3.134-.905 6.063-.826 9.263-1.21 5.956-.714 11.496-2.534 17.33-3.758 2.89-.605 5.438-1.342 8.159-2.474 2.78-1.156 5.728-1.411 8.656-2.03 6.34-1.342 12.578-3.267 18.873-4.816 6.013-1.48 12.158-2.679 18.228-3.908 2.901-.588 5.822-.813 8.745-1.227 3.252-.46 6.4-1.469 9.636-2.034 12.511-2.19 24.986-4.59 37.516-6.685 6.439-1.076 12.824-2.26 19.038-4.298 2.682-.88 5.494-.909 8.223-1.67 2.856-.796 5.64-1.968 8.576-2.454 1.532-.254 3.136-.22 4.62-.727 1.006-.342 1.871-1.008 2.89-1.31 2.961-.874 6.303-.924 9.334-1.667 6.196-1.518 12.51-2.43 18.727-3.844 6.026-1.37 11.937-3.182 17.893-4.816-.479.713-.738 1.717-1.521 2.184zm-387.73 111.896c-4.667 3.56-9.478 6.946-14 10.692-4.084 3.384-7.623 7.365-11.106 11.35-1.18 1.348-2.579 3.36-3.977 1.148-1.368-2.164-2.026-5.047-2.86-7.45-.935-2.687-1.82-5.398-2.81-8.063-.742-1.996-2.122-4.048-.67-6.049 1.351-1.856 3.53-3.456 5.163-5.077 2.114-2.1 4.224-4.208 6.443-6.2 4.253-3.816 8.754-7.358 13.134-11.026 4.698-3.934 9.3-7.985 13.908-12.022 4.014-3.515 7.87-7.228 12.19-10.374 10.129-7.378 18.292-17.042 27.76-25.192 1.569 6.37 2.657 12.9 4.508 19.196.75 2.553 2.234 4.8 2.916 7.38.803 3.035-1.116 3.976-3.36 5.603 1.179-1.602 2.54-2.561 2.484-4.646-2.375.542-4.217 2.379-6.063 3.848-1.978 1.574-3.934 3.167-5.867 4.796-4.297 3.62-8.552 7.293-12.807 10.964-8.257 7.122-16.31 14.504-24.987 21.122zm-19.111-41.788c-4.067.274-7.987 1.494-12.065 1.745-1.947.119-3.877.526-5.826.587-2.221.069-4.397-.284-6.628-.163-4.358.24-8.653-.13-13-.377-4.32-.245-8.605-.349-12.892-1.001-1.742-.265-3.475-.537-5.225-.753-1.424-.177-3.655-.224-4.248-1.767-.553-1.443-.074-3.842-.051-5.367.02-1.379.096-2.76.1-4.138.006-1.925-.123-4.974-2.594-5.266-1.442-.17-2.903.835-4.128 1.454-2.045 1.034-4.055 2.107-6.006 3.312-1.917 1.182-3.823 2.415-5.628 3.763-1.43 1.069-2.902 2.517-4.833 2.27-1.656-.211-3.097-1.364-4.605-1.99-2.144-.89-4.586-1.317-6.898-1.366l.878-10.419.322-3.818c.113-1.344-.09-3.113.246-4.414.542-2.096 4.543-.816 6.29-.679 3.384.267 6.771.511 10.151.82 1.603.148 4.938 1.142 6.332.02 1.732-1.397 1.257-6.587 1.378-8.552.092-1.5-.436-5.66.95-6.655.903-.647 2.807-.142 3.806-.088 1.62.09 3.24.137 4.863.102 12.781-.267 25.509-3.112 37.945-5.882 2.763-.615 5.083-1.553 6.473 1.493 1.395 3.055 2.657 6.184 3.995 9.267 1.036 2.389 2.943 4.677 1.677 7.295-1.394 2.883-3.127 5.678-4.748 8.44-1.057 1.802-4.378 6.283-.228 6.659 2.943.267 6.485-.834 9.38-1.333 1.25-.215 2.48-.496 3.434.481 1.062 1.086 1.563 3.204 2.181 4.568 1.588 3.495 3.293 6.933 4.737 10.494-1.825.492-3.635 1.13-5.535 1.258zm-62.828-1.035l-10.72-1.758c-.906-.148-6.188-.27-5.398-1.81.308-.601 2.19-1.285 2.737-1.63 1.544-.975 3.09-1.948 4.667-2.868 2.925-1.705 5.964-3.245 9.195-4.28l-.481 12.346zm-29.904-33.57c.125-2.32-.025-5.203.558-7.45.542-2.088 2.357-2.48 4.302-2.28 2.416.247 4.774 1.02 7.2 1.3 3.007.345 6.04.393 9.062.25 0 3.45.489 7.287-.35 10.671-.69 2.782-3.462 1.755-5.618 1.612-3.6-.238-7.197-.347-10.786-.746-2.164-.24-4.513-.634-4.368-3.358zm77.5-26.78c-.062-.112-.12-.248-.176-.412.056.164.114.3.176.412zm-5.584-15.61c-.352-1.027-.962-1.962-1.265-3.006-.266-.919-.233-1.83-.639-2.713-.91-1.983-2.386-3.638-3.19-5.717-.907-2.341-1.158-5.147-2.604-7.255-.63-.916-1.142-1.396-1.492-2.457-.381-1.151-.85-1.996-1.368-3.088-.813-1.716-1.217-3.32-2.184-5.017-1.189-2.088-2.32-4.283-3.307-6.473-.449-.995-.627-3.71-1.723-4.312-.876-.48-.862.426-1.558-.576-.563-.807-.531-1.284.488-1.671-.407-.58-1.203-.297-1.686-.798-.468-.486-.362-1.319-.534-1.918.648.206 1.297.407 1.947.61-1.89-4.074-3.597-8.23-5.64-12.232-1.763-3.456-2.946-7.22-5.418-10.197-1.235-1.487-.313-3.02-1.156-4.608-.32-.607-.885-1.036-1.164-1.676-.288-.661-.17-1.606-.572-2.2-.564-.835-1.034-.303-1.739-.774-.503-.336-.764-.952-1.056-1.455-.152-.26-.76-1.123-.695-1.436.204-.982.835-.047 1.305-.538-1.033-2.617-2.168-5.19-3.303-7.765-.52-1.185-1.431-5.434-3.3-4.136-1.027-2.488-.8-4.55-1.896-7.03-1.55-3.506-2.971-7.069-4.45-10.606-.72-1.718-1.364-3.485-2.132-5.18-.646-1.423-1.764-2.12-2.597-3.358-.77-1.14-.782-3.107-1.247-4.549-1.89-5.854-5.09-10.938-7.732-16.444-1.65-3.44-3.14-6.943-4.716-10.416-.768-1.69-1.644-3.32-2.451-4.99-.317-.657-.6-1.272-.723-2.001-.072-.421.103-1.277-.085-1.621-.263-.483-.984-1.716-1.362-2.485-.552-1.125-1.713-1.788-1.986-2.95-.172-.736.116-1.075-.339-1.789-.557-.871-.881-.96-1.046-2.092-.248-1.705-.786-2.751-1.833-4.14-1.002-1.328-1.544-2.584-2.189-4.101-.484-1.14-1.876-2.807-1.397-4.095.404-1.085 1.66-1.234 2.643-1.475 1.699-.418 3.356-.888 5.013-1.458 3.493-1.202 6.55-2.965 9.605-5.022 2.795-1.882 5.69-4.277 8.735-5.707 2.702-1.267 5.514-3.976 8.113-5.908 3.052-2.27 6.222-5.316 9.818-6.676-3.676 8.305-5.014 17.085-5.82 26.086-.84 9.38-.87 18.547-.653 27.942.21 9.118-.092 18.222 1.41 27.274.722 4.346 1.821 8.586 2.389 12.962.264 2.034 1.04 7.67 3.757 8.021 1.708.22 2.791-1.455 4.228.275 1.038 1.25 1.182 2.945 1.676 4.414.536 1.597 2.233 2.414 1.945 4.185-.143.878-.588 1.135.057 1.934.371.459 1.316 1.073 1.791 1.612.004-.286-.178-1.004-.004-1.236.235-.313.71-.025 1.004-.3-.298.277-.693.112-.899.401-.467.66.2 1.924.437 2.537.587 1.51 1.368 2.802 2.348 4.093.929 1.226 1.735 2.816 2.82 3.9 1.079 1.076 2.411 1.473 3.377 2.757.835 1.109 1.396 2.364 2.595 3.138 1.36.878 2.062 1.632 3.029 2.913 2.125 2.813 6.064 4.475 9.047 6.257 3.195 1.91 6.838 3.506 10.632 3.243.575-.04 1.191-.182 1.764-.072.987.188.831.585 1.45 1.057.922.701 1.972.636 3.161.726 3.883.291 7.924.356 11.77.9 1.897.269 7.499 2.054 8.244-.628 2.618 1.88 5.101.838 7.982.189 2.851-.643 6.337.166 8.886-1.516 1.32-.87 1.489-1.174 3.161-1.25 1.404-.064 2.827-.03 4.134-.627 1.28-.583 1.881-1.052 3.317-1.285 1.668-.271 3.002-1.004 4.544-1.66 3.044 9.994 8.153 18.987 9.253 29.53.557 5.333.187 10.358-.716 15.629-.389 2.272-.699 4.401-1.955 6.382-1.296 2.045-3.099 3.85-4.878 5.476-3.473 3.178-7.462 5.716-11.552 8.019-4.306 2.425-8.673 4.87-13.243 6.762-4.657 1.929-9.234 3.918-13.811 6.03-4.892 2.256-9.642 3.349-14.926 4.221-1.329.22-2.642.484-3.936.856-1.029.295-2.648 1.057-3.7.405-1.267-.785-1.803-3.7-2.36-5.042-.967-2.32-1.696-4.953-3.128-7.039-.493-.719-.745-1.151-1.031-1.946-.314-.874-.415-1.707-1.49-2.024-.187.844-.719 2.363.475 2.747-.921-.296-.888-.881-.474-2.747zm-7.77-13.281c.033.109.068.21.108.295-.04-.085-.075-.186-.109-.295zm-16.954-40.327l-.371-.568c.456-.184.53-.045.804.318-.145.084-.29.166-.433.25zm-31.037-70.053c-.453-.539-.416-.399-.118-.822.534.23.574.504.118.822zm.33 1.067c-.21-.13-.209-.26.004-.388.226.132.224.262-.004.388zm-.43 2.73c.066.392.26.653.537.83-.276-.177-.471-.438-.538-.83zm-3.09-8.062l-.168 1.043c.11-.688.228-1.348.122-2.048.122.804-.104.84.495 1.5l-.45-.495zm27.28 10.435c.06-.138.125-.275.185-.413-.06.138-.124.275-.185.413zm39.65 50.142l.096-.497-.097.497zm19.354 3.899c0 .325.033.66.049.984l-.05-.984zm-6.217 1.205c.03-.032.063-.062.1-.092-.037.03-.07.06-.1.092zm15.747.156c-.533.207-.953.66-1.415.976.08-.276 1.15-.874 1.415-.976zm170.664 46.612c-.931-.418-2.067-1.326-1.308-2.441-1.103-.17-1.092-1.27-1.398-2.11-.507-1.4-1.398-2.58-2.131-3.86 2.745-1.235 5.792-1.49 8.719-2.035l-3.882 10.446zm-2.326 3.427c.814-1.116 1.56-2.28 2.326-3.427-.26 1.043-1.705 2.575-2.326 3.427zm-30.144-64.215l.282-.24c-.266.02-.358.1-.279.24h-.003zm-6.307-14.063c-.165-.039-.295-.182-.373-.42.078.238.208.381.373.42zm-2.492-5.418c-1.041-.724-1.844-1.69-2.455-2.833.61 1.142 1.414 2.108 2.455 2.833zm-2.676-3.27c-.14-.296-.27-.603-.387-.918.118.315.247.622.387.919zm1.068-2.18c-.396-.045-.988-.11-1.37.08.254-.127.7-.137 1.37-.08zm6.795 11.242c-.288-.12-.285-.484-.487-.648-.243-.199-.618-.175-.782-.314-.585-.5-.432-.217-.509-1.192-.097-1.224-.835-1.912-1.095-2.902-.325-1.241.142-1.868-.86-2.877-1.207-1.214-2.769-2.27-3.184-4.062-.19-.818.082-1.527.083-2.333 0-.589-.586-1.773-.332-2.301.448-.93 3.205-1.036 4.161-1.258 4.525-1.047 9.052-2.085 13.58-3.126-2.88 7.29-5.976 14.615-10.575 21.013zm1.682 10.641c.061.083.117.157.171.226-.169-.22-.335-.444-.5-.669l.329.443zm-8.507 83.93c.181-2.304 1.03-4.484 1.525-6.726.558-2.52.757-5.092.752-7.67-.01-4.905-.52-9.824-.804-14.72-.586-10.11-2.228-20.137-3.736-30.139-1.44-9.546-3.33-18.959-7.686-27.654-1.97-3.931-4.507-7.885-5.584-12.187-.24-.96-.205-2.04-.527-2.968-.353-1.022-1.059-1.515-1.688-2.33-1.473-1.904-2.334-4.468-3.388-6.627-.973-1.99-1.775-4.11-2.908-6.016-.455-.765-.946-1.436-1.607-2.029-.472-.423-1.47-.818-1.753-1.396-.577-1.172.983-2.082 1.766-2.95 1.877-2.084 3.578-4.361 5.358-6.53 1.329 6.933 2.676 13.713 5.368 20.27 2.605 6.34 5.394 12.575 8.44 18.716 5.935 11.96 11.756 23.982 17.38 36.084 1.317 2.834 2.87 5.406 4.383 8.128 1.69 3.042 3.104 6.247 4.734 9.326 3.107 5.867 5.693 12.002 8.872 17.821 3.155 5.778 7.018 11.06 10.526 16.613.905 1.433 4.21 5.184 3.68 6.99-.24.814-1 .804-1.705.936-1.858.349-3.766.46-5.629.796-3.631.654-7.145 1.739-10.806 2.328-3.169.511-6.386.728-9.44 1.775-1.802.616-3.454.667-5.316.969-1.743.283-3.435.862-5.145 1.29-3.782.946-7.648 1.493-11.471 2.242 2.742-4.458 5.985-8.953 6.409-14.342zm-7.984-59.902l2.458 14.857c-4.27-1.64-8.819-2.844-12.623-5.481 2.874-3.641 6.663-6.388 10.165-9.376zm-14.235-39.844c1.687.606 1.265 1.327.509 2.815-.766 1.51-1.472 2.98-2.077 4.572-1.586 4.172-2.948 8.436-4.358 12.67-1.328 3.991-2.675 7.98-3.932 11.995-.153.488-.505 2.572-1.254 2.522-.848-.056-1.635-3.732-1.883-4.418-1.49-4.122-3.24-8.163-5.248-12.06-.615-1.193-2.052-2.909-1.9-4.35.144-1.383 1.602-2.052 2.637-2.7 3.68-2.3 7.367-4.593 11.026-6.929 1.26-.806 2.464-1.631 3.634-2.56.593-.47 1.97-1.871 2.846-1.557zm-59.27 70.167c-.017-.19-.026-.38-.023-.567-.003.187.006.376.023.567zm-.023-.58c.004-.191.021-.38.06-.563-.039.184-.056.372-.06.562zm-70.736 57.544c-.066-.015-.138-.024-.227-.024.09 0 .161.01.227.024zm1.238 15.763c.821 1.77 1.6 3.573 2.488 5.31.5.98 1.747 2.579 1.07 3.71-.618 1.035-2.318.85-3.337.947-1.922.183-3.841.464-5.756.704 1.844-3.557 3.69-7.113 5.535-10.67zm-.93-15.571c.196.296.03.826.187 1.12-.158-.293.01-.824-.187-1.12zm10.399 22.755c-.45-.45.054-1.594.023-2.12-.073-1.241-.37-.852-1.182-1.458-1.576-1.178.874-2.064-.067-3.684-.167-.289-.67-.341-.797-.638-.111-.254-.04-.551-.13-.793-.265-.694-.49-1.504-.763-2.235-.433-1.155-1.037-3.757-2.77-3.407l4.744-9.878c3.57 9.124 7.491 18.243 13.367 26.153-4.112 0-8.244.215-12.337-.273.784-.538-.092-1.029-.088-1.667zm9.584 19.83c-.33.143-.629.043-.933-.22.304.263.602.363.933.22zm45.098-27.993c-4.751 3.44-9.39 7.035-13.888 10.803-1.941-5.471-2.11-11.333-2.356-17.072 5.132 2.783 10.966 3.827 16.244 6.27zm38.904-17.749c-1.42.16-2.583-.628-3.835-1.138-1.471-.6-3.018-.794-4.574-1.05-3.3-.546-6.593-1.13-9.89-1.679l14.469-18.462c-.014 7.617 2.426 14.914 3.83 22.329zm19.607-21.801c.924 1.772 1.853 3.542 2.784 5.31.602 1.141 1.182 3.22 2.104 4.12 1.126 1.1 2.386.128 2.103-1.265-.305-1.509-1.648-3.25-2.38-4.568-.772-1.39-1.906-2.13-.414-3.038 1.226-.747 2.917-1.202 4.289-1.577 4.044-1.107 8.278-1.088 12.435-.937-1.507 3.419-3.416 6.71-5.475 9.825-.883 1.335-1.868 2.537-3.022 3.649-.9.868-1.226 2.012-2.087 2.863-.99.978-2.479 1.259-3.779 1.575-1.54.375-2.898.938-4.384 1.483-1.583.58-3.437.367-4.9 1.044-1.374.635-2.5 1.151-4.025 1.494-3.021.679-5.71 2.442-8.724 2.998-1.457.268-1.442-.02-1.883-1.45-.377-1.225-.53-2.477-.75-3.735-1.343-7.666-2.47-15.365-3.802-23.033-3.455 3.974-6.536 8.258-9.996 12.223-1.736 1.987-3.604 3.849-5.38 5.796-1.085 1.189-3.35 3.026-3.356 4.8-.007 2.553 4.153 3.196 6.021 3.501 4.85.795 9.825.956 14.297 3.232-1.367 1.522-3.526 1.844-5.36 2.494-2.486.881-4.92 1.93-7.374 2.892-1.24.487-2.475 1.087-3.75 1.469-1.35.404-2.753.276-4.096.643-1.046.286-1.897.976-2.9 1.357-1.144.436-2.254.433-3.455.585-2.566.327-4.87 1.296-7.243 2.258-2.353.952-4.322.712-6.67-.114-5.034-1.769-10.238-3.162-15.144-5.275-.668 5.024-.913 10.707.465 15.64.498 1.785 2.05 4.101.84 5.879-.977 1.437-3.352 2.484-4.722 3.513-4.169 3.133-8.288 6.506-12.968 8.862-2.297 1.156-4.645 1.905-7.19 2.28-.853.125-2.675.642-3.361.24-.15-.088-.075-.56-.24-.658-.585-.348-.77-.37-1.464-.47 1.331-1.731-.759-1.726-1.543-2.845 2.941-2.358-1.994-4.803-2.725-6.821 1.77.184 1.206-1.08.582-2.122-.91-1.515-2.322-1.48-3.993-1.853 1.255.28 2.461.733 3.758.772 1.251.037 2.504-.263 3.741-.413 1.453-.175 5.546.26 6.348-1.183.825-1.482-1.326-3.942-2.057-5.125-1.522-2.464-3.232-4.79-4.594-7.351-2.588-4.87-4.796-10.026-6.84-15.145-.98-2.46-2.226-3.592-3.91-.846-1.242 2.023-1.638 4.513-3.231 6.33-1.084-1.204-1.21-2.182-1.728-3.673-.574-1.655-1.637-3.037-2.343-4.62-1.534-3.432 2.637-2.593 4.763-2.831 3.517-.395 6.67-1.92 9.97-3.08 3.528-1.237 6.976-2.569 10.39-4.1 6.782-3.04 13.717-5.808 20.03-9.776 5.796-3.642 12.007-6.955 16.736-12.004 2.562-2.737 4.508-5.882 5.744-9.424.67-1.92 1.127-3.885 1.674-5.84.474-1.695 1.273-3.476 1.127-5.272l.02.295c2.136-1.524 1.45-4.086 1.408-6.303-.008-.394-.173-.934.037-1.307.266-.473.776-.009 1.001-.643.23-.645-.722-1.772-.896-2.385.3.154.6.306.9.456.324-1.95.835-3.859.774-5.85-.062-1.98-.536-3.982-.947-5.912-.383-1.798-.794-3.608-1.286-5.38-.1-.361.018-.898-.336-1.15-.592-.422-1.343.178-1.472.772.125-.58.406-.766.405-1.402-.001-.642-.268-1.367-.378-2.002-.296-1.724-.61-3.442-.953-5.156-.302-1.508-.566-3.045-.962-4.53-.133-.502-.415-1.035-.444-1.557-.045-.772.153-.657.4-1.222.061-.144.383-.317.471-.508.156-.338-.146-.861.024-1.21.218-.444.555-.57.989-.729 1.403-.512 1.913-.131 3.042-1.314.92-.963 2.143-1.312 3.283-2.02 1.362-.849 2.495-1.356 3.722-2.48 1.29-1.182 2.762-2.226 3.92-3.542.793-.9 1.036-2.501 2.061-3.15.623-.396 1.439-.374 2.095-.79.667-.422 1.26-1.055 1.898-1.52 1.589-1.157 3.27-2.186 4.886-3.303 6.475-4.479 12.77-9.423 18.315-15.025 2.795-2.824 5.42-5.819 8.075-8.773.28-.31 1.92-2.658 2.546-2.538.69.132 1.258 3.098 1.566 3.73 1.539 3.17 2.952 6.28 4.14 9.609.462 1.294 1.029 2.06.029 2.997-1.225 1.15-3.242 1.895-4.702 2.75-3.492 2.045-6.992 4.082-10.465 6.165-1.85 1.11-6.338 2.787-6.98 5.082-.824 2.938 2.55 7.031 3.781 9.468 1.713 3.392 2.968 6.928 4.225 10.503.528 1.5 2.235 7.946 4.642 7.366 1.23-.298 1.706-1.821 2.102-2.851.664-1.728 1.308-3.464 1.933-5.205 3.054-8.521 5.792-17.153 9.164-25.557 2.76 4.951 4.971 10.205 7.3 15.367 1.016 2.25 1.767 4.473 2.255 6.894.47 2.336 1.356 5.235 1.233 7.633-.244 4.772-19.691 11.895-10.828 17.648 3.874 2.514 8.916 2.93 12.838 5.3 2.076 1.254 2.009 3.35 1.939 5.518-.087 2.709.121 5.436.27 8.14.327 5.874 1.337 12.176.104 17.974-.406 1.913-.522 4.397-1.206 6.208-.918 2.433-4.616 1.54-6.699 1.49-2.059-.047-18.441.932-16.182 5.266zm74.804-7.981c.76-.471.788-.289.21.411l-.21-.411zm5.414 7.801c-.403.559-1.2.584-1.579.475.38.108 1.175.084 1.579-.475zM173.087 315.926c5.429-4.921 12.088-8.473 17.827-13.046 6.22-4.956 12.709-9.549 19.198-14.141 12.923-9.141 25.578-18.591 38.69-27.468 12.972-8.784 26.468-16.696 40.154-24.309 6.298-3.504 12.159-7.816 18.678-10.888 3.418-1.611 6.805-3.285 10.262-4.815 1.674-.74 2.649-1.017 3.91.49.896 1.07 1.514 2.37 2.304 3.517 2.328 3.38 4.72 6.687 7.626 9.599 1.27 1.273 5.55 5.625 7.54 3.77.795-.74.909-2.264 1.216-3.261.637-2.072 1.37-4.126 2.086-6.172 1.457-4.169 3.143-8.25 4.751-12.363 3.365 1.693 6.861 3.08 9.787 5.514 2.808 2.336 5.38 4.82 7.892 7.46.99 1.043 1.256 1.074.728 2.343-.242.581-.627.83-.303 1.52.261.559 1.106.61 1.093 1.395-.014.769-1.354 1.953-1.93 2.347-1.56 1.068-3.578 1.733-5.282 2.553-1.893.912-6.924 2.29-7.512 4.646-.424 1.7 1.195 2.748 2.366 3.648 1.571 1.206 3.174 2.376 4.71 3.63 3.07 2.506 5.842 5.406 8.218 8.579 2.194 2.929 3.676 6.28 5.77 9.25.693.983 2.257 3.169 3.595 1.988 1.096-.968 1.165-3.922 1.456-5.259.97-4.44 2.046-8.955 3.606-13.228 4.047 6.568 6.921 13.53 9.998 20.585 3.203 7.342 6.616 14.585 9.727 21.968.772 1.831 3.42 5.351 1.923 7.216-.72.898-2.028 1.392-2.971 2.02-1.568 1.044-3.065 2.217-4.573 3.342-2.936 2.186-6.763 4.352-9.087 7.213-2.135 2.628.818 5.064 2.942 6.44 3.212 2.082 7.03 2.892 10.61 4.1 3.925 1.323 7.734 3.232 11.88 3.78-.13-1.768-.127-3.388-1.843-4.34-1.97-1.093-4.397-1.49-6.53-2.164-4.87-1.539-9.662-3.38-14.415-5.24 5.034-4.66 10.377-8.973 15.856-13.093 5.214 11.697 7.042 24.496 12.207 36.171 5.167 11.68 10.236 23.582 12.731 36.184l-1.656-1.272c-4.766 6.584-5.975 15.142-11.324 21.365-.842-4-3.138-7.281-5.104-10.779-.916-1.628-2.979-5.05-1.617-6.888.857-1.156 3.286-1.258 4.575-1.573 2.17-.53 4.24-1.404 6.3-2.26 1.432-.594 3.167-.965 4.499-1.752 1.054-.621 2.084-2.141.222-2.138-1.604.003-3.51 1.094-5.017 1.578-2.195.706-4.406 1.362-6.638 1.94-1.44.373-3.018.406-4.422.864-1.857.605-2.041 2.006-1.877 3.8.363 3.951 2.164 7.317 4.191 10.649 1.047 1.72 2.07 3.417 2.674 5.351.397 1.272.597 2.978 1.849 3.747 2.92 1.796 5.553-5.637 6.417-7.378 2.445-4.922 4.743-9.917 7.102-14.88 1.18.994 1.456 2.632 1.904 4.021.498 1.544 1.04 3.076 1.557 4.614.603 1.79 1.136 3.627 1.833 5.385.454 1.144 1.329 2.4 1.169 3.68-.192 1.529-1.753 2.857-2.66 4.011-.985 1.256-1.88 2.583-2.806 3.883-2.114 2.973-4.303 5.899-6.319 8.941-2.028 3.058-3.706 6.326-5.691 9.41-1.895 2.94-3.974 5.764-6.003 8.613-1.936 2.719-3.404 5.613-5.202 8.4-2.104 3.257-4.602 6.281-6.906 9.396 0-.28-.906-.825-1.096-1.078-.41-.546-.089-.898-.88-1.038-.767-.135-.819.808-1.635.031-.494-.47-.44-1.327-.248-1.783.253-.598.734-.402.674-1.199-.021-.278-.495-.514-.594-.766-.162-.416-.033-.911-.133-1.334-.383-1.633-2.03-2.677-3.034-1.016l-.342-1.149.957.078c-.233-1.393.05-2.777-.452-4-.45-1.099-.934-1.781-.602-2.95.356-1.258 1.242-2.969 1.803-4.356.727-1.802 1.368-3.64 1.998-5.477.885-2.575 2.76-6.451 1.001-9.033-.869-1.278-1.933-1.195-3.31-.868-1.94.461-3.888 1.002-5.797 1.579-1.254.379-2.792 1.018-4.064.353-1.332-.696-1.916-2.806-2.444-4.076-.815-1.959-1.579-3.9-2.62-5.755-.877-1.56-1.472-3.344-2.638-4.697-.939-1.091-1.853-2.213-2.113-3.675-.089-.497.121-1.119-.14-1.582-.294-.521-.938-.61-1.256-1.238-.75-1.473-.152-3.049-1.906-4.08-.674-.397-3.258-1.119-1.042-1.763-.983-2.591-2.172-5.095-3.346-7.602-.587-1.252-1.176-2.504-1.732-3.77-.264-.602-.454-1.432-.8-1.98-.27-.43-.655-.572-.903-.928-.59-.844-.412-1.356-.655-2.325-.26-1.04-1.1-1.892-1.698-2.75-1.631-2.336-2.226-5.083-3.042-7.772-.356-1.176-.994-2.519-1.137-3.745-.13-1.12.213-1.339.87-2.398 1.582-2.545 3.086-5.139 4.447-7.81 1.147-2.248 2.073-4.59 3.168-6.861.938-1.941 2.138-3.793 2.71-5.891.493-1.808.413-3.797-1.023-5.172-1.908-1.83-4.712-.597-6.89-.012-2.771.744-5.541 1.49-8.31 2.239-1.345.363-4.994 2.234-6.196.963-.49-.518-.365-1.386-.435-2.035-.103-.959-.373-1.712-.793-2.586-.464-.966-1.07-1.853-1.366-2.894-.268-.936-.12-1.798-.803-2.535-.645-.696-.752-.332-.806-1.4-.052-.994.16-1.603-.346-2.598-.461-.906-1.164-1.674-1.558-2.618-.306-.733-.208-1.298-.327-2.077-.31-2.046-2.559-4.137-2.165-6.217.36-1.897 2.548-2.848 2.802-4.924.64-5.248-5.517-1.726-7.409-.297-.6.453-1.278 1.343-2.123 1.128-.659-.168-.838-1.13-1.44-1.322-1.665-.531-.887 2.773-1.329 3.77-1.01 2.277-3.446 4.047-5.067 5.887-1.995 2.264-3.786 4.703-5.721 7.017-.614.734-2.494 3.708-3.658 3.894-1.895.302.627-2.763.938-3.24 1.39-2.13 2.254-4.677 3.214-7.016 1.095-2.674 2.351-5.262 3.643-7.846 1.236-2.472 2.487-4.94 3.56-7.49.676-1.606 2.31-4.218 1.992-6.026-.352-1.996-2.475-1.864-4.079-1.674-2.661.316-5.32.759-7.967 1.177-6.65 1.05-13.409 1.548-19.994 2.932-1.186.249-7.205 1.055-6.474 2.7.552 1.244 5.403-.243 6.28-.368 3.225-.46 6.452-.858 9.693-1.171 3.434-.332 6.858-.658 10.257-1.267 3.343-.599 6.645-1.753 10.05-1.95-1.801 5.94-5.305 11.424-7.75 17.124-1.207 2.814-2.494 5.58-3.777 8.36-.596 1.289-1.25 3.92-2.827 4.331-1.77.463-3.474-2.05-4.413-3.217-1.844-2.29-3.375-4.785-4.847-7.325-.828-1.43-7.866-14.681-9.34-13.763-.547.34 9.704 17.627 10.812 19.224 1.657 2.391 4.126 6.554 7.1 7.45.58.175 2.232-.047 2.323.679.088.705-1.907 1.407-2.346 1.678-2.938 1.803-5.33 4.567-7.824 6.912-2.84 2.672-5.974 4.95-9.124 7.238-1.187.862-2.38 1.709-3.48 2.68-.88.777-1.927 2.038-3.099 2.352-1.094.293-1.351-.224-1.89-1.11-1.031-1.693-2.098-3.365-3.142-5.05-4.09-6.604-8.526-12.712-14.225-18.045-.696-.65-1.745-1.612-2.347-.463-.788 1.502.836 2.024 1.727 2.626 2.933 1.982 5.302 5.546 7.401 8.34 2.437 3.245 4.63 6.647 6.795 10.076 1.035 1.642 3.936 4.25 1.23 5.55-2.894 1.392-6.628 1.439-9.705 2.398-3.678 1.146-7.16 2.824-10.844 3.973-3.153.984-6.374 1.611-9.556 2.457-.796.211-2.511.565-2.81 1.51-.348 1.1.713 1.25 1.524 1.278 2.794.098 6.144-.763 8.806-1.443 2.143-.548 4.27-1.214 6.368-1.914 1.372-.458 2.43-1.392 3.215.137-2.322 1.018-4.424 2.192-6.792 3.054-.836.305-1.306.963-2.05 1.427-1.044.647-2.359.883-3.5 1.326-2.453.952-4.739 2.257-7.25 3.075-2.657.866-5.414 1.387-8.086 2.206-2.073.635-3.693 1.865-5.923 1.96-1.177.05-2.38-.098-3.553.083-1.064.165-1.958.793-3 .95-.744.11-1.831-.018-2.564-.079-.337-.028-.577.053-.934.017-.262-.027-.566-.434-.872-.482-1.05-.162-2.403.404-3.493.399-1.16-.006-2.326-.135-3.48-.237-2.171-.19-4.566-.324-6.45-1.501-1.774-1.11-3.57-.588-5.525-1.398-2.11-.876-4.088-.154-6.156-.823-.854-.276-1.21.02-2.078-.035-1.057-.068-2.27-1.386-3.228-1.847-4.64-2.23-8.873-4.672-12.531-8.365-1.54-1.555-2.688-3.443-4.693-4.389-1.904-.9-2.405-2.792-3.802-4.327-1.295-1.427-6.62-5.851-4.943-7.858.562-.673 1.967-.913 2.755-1.22 1.267-.495 2.507-1.066 3.761-1.592 2.857-1.196 5.754-2.255 8.71-3.182-1.027 3.035-1.935 6.14-3.142 9.11-.358.876-1.129 2.003-1.047 2.997.102 1.221 1.229 1.56 1.831 2.498.961-2.517 1.857-5.063 2.85-7.566.82-2.068 2.052-4.397 1.906-6.69-.36-5.655-6.45-1.948-9.247-.737-2.213.958-4.432 1.905-6.646 2.862-1.268.548-3.132 1.663-4.54 1.013-1.785-.824-1.736-3.392-1.285-4.968.733-2.561.423-3.34-1.717-4.96 3.571-3.074 7.207-6.076 10.7-9.241zm141.258-107.431c.48 1.255 2.515 4.679 1.618 5.807-.49.617-2.59 1.123-3.324 1.45l-4.207 1.867c1.972-3.04 3.942-6.082 5.913-9.124zm30.151 7.975c-1.57 4.091-2.973 8.235-4.282 12.416-.464 1.482-1.303 7.449-3.528 7.134-1.18-.166-2.37-1.743-3.195-2.507-1.362-1.265-2.613-2.59-3.808-4.017-2.538-3.032-5.267-6.056-7.076-9.603 6.907-2.907 14.507-3.166 21.89-3.423zm25.213 18.306l-.496-.5.496.5zm2.123 4.062c1.537 2.417 3.027 4.876 4.576 7.292-1.003-1.562-1.972-3.15-2.98-4.708-.962-1.488-.865-1.729-2.59-1.15.787 2.024 1.139 4.061 3.159 5.225 2.348 1.352 4.46 1.837 5.12 4.89.602 2.8-.833 5.647-1.582 8.27-.966 3.38-1.61 6.857-2.444 10.271-1.94-.816-2.693-3.146-3.531-4.886-1.172-2.43-2.661-4.763-4.317-6.892-3.566-4.586-8.245-8.14-12.72-11.78 3.414-1.754 6.834-3.5 10.245-5.263 2.103-1.085 5.35-3.964 7.064-1.27zm71.812 199.521c4.1-6.83 7.997-13.804 12.355-20.475 2.11-3.227 4.452-6.294 6.762-9.379 1.905-2.543 3.58-5.515 5.861-7.728 2.456-2.383 4.641-5.07 6.938-7.61 1.07-1.183 1.927-2.54 3.083-3.645 1.3-1.24 2.771-2.294 4.102-3.503 2.674-2.428 5.04-5.19 7.782-7.541 2.743-2.352 5.74-4.544 8.7-6.615 2.29-1.602 5.338-4.264 8.266-4.266 3.114-.002 2.703 3.705 2.751 5.98.08 3.749-.497 7.49-.968 11.198-.486 3.81-1.065 7.597-2.111 11.3-1.996 7.067-4.119 14.419-6.861 21.232-1.374 3.415-3.137 6.64-4.636 9.996-.996 2.233-1.702 5.095-3.916 6.47-1.503.93-3.556 1.02-5.264 1.324-2.21.392-4.426.746-6.633 1.148-4.086.743-8.228 1.098-12.31 1.85-4.294.792-8.498 1.375-12.842 1.846-2.275.247-4.457.78-6.7 1.205-2.056.39-4.21.295-6.217.925.615-1.24 1.145-2.524 1.858-3.712zm-31.59 8.005c.798-.516.837-1.405 1.14-2.204.333-.88.908-1.522 1.367-2.327.91-1.589.985-3.13 2.204-4.529 2.765-3.172 3.713-7.768 5.824-11.368 5.114-8.723 10.165-17.466 15.074-26.313 1.588 3.216 3.128 6.462 4.784 9.645 1.342 2.578 3.742 5.505 4.306 8.386.475 2.427-2.41 5.43-3.523 7.427-1.648 2.956-3.314 5.95-4.612 9.082-1.078 2.6-1.653 5.619-3.32 7.935-1.66 2.306-4.4 1.933-6.92 2.255-3.293.422-6.533 1.182-9.792 1.79-1.49.276-2.891.583-4.319 1.093-.698.25-3.417 1.023-2.213-.872zm-18.11-185.534c7.872.503 13.899-2.882 20.551-6.527 3.377-1.849 6.48-4.082 9.716-6.157 3.208-2.056 6.532-4.024 9.562-6.342 1.331-1.018 2.382-2.32 3.659-3.397 1.206-1.015 2.653-1.693 3.782-2.807 2.19-2.16 4.603-4.706 6.218-7.315 3.944-6.37 8.75-12.163 13.363-18.041 2.581-3.287 4.702-6.895 6.966-10.398 2.35-3.635 4.738-7.246 6.828-11.04 14.322 30.455 28.928 60.773 43.365 91.17 7.38 15.537 14.754 31.074 22.12 46.615 3.53 7.446 7.282 14.774 11 22.125 3.63 7.176 6.738 14.698 10.062 22.024 1.825 4.022 4.237 7.722 5.969 11.794 1.71 4.019 3.686 7.926 5.806 11.743 2.088 3.757 3.797 7.7 5.898 11.436 2.056 3.657 3.19 7.793 5.535 11.292-6.776 1.392-13.586 2.62-20.314 4.236-3.34.802-6.736 1.325-10.072 2.136-3.286.8-6.418 2.16-9.768 2.693-6.928 1.103-13.872 2.281-20.825 3.209-3.489.465-7.005.57-10.502.93-3.63.374-7.167 1.255-10.754 1.885.197-2.42 1.548-4.595 2.484-6.78 1.088-2.544 2.112-5.133 2.951-7.77 1.67-5.247 3.034-10.696 4.43-16.026 2.706-10.323 5.389-22.055 2.99-32.711-.8-3.552-2.718-7.343-6.175-8.947-4.502-2.09-8.831 1.243-12.5 3.588-4.684 2.993-8.953 6.605-13.09 10.302-1.998 1.786-3.935 3.564-5.667 5.613-1.673 1.977-3.68 3.352-5.427 5.212-8.372 8.914-15.633 18.808-21.969 29.256-1.125-2.881-2.015-5.76-3.681-8.396-1.272-2.014-2.68-3.93-4.114-5.83-.965-1.278-2.397-2.93-1.627-4.593.798-1.72 3.363-2.54 2.87-4.803l-3.11 1.818c-3.046-9.716-6.723-19.193-9.766-28.905-1.505-4.806-2.95-9.636-4.553-14.412-1.486-4.43-3.693-8.541-5.616-12.787-3.96-8.734-5.274-18.325-8.635-27.266-.682-1.81-1.7-3.473-2.369-5.282-.298-.81-.552-1.408-.149-2.17.246-.462 1.104-.71 1.207-1.235.25-1.28-2-.755-2.739-1.444-.594-.555-.834-1.711-1.149-2.447-.574-1.34-1.119-2.694-1.678-4.04-4.428-10.665-9.187-21.196-14.148-31.622 1.02.14 2.035.347 3.065.413zm75.963-101.44c-.46-.692-.435-1.75-1.053-2.343-.621-.597-1.338-.44-1.89-1.12-.204-.25-.968-1.642-1.07-1.96-.049-.153.097-.716-.006-1.05-.187-.613-.755-.898-1.062-1.414-1.325-2.225.9-2.905 1.404-4.97.293-1.201.157-1.962 1.123-2.877.738-.698 1.916-1.477 2.797-2.009.628-.38.656-.271 1.302-.475.292-.092.44.086.797-.056.682-.274 1.33-1.223 1.82-1.73 1.444-1.497 2.252-2.635 1.746-4.76-.245-1.027-.661-2.837-2-2.609-.738.125-1.68 1.452-2.202 1.952-1.003.962-1.997 2.122-3.16 2.903-.81.547-1.806.486-2.582.965-.976.603-.869 1.59-1.329 2.534-.954 1.956-3.618 3.522-5.261 4.866-1.671 1.366-3.39 2.704-5.322 3.685-1.732.879-4.715 2.15-6.697 1.522-3.385-1.074 2.179-8.897 3.375-10.38 2.43-3.013 8.139-5.455 7.35-10.01-.356-2.06-1.598-3.471-3.728-2.57-2.643 1.12-4.976 3.246-7.57 4.547-2.709 1.36-5.513 2.525-8.296 3.724-1.524.657-3.058 1.292-4.573 1.967-1.162.519-2.389 1.278-3.705.849 4.113-5.69 8.229-11.409 12.897-16.664 2.196-2.473 4.71-4.558 7.28-6.625 1.922-1.548 4.098-3.157 3.967-5.896-.1-2.08-1.265-4.859-3.73-4.382-1.583.305-2.938 1.682-4.426 2.277-1.279.512-2.261.988-3.445 1.678-1.317.768-3.01.88-4.456 1.256-1.588.412-3.155.912-4.759 1.26-3.422.745-6.891.54-10.367.54 2.906-5.003 7.511-8.615 11.885-12.262 2.465-2.055 4.75-4.316 7.233-6.348 2.454-2.006 5.113-3.744 7.555-5.765l.55 2.122c1.15-.549 1.448-2.04 2.573-2.68 1.383-.786 3.08-.458 4.543-.113 3.18.75 6.003 2.294 8.459 4.43 5.059 4.402 8.748 10.1 11.683 16.077 1.562 3.181 2.945 6.46 4.14 9.797.58 1.623 1.13 3.319 1.153 5.06.025 1.916-.83 3.558-1.304 5.371-.904 3.457-1.116 7.14-1.593 10.676-.507 3.754-.785 7.515-1.103 11.288-.168 2-.418 3.984-.733 5.966-.097.606-.092 1.46-.376 2.004-.26.502-.939.698-1.175 1.193-.272.567-.06.542.116 1.284.228.952.097 1.657-.175 2.603-.595 2.065-1.215 4.118-1.779 6.194-1.572-.65-3.547-2.288-4.16-3.944-.332-.9-.017-1.439.113-2.327.179-1.212-.101-2.237-.774-3.251zM427.09 72.5c.027.037.057.073.091.108-.034-.035-.064-.071-.091-.108zm-15.788-35.17c-.028-.03-.062-.057-.103-.08.041.023.075.05.103.08zm-.07 1.41c-.135-.377.322-.983.123-1.338.063.112-.156 1.338-.123 1.338zm93.734 204.618l.676 1.005-.676-1.005zm3.242.133c-.095-.177-.19-.356-.292-.534.102.178.197.357.292.534zm1.947 3.24l.12-.211c-.093.322-.243.294-.452-.084.11.1.223.195.332.294zm1.447 2.215c-.027-.143-.048-.289-.064-.437.016.148.037.294.064.437zM87.87 252.5c-.795-.387-1.92-1.56-2.858-1.565-.407-.003-1.29.27-.799.758.234.233-1.619 0-1.645-.006-1.1-.274-2.187-.692-3.259-1.061-1.896-.652-3.777-1.349-5.667-2.016-3.797-1.34-7.35-3.162-11.047-4.734-7.143-3.036-13.203-7.239-19.267-12.04-12.439-9.85-20.347-24.246-27.666-38.022 7.44.66 15.16.974 22.364-1.35 7.495-2.419 13.483-6.71 19.86-11.139l1.241 3.28 1.799-3.536 32.87 73.312c-2.018-.47-4.054-.968-5.926-1.88zm-72.246-37.45c1.98.896 2.454 1.778 2.465 4.16-.011-2.38-.485-3.264-2.465-4.16zm1.383-96.972c-.013.104-.022.21-.02.321-.002-.111.007-.217.02-.32zm-7.68 16.843l.764-2.773c.142 1.806 1.156 2.455-1.04 3.278l.277-.505zm1.66 2.03c-.196.313-.262.237-.199-.227l.2.227zm9.97-24.765c4.495-5.728 8.856-11.56 13.813-16.904 3.923-4.229 8.4-8.951 14.351-9.982-.492 5.454-4.246 9.866-7.22 14.202-1.665 2.425-3.298 4.765-5.248 6.972-1.765 1.994-2.747 4.213-1.583 6.807.697 1.555 2.193 3.762 4.132 3.498 1.152-.158 2.215-1.285 3.117-1.939 1.288-.934 2.65-1.769 3.98-2.637 2.51-1.638 5.025-3.249 7.582-4.81 2.293-1.398 4.713-3.535 7.506-3.742-1.027 2.732-2.448 5.28-3.804 7.854-1.383 2.624-2.633 5.363-4.419 7.75-1.746 2.331-3.962 3.841-6.153 5.69-1.872 1.58-1.728 3.82-.705 5.903 1.196 2.434 2.972 3.797 5.131 1.773 2.335-2.187 4.56-4.08 7.195-5.903 2.216-1.53 4.335-2.461 6.81-3.525.987-.424 2.987-1.809 4.11-1.218 1.54.811.215 4.775-.091 6.062-.714 3.01-1.84 5.932-3.339 8.636-2.562 4.622-5.285 9.42-9.673 12.502-3.577 2.512-11.895 5.179-9.165 10.821 1.192 2.466 2.534 4.875 3.795 7.307.783 1.51 3.526 4.847 2.532 6.654-.669 1.216-2.924 2.06-4.073 2.75-1.56.938-3.132 1.856-4.727 2.733-2.932 1.613-5.937 3.107-9.055 4.33-6.335 2.48-13.3 2.786-19.563 5.461.37-.152.744-.295 1.123-.428-1.091-.189-1.532-1.903-1.916-2.767-.186-.422-.586-.992-.675-1.437-.103-.517.258-.88.226-1.174-.072-.653-.398-.528-.642-.956-.42-.741-.235-.617-.35-1.426-.082-.574-.366-.993-.505-1.545-.249-.985.087-1.944.26-2.912-2.678.222.91-2.926.583-3.858-.31-.884-1.328-1.056-1.473-2.14-.153-1.144-.003-2.384-.158-3.569-.157-1.201-.417-2.454-.165-3.657.222-1.066.836-1.806.072-2.814-.468-.62-1.367-.792-1.792-1.469-.652-1.037-.088-2.155.987-2.605-.917-.528-1.561-1.342-1.483-2.447.072-1.025.565-1.078 1.14-1.788 1.828-2.254-1.996-2.284-1.48-4.663.246-1.128 1.274-2.014 1.655-3.105.406-1.158.582-2.634.641-3.848.045-.954-.464-1.561-.534-2.38-.077-.924.59-1.253.74-2.067.166-.911-.61-1.852-.405-2.773.208-.933 1.127-1.327 1.4-2.296.314-1.111-.249-1.888-.209-2.914.06-1.523.708-.625 1.5-1.252.519-.412.237-.87.358-1.432.156-.721.343-.984.791-1.571.592-.774 1.293-1.443 1.723-2.331.504-1.044.644-2.177 1.183-3.19.76-1.428.63-1.884-.082-3.3-.411.956-1.339 1.615-1.631 2.635.557-1.944 2.656-4.003 3.882-5.566zm-19.301 48.32c-.342-.3.195-.408.344-.155l-.344.156zm105.21-68.076c.042-.022.075-.046.1-.073-.025.027-.058.051-.1.073zM99.392 1.287c-.043.05-.078.11-.103.183.025-.074.06-.134.103-.183zm.242-.155c-.063.022-.12.052-.171.09.051-.038.108-.068.17-.09zm.826-.18c-.233.06-.472.087-.705.144.229-.056.493-.064.705-.145zM83.457 90.204c.438.065.875.226 1.315.546-.44-.32-.877-.481-1.315-.546zm167.174 15.421c.295-5.433.219-11.088 2.214-16.24.62-1.603 1.33-4.062 3.13-4.7 2.496-.886 6.318.263 8.915.424 5.375.333 10.727-.27 15.992-1.338 2.817-.571 5.435-1.824 8.152-2.725 2.75-.912 5.43-1.906 7.991-3.274 1.063 3.164 3.069 6.017 5.416 8.366 2.082 2.083 5.04 3.846 3.097 7.027-1.742 2.853-2.573 5.89-3.966 8.9-1.568 3.389-4.05 6.278-6.296 9.225-.278-.953-.341-1.901-.32-2.89-1.551.338-3.945 2.287-4.73.102-.284-.79.27-2.434-.884-2.583-1.736-.224-1.843 2.961-1.662 3.925.417 2.208 1.826 3.303 3.762 4.212-5.92 3.217-10.997 7.64-17.092 10.628-3.04 1.491-6.519 2.049-9.837 2.635-2.099.37-4.3.281-6.267-.6-7.318-3.273-7.985-14.241-7.615-21.094zM631.788 436.74c-1.802-2.653-2.133-5.924-2.645-9.006-.582-3.494-1.384-6.924-2.73-10.21-1.225-2.99-2.67-5.964-4.253-8.784-.448-.8-.992-1.88-2.04-1.962-1.171-.09-1.695 1.076-2.468 1.71-1.09.897-2.546 1.121-3.853 1.569-1.615.553-3.179 1.247-4.804 1.777-3.093 1.011-6.495 1.11-9.68 1.813-1.498.33-3 .642-4.5.966-1.004.216-2.719 1.02-3.741.851-2.16-.357-3.729-5.424-4.469-7.202-1.208-2.91-3.032-5.576-4.126-8.504-1.143-3.053-2.145-6.067-3.531-9.034-1.446-3.093-2.966-6.162-4.33-9.292-.52-1.194-.886-2.516-1.606-3.612-.777-1.183-1.772-1.407-2.095-2.854-.104-.464-.095-1.267-.435-1.64-.593-.648-.803-.043-1.372-.248-.593-.213-.481.011-.69-.561-.039-.104.29-.385.266-.548-.04-.284-.225-.538-.278-.809-.235-1.212.101-2.066-.432-3.297-.676-1.558-1.211-3.176-1.8-4.772-2.344-6.372-5.787-12.195-8.603-18.289-.34-.736-.932-1.278-1.19-2.057-.225-.684-.05-1.502-.384-2.158-.37-.725-.973-.69-1.453-1.216-.41-.45-.45-.869-.582-1.462-.644-2.882-2.294-5.257-3.07-8.11-.44-1.619-1.325-2.8-2.14-4.237-.956-1.682-1.583-3.544-2.38-5.304-.743-1.645-1.493-3.313-2.334-4.91-.774-1.469-1.249-1.68-2.378-.331-.884-1.278-1.854-2.37-2.458-3.813-.513-1.228-1.342-1.282-2.521-2.055.753.494 1.265 1.154 2.045.32.353 1.425 2.114.08 1.815-1.056-.332-1.26-2.013-1.486-3.05-1.847.509-1.331 1.332-.146 1.311-1.647-.018-1.247-1.244-2.712-1.799-3.759-1.529-2.888-2.715-5.977-4.008-8.975-1.299-3.011-2.472-6.092-3.944-9.026-.607-1.21-1.226-2.494-1.98-3.622-.326-.486-.686-1.044-1.178-1.386-.304-.211-1.17-.285-1.342-.609-.345-.652.403-1.849.298-2.667-.16-1.257-.837-2.721-1.368-3.85-1.372-2.91-2.693-5.878-4.132-8.756-1.395-2.79-2.89-5.456-4.005-8.381-.57-1.5-1.343-2.803-2.067-4.226-.572-1.124-.9-2.348-1.892-3.203.087.605.082 1.218.131 1.825-.057-.686.128-1.593-.293-2.188-.504-.71-1.502-.55-2.09-1.176.477.507 1.192.774 1.878.79-1.378-3.68-2.434-7.756-4.938-10.872-.321-.4-.752-1.06-1.201-1.296-.274-.144-1.268-.068-1.394-.208-.805-.896.504-2.517.24-3.59-.281-1.136-1.38-2.162-1.78-3.337-.632-1.85-1.095-3.086-2.263-4.635-.734-.975-.985-2.118-1.415-3.272-.751-2.012-1.527-4.02-2.372-5.994-1.594-3.727-3.705-7.135-5.44-10.781-.81-1.702-1.209-3.64-2.163-5.264-.734-1.25-1.902-2.154-2.474-3.509-.698-1.657-1.033-3.418-1.787-5.075-.53-1.164-1.1-2.296-1.578-3.48-.647-1.6-1.854-5.222-4.244-3.914.858-2.873 1.829-5.74 2.57-8.644.197-.77.21-1.765.77-2.38.586-.645.935-.532 1.343-1.352 1.097-2.199.507-5.824.688-8.197.224-2.94.74-5.848.805-8.8.065-2.943.05-5.834.246-8.774.18-2.712.362-5.407.078-8.105-.267-2.54 1.634-4.111 2.14-6.546.55-2.636.22-5.461-.16-8.098-1.397-9.666-5.78-19.894-11.814-27.596-4.597-5.87-13.13-13.417-21.153-9.851-1.103.49-1.646 1.01-2.735.226-.87-.627-.934-1.63-2.185-1.694-1.217-.062-2.474 1.061-3.453 1.653-1.357.818-2.767 1.553-4.156 2.316-2.54 1.396-4.8 2.976-6.601-.18-.487-.852-.882-2.851-1.848-3.272-.786-.343-1.155.433-1.68-.293l-.201.242c.406-.493-.039-.986.045-1.516l-.109-.558c.208-.18.39-.384.545-.61.096-.806-.628-1.872-.98-2.544-1.147-2.193-1.898-4.555-3.046-6.741-1.37-2.607-2.401-5.233-3.575-7.922-1.217-2.788-2.961-5.337-4.252-8.102-2.667-5.713-5.105-11.538-7.835-17.22-.565-1.176-3.619-9.622-5.657-8.672.463-2.065-.909-3.303-2.09-4.878-.704-.94-1.128-1.876-1.68-2.89-.462-.851-1.198-1.455-1.67-2.275-.42-.732-.352-1.469-.584-2.252-.264-.892-.824-1.47-1.384-2.188-1.333-1.713-2.339-3.693-4.107-5.026-1.098 4.378 1.425 8.736 3.065 12.63 2.002 4.753 3.777 9.605 5.674 14.401 3.744 9.468 7.98 18.73 12.396 27.9 2.314 4.802 4.765 9.54 6.884 14.43.852 1.964 1.719 3.857 2.773 5.722 1.161 2.051 1.73 4.322 2.715 6.447.71 1.532 2.085 3.09 1.543 4.881-.523 1.73-2.874 3.864-4.158 5.088-2.927 2.789-6.882 3.613-7.987 7.864-1.044 4.02-.528 9.732 2.937 12.572 3.608 2.958 10.087 1.29 14.138.731-2.48 3.707-5.041 7.36-7.48 11.095-2.258 3.456-4.228 7.104-3.662 11.365 1.376 10.34 14.767 1.372 19.55-.921-1.267 4.157-2.124 10.022.7 13.81 2.053 2.754 6.33 2.5 9.26 1.732 2.24-.587 2.89-.38 4.226 1.662 1.136 1.738 2.461 3.101 3.875 4.626 3.363 3.623 5.417 7.49 7.593 11.856 1.2 2.41 1.907 4.03.65 6.647-1.122 2.34-2.444 4.668-3.786 6.89-2.557 4.237-5.94 7.908-8.858 11.891-5.913 8.075-11.046 16.63-17.821 24.073-6.689 7.345-15.275 12.84-23.4 18.476-4.233 2.936-8.29 6.057-13.043 8.134-2.412 1.054-4.91 1.897-7.422 2.682-1.194.373-2.407.703-3.595 1.094-.674.222-1.752.833-2.473.507-.522-.235-1.05-1.898-1.263-2.303-.539-1.027-1.064-2.052-1.703-3.02-1.34-2.026-2.878-3.91-4.212-5.944-2.956-4.507-5.675-9.182-8.926-13.487-3.067-4.063-6.542-7.83-10.141-11.424-3.458-3.452-7.228-6.648-11.83-8.445-4.625-1.807-9.456-2.11-14.361-1.744-4.617.346-8.831 1.79-13.266 2.998-1.565.425-3.659 1.107-5.133.122-.718-.48-1.043-1.301-1.56-1.958-.53-.674-1.455-1.194-1.821-1.97-.594-1.262.513-2.87.72-4.166.41-2.586.022-5.304-.548-7.833-2.403-10.65-5.766-20.96-7.407-31.795-.383-2.523-.848-5.1-.922-7.653-.049-1.591.73-3.147.653-4.66-.078-1.511-1.655-1.98-2.924-1.164-1.366.88-1.365 2.96-1.447 4.393-.636 11.105 1.884 21.71 4.583 32.374.655 2.59 1.27 5.188 1.949 7.772.588 2.24 1.25 4.512.361 6.756-.802 2.022-2.149 3.858-3.08 5.832-.982 2.084-1.783 4.67-3.302 6.438-1.422 1.655-2.816 2.014-2.174 4.555.145.576.54 1.096.356 1.679-.26.827-2.057 1.61-2.74 2.05-4.516 2.906-9.34 5.306-13.944 8.062-2.003 1.199-3.983 2.872-6.145 3.743-2.08.837-3.83 1.676-5.7 2.968-4.258 2.94-8.746 5.56-13.118 8.327-4.51 2.856-9.011 5.725-13.488 8.633-4.2 2.729-8.118 5.99-12.47 8.469-4.352 2.48-8.822 4.857-13.227 7.26-1.005.55-1.877 1.116-3.04 1.114-.9-.001-1.598-.33-2.494.012-2.098.8-4.076 3.157-5.811 4.546-4.143 3.317-8.643 6.111-13.103 8.97-2.152 1.379-4.238 2.844-6.257 4.411-1.732 1.342-3.322 2.95-5.227 4.052-1.998 1.158-3.733 2.07-5.476 3.646-1.814 1.64-3.671 3.216-5.594 4.73-2.014 1.585-4.06 3.128-5.963 4.848-1.739 1.573-3.214 3.413-4.982 4.952-1.761 1.532-3.706 2.794-5.25 4.57-1.674 1.925-2.916 4.18-4.291 6.317 0-.227-1.029-.952-1.145-1.12-.556-.8-.39-1.742-.823-2.598-1.487 1.51-.291 5.161-.186 6.977-.223-3.861-.079-7.735-.59-11.575-.505-3.784-1.259-7.53-1.339-11.358-.08-3.872.178-7.754.297-11.624.05-1.658.172-3.31.502-4.94.136-.671.475-1.384.524-2.063.066-.928-.243-1.02-.6-1.838-.558-1.273-.05-1.424.602-2.467.762-1.218.004-1.608-.357-2.795-.464-1.534.923-1.892.92-3.271-.002-.571-.536-1.136-.533-1.674.006-1.151.525-.515.903-1.217.373-.696-.645-1.258-.895-2.004-.23-.683-.216-1.251.116-1.9.088-.172.308-.364.371-.531.136-.354.054-.41.123-.668.584-2.17 1.503-4.253 2.203-6.442.634-1.982.145-4.04.19-6.065.04-1.74.91-3.097 1.26-4.76.384-1.832-.768-2.574-1.499-4.072-.853-1.747-.7-4.007.041-5.762l.83 2.732c.205-.71.588-1.485.515-2.243-.083-.866-.551-.95-.823-1.604-.48-1.156.065-.642.519-1.686.233-.535-.049-1.253-.01-1.82.047-.728.347-1.312.49-2.01.229-1.123.012-1.96.781-2.883.693-.832 1.744-1.385 2.573-2.066 1.544-1.267 3.006-2.665 4.5-3.994 2.086-1.858 4.917-3.37 4.794-6.443-3.154 1.158-5.444 3.825-7.937 5.95-2.778 2.367-5.962 4.192-8.784 6.503-6.012 4.925-12.546 9.278-19.246 13.216-3.332 1.958-6.715 3.824-10.086 5.714-3.053 1.71-5.939 3.805-9.247 5.013-3.006 1.095-6.787 2.436-9.935 1.196-1.25-.492-2.494-1.375-2.993-2.659-.419-1.08-.006-2.768-1.065-3.552-.408-.303-1.21.012-1.356-.642-.115-.514.824-1.077.898-1.589.182-1.268-1.354-3.452-1.839-4.626-.278-.67-.508-1.549-1.072-2.052-.209-.185-.623-.196-.765-.388-.171-.233-.02-.431-.135-.646-.345-.646-.242-1.109-.832-1.734-.636-.674-1.516-1.128-2.252-1.682.034-.034.619.343.685.38-.069-1.06-.639-1.982-.791-3.019-.16-1.088.186-2.033-.35-3.05-.546-1.036-1.616-1.753-2.21-2.774-.606-1.042-.85-2.279-1.339-3.38-.93-2.093-2.454-3.4-2.86-5.688-.09-.515-.053-.966-.37-1.416-.27-.382-.808-.31-1.032-.77-.332-.679.114-1.192-.507-1.883-1.175-1.304-3.112-.893-2.12-3.142 1.006-2.281.363-2.35-1.036-4.083-1.424-1.764-1.805-4.408-2.444-6.519-.251-.833-.4-1.714-1.024-2.323-1.016-.992-1.316-.369-.829-1.876-1.858.094-1.97-3.378-2.194-4.71-.148-.866-.339-2.056-.979-2.715-.44-.454-1.405-.38-1.425-.394-.412-.293-1.146-1.771-1.215-2.188-.078-.477.38-.801.301-1.371-.081-.586-.688-1.17-1.061-1.564-1.467-1.543-3.88-4.823-2.992-7.13 3.785 3.903 7.407 7.963 11.19 11.87 2.999 3.1 6.298 5.875 10.488 7.17 4.746 1.467 9.93 1.687 14.866 1.524 2.588-.084 5.15-.627 7.744-.494 2.687.137 5.221.001 7.864-.586 1.137-.253 2.262-.727 3.421-.833.894-.081 1.766.077 2.659-.08 2.263-.396 4.302-1.831 6.31-2.867 4.36-2.249 8.502-4.781 12.211-8.016 7.136-6.22 11.78-14.59 16.234-22.805 5.024-9.266 9.469-18.697 15.041-27.671 2.75-4.428 5.42-8.95 8.618-13.076 2.948-3.803 6.553-6.93 10.445-9.733 3.669-2.643 7.42-5.733 11.952-6.676 2.458-.513 4.986-.688 7.462-1.109 2.653-.45 5.147-.76 7.782-.023 2.336.653 4.618 1.5 6.953 2.162 2.542.722 5.184 1.071 7.568 2.275 2.129 1.077 4.021 2.565 6.092 3.746 1.852 1.055 4.628 1.584 5.612 3.642.995 2.081.853 4.626 1.655 6.8.916 2.487 2.204 4.808 3.705 6.987 2.513 3.649 5.795 6.824 10.384 7.355 5.478.633 10.963-1.432 15.948-3.459 5.149-2.093 9.256-5.955 14.262-8.305 0 1.812.227 3.616.037 5.426-.21 1.996-.763 3.954-1.224 5.9-.906 3.824-1.822 7.674-3.388 11.293-1.511 3.496-3.639 6.572-5.822 9.67-2.103 2.983-4.079 6.135-6.61 8.783-4.49 4.701-10.89 7.51-17.263 8.475-6.545.993-13.946.773-19.088-3.825-4.964-4.438-8.835-10.186-9.977-16.822-1.329-7.724-1.027-15.662-.53-23.448.253-3.945.615-7.887 1.266-11.789.565-3.381 2.133-6.985.907-10.357-.282-.779-.407-1.53-1.184-1.573-1.352-.075-2.49 1.95-3.031 2.875-1.813 3.094-2.297 6.577-2.936 10.05-1.543 8.4-1.863 17.106-1.37 25.611.246 4.204.402 8.474 1.563 12.549 1.157 4.056 2.912 8.01 4.889 11.727-.81-.16-1.26.303-1.02 1.1l1.045-1.051c3.998 5.137 8.715 11.31 15.152 13.435 3.781 1.248 7.422 2.272 11.446 2.157 3.964-.113 7.642-1.2 11.293-2.68 3.302-1.34 6.714-2.5 9.464-4.846 2.807-2.394 5.102-5.576 7.333-8.493 4.83-6.318 8.897-13.206 11.276-20.831 1.17-3.752 1.668-7.578 2.291-11.442.31-1.915.607-3.838.624-5.781.014-1.579-.39-3.12-.378-4.692.02-2.983 2.912-4.04 5.51-4.418 3.346-.488 5.043 2.475 6.773 4.832 2.306 3.144 4.522 6.326 6.597 9.628.918 1.46 1.44 3.372 2.414 4.732.678.945 1.847 1.415 2.635 2.389 2.401 2.964 4.924 6.163 6.859 9.446 1.857 3.15 4.566 5.974 6.947 8.756 2.63 3.072 5.515 5.914 8.15 8.98 2.072 2.413 4.831 3.815 6.928 6.165 2.123 2.38 5.597 3.847 8.178 5.756 1.492 1.103 2.949 2.26 4.356 3.467 1.393 1.195 2.54 2.747 4 3.842 5.376 4.029 10.752 7.691 17.768 7.941 1.521.054 2.822-.462 4.27-.544 1.569-.09 3.052.679 4.715.538 3.704-.316 7.59-1.15 11.147-2.215 7.176-2.148 14.754-4.757 20.866-9.199 3.08-2.238 5.554-5.046 8.115-7.833 1.356-1.475 4.536-4.951 2.24-7.072-1.941-1.793-5.48 3.217-6.702 4.369-2.687 2.535-5.94 4.278-9.343 5.662-3.437 1.396-7.006 2.428-10.502 3.661-3.665 1.292-7.226 2.758-11.115 3.23-1.992.24-3.996.366-5.992.574-2.042.212-4.1.78-6.15.478-3.73-.548-7.721-.994-11.05-2.867-6.476-3.643-11.4-9.862-17.317-14.311-2.976-2.238-6.187-4.122-8.989-6.593-2.893-2.55-5.347-5.563-7.846-8.487-5.507-6.442-10.917-12.96-16.225-19.568-2.357-2.934-5.005-5.787-7.13-8.894-.852-1.247-1.496-2.655-1.257-4.2.284-1.84 1.48-3.378 1.707-5.254.43-3.57-1.426-7.061-2.883-10.203-.565-1.219-1.373-2.602-.402-3.817.968-1.211 2.55-2.156 3.626-3.331 2.584-2.826 5.11-5.708 7.486-8.713 1.06-1.34 2.185-2.66 3.043-4.143 1.049-1.814 1.48-3.877 2.081-5.867 2.333-7.72 3.163-15.674 2.26-23.702-.828-7.35-1.377-15.646-4.664-22.372-3.145-6.436-8.214-11.537-13.625-16.101-3.12-2.63-6.284-5.21-9.435-7.8-3.063-2.517-6.386-4.085-9.734-6.12-6.645-4.04-13.926-4.685-21.55-4.053-3.96.328-7.937.19-11.77 1.41-3.638 1.158-7.001 3.13-10.198 5.179-6.41 4.11-12.715 8.392-19.193 12.398-13.107 8.106-29.575 14.829-45.108 10.91-7.688-1.94-15.313-5.016-22.305-8.746-7.016-3.742-13.545-8.032-20.994-10.934-3.827-1.49-7.722-2.808-11.525-4.362-1.642-.67-3.315-1.645-5.092-1.893-.648-.09-1.521.154-2.12-.147-.533-.269-.348-.59-.767-.863-.877-.572-2.412-.473-3.492-.875-1.002-.374-2.82-1.713-3.906-1.575-.585.074-.804.652-1.444.63-.59-.02-1.136-.695-1.63-.954-1.635-.864-3.668-1.073-5.471-1.332-3.496-.5-6.598-.964-9.974.266-3.168 1.154-6.454 2.14-9.675 3.19-1.687.55-2.694 1.057-4.113 2.047-.847.589-1.892.701-2.872 1.107-2.846 1.18-5.909 3.777-7.187 6.552-.653 1.418-1.568 1.072-2.403 2.101-.866 1.066-.523 2.602-1.584 3.702-.88.912-1.188 1.845-2.098 2.772-1.188 1.211-1.838 2.865-2.524 4.388-3.309 7.345-5.603 15.303-6.632 23.297-.51 3.958-.552 7.893-.235 11.867.297 3.737.145 7.759 1.396 11.339.123-.278.243-.557.356-.84.255.342.838.72.844 1.194.009.693-.449 1.073-.954.428.897 3.17 2.158 6.108 3.78 8.988.696 1.234 1.2 1.538 2.333 1.981 1.145.446.849.64 1.58 1.686.609.871.975.997 2.005.611.45-.167.469-.587.986-.484.375.074.905.946 1.155 1.194.474.47.906.937 1.586 1.103.801.197 1.242-.411 1.826-.341 1.22.146 1.803 1.327 3.106 1.505 1.313.18 1.932.228 3.179.725 1.764.702 3.683.943 5.572.913 1.524-.025 3.239-.12 4.706-.564.794-.24 1.405-.616 2.244-.722.713-.09 1.425.076 2.143-.087 1.491-.338 2.796-.956 4.346-1.22 1.425-.243 2.77-.693 4.147-1.12.823-.254 1.995-.856 2.495.147.595 1.196-.991 3.26-1.422 4.267l.842-.049c-1.174.44-1.106.426-1.669 1.612-.57 1.203-1.352 2.3-1.803 3.56-1.035 2.89-1.374 6.11-2.011 9.109-1.38 6.485-2.813 12.748-2.442 19.424.322 5.8.84 12.007 4.983 16.46.857.92 1.822 1.794 2.425 2.916.604 1.124.818 2.298 1.625 3.33 1.558 1.992 4.11 3.633 6.579 4.204 2.782.645 5.833 1.294 8.687.906 2.774-.377 5.62-.772 8.369-1.309 5.99-1.169 10.608-5.778 14.476-10.211 2.014-2.308 4.135-4.572 6.036-6.975.53-.669 1.117-1.97 1.97-2.287 1.062-.394 1.878.477 2.844.857 1.494.587 3.275.85 4.844 1.176 1.161.241 2.134.04 2.072 1.383-.057 1.226-1.606 3.221-2.164 4.33-.757 1.501-1.501 3.007-2.246 4.512-2.93 5.922-5.987 11.742-9.335 17.439-3.16 5.38-6.65 10.448-11.564 14.376-4.68 3.743-10.235 6.926-15.75 9.276-3.061 1.306-6.289 1.702-9.573 2.055-1.44.155-2.886.263-4.325.424-.616.07-1.265.223-1.883.222-.63-.002-1.287-.372-1.857-.355-.909.028-1.534.65-2.553.64-1.442-.014-2.91-.186-4.354-.242-3.267-.128-6.6-.204-9.822-.797-6.27-1.152-10.324-4.872-14.829-9.076-1.915-1.788-4.005-3.599-5.723-5.579-.5-.577-.83-.856-.588-1.572.107-.319.646-.628.86-.895.607-.76 1.28-1.841 1.58-2.772.504-1.565-.757-5.032-2.934-4.358-1.478.457-1.663 2.791-3.098 3.352-1.278.499-1.575-.495-1.831-1.498-.334-1.3-.415-2.265-1.415-3.296-.924-.952-2.092-1.333-2.113-2.853-.007-.563.275-1.087.223-1.658-.052-.594-.725-1.311-.65-1.868.157-1.17 2.551-1.804 3.418-2.377 1.275-.844 2.396-1.875 3.41-3.015 2.363-2.66 4.243-5.828 5.866-8.982 2.739-5.32 4.998-11.42 4.389-17.5-.23-2.288-.87-4.696-2.407-6.467-2.396-2.76-5.565-2.255-8.856-2.255 2.619-4.966 6.341-12.24 2.66-17.613-2.985-4.36-8.849-1.947-12.918-.928.807-4.031 1.938-8.143 1.189-12.276-.483-2.663-1.717-5.975-4.417-7.105-3.047-1.274-6.839.598-9.368 2.26-3.027 1.986-5.64 4.854-7.791 7.746-1.041 1.4-3.35 5.744-5.07 2.687-.555-.987-.676-2.258-1.073-3.318-.728-1.945-1.684-3.378-2.889-5.002-.79-1.067-.54-2.214-1.194-3.382-.392-.703-1.012-1.258-1.393-1.975-.482-.907-.64-1.916-.942-2.886-.53-1.702-1.569-3.007-2.435-4.53-1.01-1.772-.93-3.758-1.64-5.628-1.683-4.433-4.08-8.67-6.04-12.988-1.647-3.63-3.347-7.245-6.77-9.535-.88 2.587-.713 4.152.136 6.744.841 2.568 1.696 5.134 2.655 7.661 1.83 4.82 4.06 9.465 6.174 14.162 2.133 4.734 3.908 9.61 6.005 14.36 1.019 2.308 2.071 4.602 3.088 6.912.724 1.645 2.721 4.46 1.677 6.206-.425.712-1.243 1.259-1.782 1.9-.764.91-1.381 1.917-2.051 2.895-1.336 1.95-2.78 3.82-4.157 5.739-2.91 4.056-5.541 8.366-8.207 12.586-5.358 8.476-8.083 18.983-6.792 28.935.68 5.242.568 10.533 1.311 15.775.736 5.193 1.872 10.357 3.342 15.392 1.335 4.576 4.128 8.938 3.84 13.795-.231 3.894-.33 7.805.409 11.66.302 1.58.751 3.15 1.495 4.58.38.729.823 1.423 1.363 2.044.58.668 1.621 1.114 2.109 1.775.31.422.267 1.16.403 1.643.223.79.589 1.489.993 2.198 1.224 2.151 2.598 4.463 4.249 6.31 3.04 3.403 6.088 6.946 9.419 10.073 3.413 3.204 6.792 6.678 10.45 9.593 1.001.797 2.054 1.54 3.169 2.168.455.257 1.03.659 1.552.766.36.074.853-.08 1.17.027.848.279.063.055.856.792.683.635 1.339.754 2.186 1.176 4.704 2.345 8.9 5.317 13.899 7.03 5.47 1.875 11.039 3.971 16.773 4.853 2.521.389 8.58-.983 9.082 2.653 1.756-1.743 3.74-.308 5.678.181 0-.494-.36-1.808 0-2.197.465-.502 2.512.018 2.973.352.964.701 1.29 2.294 1.732 3.33.755 1.77 1.601 3.504 2.393 5.257 3.117 6.905 6.225 13.816 9.377 20.705 6.302 13.778 12.289 27.698 18.348 41.584 1.408 3.224 2.674 6.502 4.03 9.747 1.233 2.951 2.95 5.658 4.316 8.544 1.527 3.225 2.616 6.64 4.104 9.887 1.523 3.327 3.041 6.658 4.55 9.992 6.169 13.632 12.07 27.381 18.005 41.116 6.738 15.595 13.632 31.123 20.542 46.643-7.391 1.61-14.775 3.569-22.275 4.62-3.51.492-7.09.411-10.583 1.041-1.828.329-3.412.761-5.282.705-1.813-.053-3.599-.038-5.413.031-7.254.273-14.748.178-21.936-.904-2.905-.437-6.1-1.303-8.844.198-2.4 1.312-3.13 3.764-3.564 6.298-4.787-1.13-8.869-4.081-13.555-5.498-4.463-1.35-9.53-1.752-13.992-.183-4.485 1.577-9.356 3.844-13.183 6.678-3.951 2.925-6.723 7.067-9.151 11.272-2.695 4.667-5.095 9.498-7.75 14.188-2.738 4.839-5.466 9.631-7.79 14.69-4.652 10.129-8.304 20.895-10.78 31.756-.938 4.116-1.451 8.567 1.295 12.143 2.835 3.695 7.447 3.733 11.547 2.39 2.267-.743 4.31-1.923 6.386-3.072 1.993-1.103 4.007-1.99 5.76-3.47 3.776-3.191 7.954-5.97 11.788-9.131 7.235-5.964 15.284-10.512 21.216-17.937 2.996-3.747 6.817-7.338 8.94-11.694.673-1.377 1.1-4.196-1.198-4.248-1.47-.034-2.825 1.789-3.72 2.747-4.11 4.401-8.63 8.494-13.444 12.118-2.276 1.715-4.725 3.17-7.117 4.71-2.399 1.544-4.507 3.359-6.795 5.038-2.256 1.655-4.67 2.968-6.852 4.743-2.198 1.79-4.45 3.436-6.843 4.957-4.803 3.056-9.687 6.2-15.174 7.883 0-3.74 2.084-6.845 3.276-10.236 1.252-3.558 2.28-7.002 3.823-10.476 1.654-3.728 3.311-7.455 5.07-11.135 1.657-3.465 3.755-6.694 5.405-10.162 1.5-3.151 3.725-5.756 5.037-8.93.677-1.64 1.826-3.057 2.69-4.597.957-1.705 1.835-3.452 2.813-5.147 3.807-6.595 9.07-10.985 15.847-14.414 3.665-1.855 7.723-2.952 11.836-3.068 4.722-.132 9.33 1.225 14.044 1.225-.147 2.97.234 6.438-.701 9.298-.333 1.012-.934 1.532-.761 2.56.068.41.615.836.71 1.363.136.741-.09 1.646-.127 2.4-.326 6.539-.188 13.065.155 19.597.112 2.124.114 5.035 2.28 6.247.922.517 1.076.248 1.963-.068 1.275-.453 2.09-.153 3.316.41.798.366 1.591.717 2.396 1.061.396.169 1.198.31 1.405.78.106.24-.106.792-.007.94.495.75.232.408 1.336.3 1.46-.139 2.295.421 3.559 1.164 10.912 6.416 23.828 7.059 36.13 8.482 6.483.75 12.842 1.888 19.388 2 6.497.11 13.04.175 19.511-.45 2.861-.277 5.712-.744 8.558-1.139.945-.131 4.727-1.64 3.604.812-.485 1.057-1.935 1.709-2.753 2.466-.92.852-1.565 1.976-2.598 2.71-1.353.962-2.68 1.675-3.951 2.797-4.426 3.907-8.47 8.094-13.115 11.774-1.901 1.507-4.128 3.031-5.36 5.183-1.22 2.127-1.24 4.894-.986 7.265.286 2.653 1.403 4.937 2.442 7.353 1.29 3.003 2.207 6.179 3.294 9.26 1.03 2.917 2.106 5.82 3.313 8.668.776 1.833 1.467 4.369 2.932 5.805.659.646 1.572 1.208 2.522.793.928-.406.98-1.498 1.64-2.1.949-.866 1.53-.239 2.716-.007 1.643.32 2.2-.45 3.623-.945 1.004-.349 2.027.082 3.054-.382.93-.421 1.537-1.34 2.42-1.835 2.357-1.32 6.048-1.21 8.692-1.671 13.055-2.281 25.762-6.188 38.63-9.315 6.432-1.562 12.92-2.92 19.32-4.616 2.992-.792 5.965-1.661 8.922-2.579 1.577-.489 3.21-.919 4.738-1.549 1.432-.59 2.644-1.375 4.2-1.591 2.95-.411 5.521-1.584 8.422-2.26 3.13-.73 6.042-2.106 9.111-3.031 3.116-.937 6.324-1.544 9.45-2.449 3.19-.925 6.29-2.138 9.482-3.055 6.181-1.773 12.604-2.708 18.614-5.084 1.24-.49 2.428-1.145 3.744-1.417 1.602-.33 3.195-.294 4.791-.74 3.214-.898 6.297-2.135 9.54-2.96 6.133-1.562 12.312-3.003 18.428-4.615 5.798-1.53 11.754-2.23 17.63-3.49 6.39-1.37 12.79-2.755 19.15-4.251 2.914-.685 5.763-1.463 8.73-1.89 3.094-.448 5.873-1.782 8.964-2.215 12.295-1.721 24.499-3.671 36.586-6.52 6.327-1.492 12.665-2.927 19.016-4.312 2.885-.628 6.066-.954 8.806-2.056 2.882-1.159 5.74-1.425 8.693-2.305 6.186-1.847 12.611-2.641 18.88-4.175 6.143-1.503 12.466-2.535 18.537-4.28 1.13-.325 3-1.456 4.183-1.093.915.28 1.102 1.308 1.819 1.796 1.95 1.328 4.021-1.252 5.285-2.494 1.802-1.771 3.614-2.433 5.68-3.682 2.537-1.534 4.975-4.22 6.955-6.427 8.218-9.17 19.452-14.578 28.336-23.046 4.574-4.362 8.676-9.013 12.705-13.872 1.87-2.255 3.92-4.356 5.993-6.424 1.134-1.13 2.281-2.249 3.415-3.379.702-.699 1.902-2.573 2.912-2.802.94-.21 1.965.647 3 .43.941-.199 1.624-.865 2.144-1.638 1.273-1.89 1.753-4.816.41-6.793z" transform="translate(0 -4861) translate(0 -5) translate(0 4866.852)"/>
                        <path d="M538.85 310.192c-.086-.01.022.004.06.01-.041-.047-.12-.019-.06-.01M394.73 438.884c-.054-.004-.03.038-.013.017-.028.045.005-.005.014-.017M346.275 174.976c.694-.089 1.386-.178 2.08-.264-1.03-.83-1.228-.45-2.08.264M132.02 323.24l-.864.168c.456.673.43.345.865-.169M266.21 278.207c-.787.684-1.47 1.438-2.027 2.32l2.97-.573c-4.552 8.132-7.505 17.02-10.28 25.878-4.272-4.014-8.362-8.202-12.408-12.441-1.317-1.381-3.647-2.918-4.457-4.674-.368-.797-.235-1.295-.888-1.927-.789-.764-2.414-1.078-3.398-1.5 9.842-3.587 20.281-4.94 30.488-7.083m-35.85 8.536c1.148-.349 2.65-1.37 3.885-1.203 1.425.192 1.572 1.777 2.35 2.817 2.577 3.44 6.046 6.455 9.065 9.502 3.045 3.072 5.983 6.297 9.207 9.183.821.735 2.274 2.584 3.404 1.766 1.222-.885 1.835-4.3 2.357-5.708 1.517-4.09 2.757-8.296 4.5-12.298 1.769-4.063 3.768-8.08 5.756-12.039.531-1.057 1.586-2.55.738-3.707-.998-1.366-3.14-.388-4.407-.027-4.3 1.223-8.767 1.96-13.16 2.767-4.816.885-9.497 2.262-14.163 3.734-2.233.704-4.462 1.412-6.677 2.17-1.846.632-4.008 1.197-5.206 2.874.845.308 1.47.437 2.35.17M290.16 269.027c6.105-1.994 12.378-3.644 18.777-4.32 3.228-.341 6.482-.312 9.724-.292 2.308.014 5.636-.178 3.708-3.254-1.405-2.243-4.38-3.761-6.348-5.494-2.066-1.82-3.425-4.126-4.761-6.499-1.542-2.743-3.179-5.43-4.673-8.199-1.113-2.062-2.007-5.033-4.253-6.12 1.697 5.76 5.103 10.827 8.118 15.954 1.363 2.318 2.761 4.869 4.81 6.667 1.625 1.426 4.342 2.339 5.08 4.562-5.985 0-12.052.111-17.983.975-5.014.732-10.232 3.842-15.327 3.422 3.042-6.913 6.558-13.563 9.875-20.342 1.201-2.453 2.503-5.111 3.11-7.804.583-2.572-.838-1.457-1.654.139-2.984 5.843-5.996 11.663-9.063 17.467-.842 1.597-1.643 3.21-2.377 4.86-.693 1.56-1.754 3.316-1.812 5.072-.093 2.847 2.583 4.012 5.05 3.206M196.541 336.976c5.836-1.567 11.464-3.87 17.396-5.084 5.41-1.108 11.606-.535 16.7-2.808-1.72-3.22-5.227-3.949-7.828-6.386-2.822-2.646-5.2-5.938-7.608-8.954-2.506-3.137-4.533-6.545-6.886-9.784-1.286-1.77-3.791-5.5-6.304-5.375-1.316.065-2.194 1.491-1.205 2.598.723.808 2.324.65 3.262 1.149 2.845 1.516 4.35 5.437 6.166 7.957 2.37 3.29 4.99 6.421 7.594 9.53 2.86 3.416 5.983 5.924 9.646 8.427-11.147.143-21.958 3.271-32.463 6.74 1.829-5.431 2.695-11.126 3.498-16.78.397-2.81.773-5.622 1.03-8.447.229-2.489.753-5.316.137-7.781-1.614 2.805-1.632 6.305-1.98 9.435-.42 3.793-.821 7.609-1.509 11.364-.653 3.568-1.819 7.02-2.494 10.57-.42 2.208.1 4.367 2.848 3.63M390.449 356.064c.942 4.925.779 9.972 1.795 14.894.494 2.401 1.044 4.79 1.613 7.174.413 1.73 1.275 4.236.595 6.001-1.172 3.05-6.685-3.13-7.887-4.068-4.092-3.188-8.119-6.458-12.157-9.713l16.04-14.288m-18.188 15.538c5.39 4.749 11.627 8.516 16.82 13.459 1.605 1.527 4.645 5.286 6.704 2.585 1.915-2.51.585-7.077-.029-9.803-.81-3.593-1.413-7.239-1.799-10.903-.198-1.873-.319-3.753-.462-5.63-.14-1.835-.611-3.717-.588-5.554.008-.556.027-1.218.341-1.705.293-.453.958-.57 1.201-.973.767-1.272-.547-1.411-1.55-1.397-1.367.018-1.713.215-2.535 1.27-.954 1.226-2.078 2.076-3.305 3.017-3.273 2.51-6.554 5.018-9.69 7.7-1.652 1.413-7.93 5.446-5.108 7.934M366.002 294.968c.085 6.824 1.315 13.642 3.814 20.002-7.2-1.479-13.662-5.157-19.899-8.893l16.085-11.109m-16.72 14.073c3.262 1.872 6.484 4.04 9.924 5.569 2.981 1.323 6.228 1.79 9.277 2.9 1.697.618 5.333 2.408 4.384-1.045-.349-1.269-1.145-2.424-1.666-3.626-.769-1.775-1.357-3.627-1.786-5.513-.852-3.75-1.116-7.661-1.231-11.498-.086-2.929 2.16-4.74 4.976-5.468.925-.238 3.005-1.035 1.037-2.047-1.064-.548-2.695.377-3.648.837-3.199 1.547-6.032 3.719-8.986 5.665-3.71 2.446-7.493 4.776-11.205 7.22-1.164.766-2.736 1.596-3.127 3.048-.446 1.655.672 3.167 2.051 3.958M222.578 360.442c-5.235-1.78-10.695-2.742-16.13-3.682 3.78-4.955 8.083-9.496 12.708-13.666 3.674 6.488 7.304 13.086 9.504 20.245-2.02-.98-3.948-2.171-6.082-2.897m6.517-.596c-1.304-3.133-2.497-6.315-3.987-9.367-.634-1.301-1.314-2.582-2.083-3.808-.46-.73-1.298-1.62-1.412-2.503-.124-.976.363-1.078.078-2.052-.32-1.095-.899-1.944-2.142-1.734-2.297.388-5.054 3.46-6.665 4.977-2.445 2.301-4.81 4.762-6.995 7.311-2.142 2.497-2.412 5.136.824 6.831 2.64 1.384 6.01 1.383 8.908 1.787 3.29.458 6.604 1.092 9.55 2.708 1.25.685 4.167 3.587 5.045 1.117.547-1.54-.533-3.855-1.12-5.267M262.233 317.962c-3.297 6.871-6.38 13.84-9.17 20.933-1.264 3.215-2.585 6.44-3.62 9.737-.293.936-1.308 6.094 1.03 4.125.758-.64 1.705-2.125 2.074-2.99.59-1.383.07-2.72.575-4.144 1.195-3.368 2.6-6.692 3.871-10.037 1.284-3.38 2.578-6.756 3.883-10.128 1.09-2.814 3.537-6.044 2.724-9.209-.455.56-1.049 1.05-1.367 1.713M390.407 520.55c-.069-.039-.138-.079-.208-.108.07.03.14.07.208.107m101.229-43.178c-17.469.867-34.704 5.396-51.64 9.47-17.123 4.12-34.112 8.923-50.81 14.527-8.283 2.78-16.516 5.71-24.781 8.54-7 2.398-14.752 4.74-20.887 9.003-1.747 1.214-4.569 3.963-1.948 5.807 1.64 1.154 4.844 1.5 6.823 1.59 1.873.084 3.772-.422 5.671-.4 2.323.029 4.638.139 6.96-.025 4.317-.304 8.647-1.15 12.877-2.044 4.599-.972 9.058-2.248 13.749-2.707 1.739-.171 3.061-.697 4.708-1.227 1.815-.585 3.883-.461 5.663-1.14.736-.28 1.228-.898 1.97-1.146.906-.303 1.929-.003 2.858-.058 2.225-.132 4.536-.865 6.716-1.316 2.346-.485 4.69-.977 7.034-1.477 1.838-.393 3.665-.625 5.123-1.906-1.772-1.435-2.844-1.098-4.987-.51-2.402.656-4.862 1.144-7.288 1.704-4.922 1.136-9.817 2.395-14.762 3.429-10.066 2.105-20.105 3.675-30.34 4.604-2.515.227-5.047.398-7.547.763-2.417.354-4.265.666-6.695.169-1.962-.402-3.728-.491-1.56-2.289.674-.557 1.449-.886 2.161-1.36.886-.591.918-1.11 1.47-1.932.987-1.47 2.91-1.075 4.515-1.147 1.838-.083 3.37-1.233 5.192-1.765 1.998-.585 3.66-.725 5.463-1.817.784-.476.74-.358 1.573-.355 1.04.003 1.829-.26 2.798-.726 1.872-.9 3.244-1.758 5.325-1.683 1.175.042 1.595-.333 2.675-.89 1.158-.597 2.262-.833 3.543-.993 2.685-.334 5.181-.868 7.687-1.936 1.109-.472 2.082-1.172 3.17-1.662.157-.07 1.995-.348 2.025-.377.182-.18-.143-1.075.593-1.145.66-.063.92.67 1.646.548.31-.053.256-.477.5-.587.482-.217.743-.305 1.282-.311 2.18-.03 3.32-.434 5.328-1.388.893-.425 1.707-.662 2.662-.92 1.01-.272 1.315-.73 2.157-1.184 1.437-.774 1.683.863 3.199.533.74-.162 1.315-.768 1.961-1.12.873-.475 1.565-.497 2.54-.613 1.866-.222 3.502-1.1 5.337-1.416.767-.133 1.419-.458 2.17-.63.994-.226 2.021-.01 3.003-.355 1.628-.568 2.341-1.702 4.102-1.697 2.131.008 3.974-.732 5.983-1.468 2.165-.793 4.285-1.808 6.59-2.117 2.144-.288 4.288-.246 6.406-.748 2.126-.505 4.156-1.336 6.225-2.023 2.246-.745 4.47-1.045 6.787-1.462 1.971-.353 4.108-.439 6.036-.906.854-.207 1.56-.72 2.402-.933.98-.25 1.856-.171 2.823-.604.856-.384 1.596-1.069 2.56-1.188 1.173-.144 2.23.115 3.437-.148 1.1-.239 1.934-.184 3.003-.244.864-.048 1.388-.554 2.366-.884 2.075-.703 4.426-.36 6.574-.755 2.123-.391 4.454-.837 6.27-2.076-2.342-1.642-5.79-1.01-8.446-.877" transform="translate(0 -4861) translate(0 -5) translate(0 4866.852)"/>
                        <path d="M450.969 499.41c-6.792-.457-13.495.715-20.217 1.466-5.5.614-11.415.7-16.401 3.392 6.227-.418 12.487-.606 18.675-1.468 5.62-.782 11.437-2.537 17.093-1.029-2.563 2.005-5.8 2.682-8.82 3.681-3.777 1.249-7.522 2.597-11.29 3.87 1.403 1.81 4.878-.225 6.576-.722 2.708-.79 5.367-1.68 7.986-2.729 2.263-.906 4.719-1.569 6.856-2.752 2.429-1.346 2.615-3.503-.458-3.709M327.971 428.185c-.868-1.91-3.419-3.122-4.732-4.795-1.89-2.409-3.773-4.793-5.75-7.132-1.843-2.181-3.526-4.449-4.91-6.953-1.502-2.71-2.48-5.688-4.094-8.337-.49.966-1.082 2.146-.903 3.268.172 1.086 1.035 1.653 1.63 2.499 1.502 2.125 2.265 4.773 3.764 6.966 3.221 4.714 7.126 8.912 10.726 13.332-8.712 1.154-17.423 2.308-26.134 3.46 1.989-5.704 4.36-11.295 6.26-17.02.91-2.737 1.62-5.521 2.352-8.307.576-2.194 1.48-4.858-.2-6.812-1.01 3.484-1.7 7.04-2.94 10.459-1.222 3.37-2.683 6.659-4.024 9.984-1.31 3.246-6.895 14.038-.027 14.66 2.885.26 6.106-.567 8.939-1.007 3.575-.557 7.147-1.168 10.738-1.624 1.358-.172 10.64.297 9.305-2.641M271.192 449.24c-2.304-2.635-4.693-5.196-7.05-7.785-1.582 1.642-1.048 2.231.49 3.772 1.42 1.423 2.951 2.752 4.316 4.228 1.367 1.48 1.154 2.195-.304 3.444-1.609 1.379-3.352 2.611-4.993 3.954-3.371 2.76-6.73 5.539-10.162 8.227-2.785 2.182-6.08 5.619-9.55 6.623l-2.649-13.866c-1.67.398-1.991.803-1.706 2.56.356 2.196 1.04 4.341 1.465 6.526.363 1.859 1.137 3.923.83 5.833-.132.814-.7 1.583-.719 2.409-.02.964.614 1.521 1.025 2.342 6.72-4.384 13.062-9.327 19.274-14.4 2.946-2.404 5.809-4.928 8.822-7.247.928-.716 2.184-1.362 2.457-2.608.293-1.334-.709-3.053-1.546-4.012M291.57 376.932c-8.203 1.553-16.497 2.535-24.77 3.612 1.746 3.016 4.719 2.196 7.582 1.796 4.21-.587 8.474-1.066 12.711-1.394.306 7.468 1.01 14.96.97 22.438-.01 1.858-.106 4.346-2.292 4.876-3.064.745-7.234-1.269-10.129-2.106.612 1-.297 1.983.722 2.845.647.545 1.796.618 2.583.872 2.445.788 4.928 1.928 7.566 1.358 3.894-.842 3.337-5.352 3.258-8.411-.154-5.88-.78-11.862-.477-17.74.12-2.326 1.069-3.24 2.812-4.6.656-.512 1.43-.995 1.466-1.925.04-1.098-.97-1.816-2.002-1.62M13.876 176.267c-.19.094-.122.101-.161.32.125-.002.178-.109.16-.32M173.014 476.414c-1.527-.919-2.152.81-2.774 1.873-1.228 2.098-2.483 4.184-3.716 6.279-.838-1.822-1.035-3.815-1.263-5.781-.113-.977.035-4.277-1.656-3.34-1.445.801-.344 3.272-.148 4.47.312 1.912.522 3.891 1.145 5.736 1.357 4.012 3.775 1.509 5.284-.894 1.165-1.853 2.439-3.64 3.573-5.513.79-1.307.993-1.966-.445-2.83M193.874 509.049c-2.638 3.023-5.228 6.089-7.838 9.136 3.748-.176 4.91-2.197 7.217-4.72.763-.834 1.869-2.222 3.07-2.412.917-.146.644-.262 1.303.788.449.716.952 1.407 1.444 2.093.461.645 2.076 2.732 2.87.968.37-.824-1.486-2.68-1.951-3.34-1.43-2.03-3.624-5.366-6.115-2.513M276.013 117.152c1.1 4.432 5.227 1.132 6.781-.885 2.243-2.912 3.577-6.608 4.28-10.189.29-1.48.516-3.34-.149-4.761-.77-1.651-2.222-1.284-3.21-.062-1.216 1.505-1.68 3.792-2.41 5.554-.818 1.975-1.734 3.93-2.905 5.723-.95-1.012-2.404-2.115-2.984-.226-.447 1.463.246 3.431.597 4.846M269.124 107.93c2.005-.18 5.106-1.515 5.829-3.579 1.399-3.996-4.609-2.12-6.417-1.884.09-1.443 1.186-5.98-.809-6.699-1.498-.538-2.278 2.548-2.486 3.555-.583 2.834-.333 8.986 3.883 8.608M261.068 116.338c-.04 1.39 2.41 8.11 4.646 5.445 1.026-1.223-.167-2.132-.875-3.056-1.13-1.474-1.643-3.317-2.7-4.848-.333.688-1.071 1.676-1.071 2.459M353.496 179.973c-.75.85-1.44 1.552-.878 2.683.256.518 1.268 1.72 1.983 1.52.668-.187.608-1.146.463-1.66-.301-1.059-1.362-1.31-.805-2.58l-.763.037M228.591 173.805c.03.15.093.283.19.4.886-.785-.13-.772-.19-.4M69.008 244.204l-.25-.406c-.277.253-.28.51-.008.77l.258-.364" transform="translate(0 -4861) translate(0 -5) translate(0 4866.852)"/>
                    </g>
                </g>
            </g>
        </g>
    </g>
</svg>
